*
*
G04 PADS 9.5 Build Number: 522968 generated Gerber (RS-274-X) file*
G04 PC Version=2.1*
*
%IN "SYNAPTICS_BASE_MODULE_D"*%
*
%MOIN*%
*
%FSLAX35Y35*%
*
*
*
*
G04 PC Standard Apertures*
*
*
G04 Thermal Relief Aperture macro.*
%AMTER*
1,1,$1,0,0*
1,0,$1-$2,0,0*
21,0,$3,$4,0,0,45*
21,0,$3,$4,0,0,135*
%
*
*
G04 Annular Aperture macro.*
%AMANN*
1,1,$1,0,0*
1,0,$2,0,0*
%
*
*
G04 Odd Aperture macro.*
%AMODD*
1,1,$1,0,0*
1,0,$1-0.005,0,0*
%
*
*
G04 PC Custom Aperture Macros*
*
*
*
*
*
*
G04 PC Aperture Table*
*
%ADD012C,0.00394*%
%ADD040C,0.01*%
%ADD048C,0.00079*%
*
*
*
*
G04 PC Circuitry*
G04 Layer Name SYNAPTICS_BASE_MODULE_D - circuitry*
%LPD*%
*
*
G04 PC Custom Flashes*
G04 Layer Name SYNAPTICS_BASE_MODULE_D - flashes*
%LPD*%
*
*
G04 PC Circuitry*
G04 Layer Name SYNAPTICS_BASE_MODULE_D - circuitry*
%LPD*%
*
G54D12*
G54D40*
G01X1190685Y1309189D02*
X1198685D01*
Y1317189*
X1190685*
Y1309189*
X1194685Y1313189D02*
Y1317189D01*
X1196591Y1309189D02*
X1204591D01*
Y1317189*
X1196591*
Y1309189*
X1200591Y1313189D02*
Y1317189D01*
X1194685Y1314173D02*
G75*
G03Y1312205I0J-984D01*
G01X1200591*
G03Y1314173I-0J984*
G01X1194685*
X1264110Y1309189D02*
X1272110D01*
Y1317189*
X1264110*
Y1309189*
X1268110Y1313189D02*
Y1317189D01*
X1270016Y1309189D02*
X1278016D01*
Y1317189*
X1270016*
Y1309189*
X1274016Y1313189D02*
Y1317189D01*
X1268110Y1314173D02*
G03Y1312205I0J-984D01*
G01X1274016*
G03Y1314173I-0J984*
G01X1268110*
X1186157Y1182417D02*
X1194157D01*
Y1190417*
X1186157*
Y1182417*
X1190157Y1186417D02*
Y1190417D01*
X1192063Y1182417D02*
X1200063D01*
Y1190417*
X1192063*
Y1182417*
X1196063Y1186417D02*
Y1190417D01*
X1190157Y1187402D02*
G03Y1185433I0J-985D01*
G01X1196063*
G03Y1187402I-0J984*
G01X1190157*
X1269622Y1182417D02*
X1277622D01*
Y1190417*
X1269622*
Y1182417*
X1273622Y1186417D02*
Y1190417D01*
X1275528Y1182417D02*
X1283528D01*
Y1190417*
X1275528*
Y1182417*
X1279528Y1186417D02*
Y1190417D01*
X1273622Y1187402D02*
G03Y1185433I0J-985D01*
G01X1279528*
G03Y1187402I-0J984*
G01X1273622*
X1177102Y1306890D02*
X1185102D01*
X1181102Y1302890D02*
Y1310890D01*
X1177102Y1246654D02*
X1185102D01*
X1181102Y1242654D02*
Y1250654D01*
X1177102Y1239961D02*
X1185102D01*
X1181102Y1235961D02*
Y1243961D01*
X1177102Y1233268D02*
X1185102D01*
X1181102Y1229268D02*
Y1237268D01*
X1177102Y1226575D02*
X1185102D01*
X1181102Y1222575D02*
Y1230575D01*
X1177102Y1219882D02*
X1185102D01*
X1181102Y1215882D02*
Y1223882D01*
X1177102Y1213189D02*
X1185102D01*
X1181102Y1209189D02*
Y1217189D01*
X1177102Y1206496D02*
X1185102D01*
X1181102Y1202496D02*
Y1210496D01*
X1177102Y1199803D02*
X1185102D01*
X1181102Y1195803D02*
Y1203803D01*
X1177102Y1193110D02*
X1185102D01*
X1181102Y1189110D02*
Y1197110D01*
X1192260Y1180906D02*
X1200260D01*
X1196260Y1176906D02*
Y1184906D01*
X1177102Y1300197D02*
X1185102D01*
X1181102Y1296197D02*
Y1304197D01*
X1199346Y1180906D02*
X1207346D01*
X1203346Y1176906D02*
Y1184906D01*
X1206433Y1180906D02*
X1214433D01*
X1210433Y1176906D02*
Y1184906D01*
X1213520Y1180906D02*
X1221520D01*
X1217520Y1176906D02*
Y1184906D01*
X1220606Y1180906D02*
X1228606D01*
X1224606Y1176906D02*
Y1184906D01*
X1227693Y1180906D02*
X1235693D01*
X1231693Y1176906D02*
Y1184906D01*
X1234780Y1180906D02*
X1242780D01*
X1238780Y1176906D02*
Y1184906D01*
X1241866Y1180906D02*
X1249866D01*
X1245866Y1176906D02*
Y1184906D01*
X1248953Y1180906D02*
X1256953D01*
X1252953Y1176906D02*
Y1184906D01*
X1256039Y1180906D02*
X1264039D01*
X1260039Y1176906D02*
Y1184906D01*
X1263126Y1180906D02*
X1271126D01*
X1267126Y1176906D02*
Y1184906D01*
X1177102Y1293504D02*
X1185102D01*
X1181102Y1289504D02*
Y1297504D01*
X1270213Y1180906D02*
X1278213D01*
X1274213Y1176906D02*
Y1184906D01*
X1285370Y1193110D02*
X1293370D01*
X1289370Y1189110D02*
Y1197110D01*
X1285370Y1199803D02*
X1293370D01*
X1289370Y1195803D02*
Y1203803D01*
X1285370Y1206496D02*
X1293370D01*
X1289370Y1202496D02*
Y1210496D01*
X1285370Y1213189D02*
X1293370D01*
X1289370Y1209189D02*
Y1217189D01*
X1285370Y1219882D02*
X1293370D01*
X1289370Y1215882D02*
Y1223882D01*
X1285370Y1226575D02*
X1293370D01*
X1289370Y1222575D02*
Y1230575D01*
X1285370Y1233268D02*
X1293370D01*
X1289370Y1229268D02*
Y1237268D01*
X1285370Y1239961D02*
X1293370D01*
X1289370Y1235961D02*
Y1243961D01*
X1285370Y1246654D02*
X1293370D01*
X1289370Y1242654D02*
Y1250654D01*
X1177102Y1286811D02*
X1185102D01*
X1181102Y1282811D02*
Y1290811D01*
X1285370Y1253346D02*
X1293370D01*
X1289370Y1249346D02*
Y1257346D01*
X1285370Y1260039D02*
X1293370D01*
X1289370Y1256039D02*
Y1264039D01*
X1285370Y1266732D02*
X1293370D01*
X1289370Y1262732D02*
Y1270732D01*
X1285370Y1273425D02*
X1293370D01*
X1289370Y1269425D02*
Y1277425D01*
X1285370Y1280118D02*
X1293370D01*
X1289370Y1276118D02*
Y1284118D01*
X1285370Y1286811D02*
X1293370D01*
X1289370Y1282811D02*
Y1290811D01*
X1285370Y1293504D02*
X1293370D01*
X1289370Y1289504D02*
Y1297504D01*
X1285370Y1300197D02*
X1293370D01*
X1289370Y1296197D02*
Y1304197D01*
X1285370Y1306890D02*
X1293370D01*
X1289370Y1302890D02*
Y1310890D01*
X1270213Y1318898D02*
X1278213D01*
X1274213Y1314898D02*
Y1322898D01*
X1177102Y1280118D02*
X1185102D01*
X1181102Y1276118D02*
Y1284118D01*
X1263126Y1318898D02*
X1271126D01*
X1267126Y1314898D02*
Y1322898D01*
X1256039Y1318701D02*
X1264039D01*
X1260039Y1314701D02*
Y1322701D01*
X1248953Y1318701D02*
X1256953D01*
X1252953Y1314701D02*
Y1322701D01*
X1241866Y1318701D02*
X1249866D01*
X1245866Y1314701D02*
Y1322701D01*
X1234780Y1318701D02*
X1242780D01*
X1238780Y1314701D02*
Y1322701D01*
X1227693Y1318701D02*
X1235693D01*
X1231693Y1314701D02*
Y1322701D01*
X1220606Y1318701D02*
X1228606D01*
X1224606Y1314701D02*
Y1322701D01*
X1213520Y1318701D02*
X1221520D01*
X1217520Y1314701D02*
Y1322701D01*
X1206433Y1318701D02*
X1214433D01*
X1210433Y1314701D02*
Y1322701D01*
X1199346Y1318701D02*
X1207346D01*
X1203346Y1314701D02*
Y1322701D01*
X1177102Y1273425D02*
X1185102D01*
X1181102Y1269425D02*
Y1277425D01*
X1192260Y1318701D02*
X1200260D01*
X1196260Y1314701D02*
Y1322701D01*
X1177102Y1266732D02*
X1185102D01*
X1181102Y1262732D02*
Y1270732D01*
X1177102Y1260039D02*
X1185102D01*
X1181102Y1256039D02*
Y1264039D01*
X1177102Y1253346D02*
X1185102D01*
X1181102Y1249346D02*
Y1257346D01*
X1214898Y1192457D02*
X1222898Y1200457D01*
X1214898D02*
X1222898Y1192457D01*
X1214701Y1203480D02*
X1222701Y1211480D01*
X1214701D02*
X1222701Y1203480D01*
X1214898Y1186945D02*
X1222898Y1194945D01*
X1214898D02*
X1222898Y1186945D01*
X1214701Y1214504D02*
X1222701Y1222504D01*
X1214701D02*
X1222701Y1214504D01*
X1214701Y1197969D02*
X1222701Y1205969D01*
X1214701D02*
X1222701Y1197969D01*
X1205449Y1202693D02*
X1213449Y1210693D01*
X1205449D02*
X1213449Y1202693D01*
X1214701Y1208992D02*
X1222701Y1216992D01*
X1214701D02*
X1222701Y1208992D01*
X1205449Y1197181D02*
X1213449Y1205181D01*
X1205449D02*
X1213449Y1197181D01*
X1205449Y1208008D02*
X1213449Y1216008D01*
X1205449D02*
X1213449Y1208008D01*
X1209189Y1214701D02*
X1217189Y1222701D01*
X1209189D02*
X1217189Y1214701D01*
X1193638Y1197181D02*
X1201638Y1205181D01*
X1193638D02*
X1201638Y1197181D01*
X1193898Y1187142D02*
X1197898Y1191142D01*
X1193898Y1195142*
X1189898Y1191142*
X1193898Y1187142*
Y1191142D02*
Y1195142D01*
X1186811Y1187142D02*
X1190811Y1191142D01*
X1186811Y1195142*
X1182811Y1191142*
X1186811Y1187142*
Y1191142D02*
Y1195142D01*
X1191339Y1191472D02*
X1195339Y1195472D01*
X1191339Y1199472*
X1187339Y1195472*
X1191339Y1191472*
Y1195472D02*
Y1199472D01*
X1198425Y1191472D02*
X1202425Y1195472D01*
X1198425Y1199472*
X1194425Y1195472*
X1198425Y1191472*
Y1195472D02*
Y1199472D01*
X1202756Y1186945D02*
X1206756Y1190945D01*
X1202756Y1194945*
X1198756Y1190945*
X1202756Y1186945*
Y1190945D02*
Y1194945D01*
X1206299Y1182220D02*
X1210299Y1186220D01*
X1206299Y1190220*
X1202299Y1186220*
X1206299Y1182220*
Y1186220D02*
Y1190220D01*
X1212992Y1182220D02*
X1216992Y1186220D01*
X1212992Y1190220*
X1208992Y1186220*
X1212992Y1182220*
Y1186220D02*
Y1190220D01*
X1210630Y1187535D02*
X1214630Y1191535D01*
X1210630Y1195535*
X1206630Y1191535*
X1210630Y1187535*
Y1191535D02*
Y1195535D01*
X1211811Y1192063D02*
X1215811Y1196063D01*
X1211811Y1200063*
X1207811Y1196063*
X1211811Y1192063*
Y1196063D02*
Y1200063D01*
X1207283Y1191866D02*
X1211283Y1195866D01*
X1207283Y1199866*
X1203283Y1195866*
X1207283Y1191866*
Y1195866D02*
Y1199866D01*
X1205512Y1186945D02*
X1209512Y1190945D01*
X1205512Y1194945*
X1201512Y1190945*
X1205512Y1186945*
Y1190945D02*
Y1194945D01*
X1220276Y1182220D02*
X1224276Y1186220D01*
X1220276Y1190220*
X1216276Y1186220*
X1220276Y1182220*
Y1186220D02*
Y1190220D01*
X1214173Y1189504D02*
X1218173Y1193504D01*
X1214173Y1197504*
X1210173Y1193504*
X1214173Y1189504*
Y1193504D02*
Y1197504D01*
X1233465Y1182220D02*
X1237465Y1186220D01*
X1233465Y1190220*
X1229465Y1186220*
X1233465Y1182220*
Y1186220D02*
Y1190220D01*
X1228346Y1182417D02*
X1232346Y1186417D01*
X1228346Y1190417*
X1224346Y1186417*
X1228346Y1182417*
Y1186417D02*
Y1190417D01*
X1224409Y1188323D02*
X1228409Y1192323D01*
X1224409Y1196323*
X1220409Y1192323*
X1224409Y1188323*
Y1192323D02*
Y1196323D01*
X1228543Y1190094D02*
X1232543Y1194094D01*
X1228543Y1198094*
X1224543Y1194094*
X1228543Y1190094*
Y1194094D02*
Y1198094D01*
X1230906Y1188323D02*
X1234906Y1192323D01*
X1230906Y1196323*
X1226906Y1192323*
X1230906Y1188323*
Y1192323D02*
Y1196323D01*
X1233465Y1186945D02*
X1237465Y1190945D01*
X1233465Y1194945*
X1229465Y1190945*
X1233465Y1186945*
Y1190945D02*
Y1194945D01*
X1236220Y1186157D02*
X1240220Y1190157D01*
X1236220Y1194157*
X1232220Y1190157*
X1236220Y1186157*
Y1190157D02*
Y1194157D01*
X1238976Y1186551D02*
X1242976Y1190551D01*
X1238976Y1194551*
X1234976Y1190551*
X1238976Y1186551*
Y1190551D02*
Y1194551D01*
X1248622Y1182417D02*
X1252622Y1186417D01*
X1248622Y1190417*
X1244622Y1186417*
X1248622Y1182417*
Y1186417D02*
Y1190417D01*
X1251575Y1188520D02*
X1255575Y1192520D01*
X1251575Y1196520*
X1247575Y1192520*
X1251575Y1188520*
Y1192520D02*
Y1196520D01*
X1248031Y1191866D02*
X1252031Y1195866D01*
X1248031Y1199866*
X1244031Y1195866*
X1248031Y1191866*
Y1195866D02*
Y1199866D01*
X1244685Y1189898D02*
X1248685Y1193898D01*
X1244685Y1197898*
X1240685Y1193898*
X1244685Y1189898*
Y1193898D02*
Y1197898D01*
X1263386Y1186945D02*
X1267386Y1190945D01*
X1263386Y1194945*
X1259386Y1190945*
X1263386Y1186945*
Y1190945D02*
Y1194945D01*
X1255906Y1182220D02*
X1259906Y1186220D01*
X1255906Y1190220*
X1251906Y1186220*
X1255906Y1182220*
Y1186220D02*
Y1190220D01*
X1255315Y1186354D02*
X1259315Y1190354D01*
X1255315Y1194354*
X1251315Y1190354*
X1255315Y1186354*
Y1190354D02*
Y1194354D01*
X1260039Y1186945D02*
X1264039Y1190945D01*
X1260039Y1194945*
X1256039Y1190945*
X1260039Y1186945*
Y1190945D02*
Y1194945D01*
X1273031Y1186354D02*
X1277031Y1190354D01*
X1273031Y1194354*
X1269031Y1190354*
X1273031Y1186354*
Y1190354D02*
Y1194354D01*
X1265551Y1192063D02*
X1269551Y1196063D01*
X1265551Y1200063*
X1261551Y1196063*
X1265551Y1192063*
Y1196063D02*
Y1200063D01*
X1264173Y1182417D02*
X1268173Y1186417D01*
X1264173Y1190417*
X1260173Y1186417*
X1264173Y1182417*
Y1186417D02*
Y1190417D01*
X1267126Y1186945D02*
X1271126Y1190945D01*
X1267126Y1194945*
X1263126Y1190945*
X1267126Y1186945*
Y1190945D02*
Y1194945D01*
X1269882Y1189898D02*
X1273882Y1193898D01*
X1269882Y1197898*
X1265882Y1193898*
X1269882Y1189898*
Y1193898D02*
Y1197898D01*
X1279134Y1187142D02*
X1283134Y1191142D01*
X1279134Y1195142*
X1275134Y1191142*
X1279134Y1187142*
Y1191142D02*
Y1195142D01*
X1284055Y1185173D02*
X1288055Y1189173D01*
X1284055Y1193173*
X1280055Y1189173*
X1284055Y1185173*
Y1189173D02*
Y1193173D01*
X1191339Y1198953D02*
X1195339Y1202953D01*
X1191339Y1206953*
X1187339Y1202953*
X1191339Y1198953*
Y1202953D02*
Y1206953D01*
X1186811Y1199150D02*
X1190811Y1203150D01*
X1186811Y1207150*
X1182811Y1203150*
X1186811Y1199150*
Y1203150D02*
Y1207150D01*
X1186614Y1193047D02*
X1190614Y1197047D01*
X1186614Y1201047*
X1182614Y1197047*
X1186614Y1193047*
Y1197047D02*
Y1201047D01*
X1193504Y1195803D02*
X1197504Y1199803D01*
X1193504Y1203803*
X1189504Y1199803*
X1193504Y1195803*
Y1199803D02*
Y1203803D01*
X1224409Y1200528D02*
X1228409Y1204528D01*
X1224409Y1208528*
X1220409Y1204528*
X1224409Y1200528*
Y1204528D02*
Y1208528D01*
Y1195213D02*
X1228409Y1199213D01*
X1224409Y1203213*
X1220409Y1199213*
X1224409Y1195213*
Y1199213D02*
Y1203213D01*
X1253937Y1197575D02*
X1257937Y1201575D01*
X1253937Y1205575*
X1249937Y1201575*
X1253937Y1197575*
Y1201575D02*
Y1205575D01*
X1247441Y1197378D02*
X1251441Y1201378D01*
X1247441Y1205378*
X1243441Y1201378*
X1247441Y1197378*
Y1201378D02*
Y1205378D01*
X1262598Y1197378D02*
X1266598Y1201378D01*
X1262598Y1205378*
X1258598Y1201378*
X1262598Y1197378*
Y1201378D02*
Y1205378D01*
X1254724Y1192260D02*
X1258724Y1196260D01*
X1254724Y1200260*
X1250724Y1196260*
X1254724Y1192260*
Y1196260D02*
Y1200260D01*
X1269488Y1197575D02*
X1273488Y1201575D01*
X1269488Y1205575*
X1265488Y1201575*
X1269488Y1197575*
Y1201575D02*
Y1205575D01*
X1263976Y1199740D02*
X1267976Y1203740D01*
X1263976Y1207740*
X1259976Y1203740*
X1263976Y1199740*
Y1203740D02*
Y1207740D01*
X1266732Y1194819D02*
X1270732Y1198819D01*
X1266732Y1202819*
X1262732Y1198819*
X1266732Y1194819*
Y1198819D02*
Y1202819D01*
X1283858Y1192457D02*
X1287858Y1196457D01*
X1283858Y1200457*
X1279858Y1196457*
X1283858Y1192457*
Y1196457D02*
Y1200457D01*
X1277362Y1197575D02*
X1281362Y1201575D01*
X1277362Y1205575*
X1273362Y1201575*
X1277362Y1197575*
Y1201575D02*
Y1205575D01*
X1284252Y1199346D02*
X1288252Y1203346D01*
X1284252Y1207346*
X1280252Y1203346*
X1284252Y1199346*
Y1203346D02*
Y1207346D01*
X1186811Y1205843D02*
X1190811Y1209843D01*
X1186811Y1213843*
X1182811Y1209843*
X1186811Y1205843*
Y1209843D02*
Y1213843D01*
X1191142Y1209386D02*
X1195142Y1213386D01*
X1191142Y1217386*
X1187142Y1213386*
X1191142Y1209386*
Y1213386D02*
Y1217386D01*
X1192323Y1202496D02*
X1196323Y1206496D01*
X1192323Y1210496*
X1188323Y1206496*
X1192323Y1202496*
Y1206496D02*
Y1210496D01*
X1197244Y1202496D02*
X1201244Y1206496D01*
X1197244Y1210496*
X1193244Y1206496*
X1197244Y1202496*
Y1206496D02*
Y1210496D01*
X1200197Y1205449D02*
X1204197Y1209449D01*
X1200197Y1213449*
X1196197Y1209449*
X1200197Y1205449*
Y1209449D02*
Y1213449D01*
X1197047Y1210173D02*
X1201047Y1214173D01*
X1197047Y1218173*
X1193047Y1214173*
X1197047Y1210173*
Y1214173D02*
Y1218173D01*
X1222638Y1211945D02*
X1226638Y1215945D01*
X1222638Y1219945*
X1218638Y1215945*
X1222638Y1211945*
Y1215945D02*
Y1219945D01*
X1214173Y1209189D02*
X1218173Y1213189D01*
X1214173Y1217189*
X1210173Y1213189*
X1214173Y1209189*
Y1213189D02*
Y1217189D01*
X1241535Y1208598D02*
X1245535Y1212598D01*
X1241535Y1216598*
X1237535Y1212598*
X1241535Y1208598*
Y1212598D02*
Y1216598D01*
X1242126Y1211945D02*
X1246126Y1215945D01*
X1242126Y1219945*
X1238126Y1215945*
X1242126Y1211945*
Y1215945D02*
Y1219945D01*
X1239961Y1211945D02*
X1243961Y1215945D01*
X1239961Y1219945*
X1235961Y1215945*
X1239961Y1211945*
Y1215945D02*
Y1219945D01*
X1247835Y1202496D02*
X1251835Y1206496D01*
X1247835Y1210496*
X1243835Y1206496*
X1247835Y1202496*
Y1206496D02*
Y1210496D01*
X1247047Y1211157D02*
X1251047Y1215157D01*
X1247047Y1219157*
X1243047Y1215157*
X1247047Y1211157*
Y1215157D02*
Y1219157D01*
X1244882Y1209583D02*
X1248882Y1213583D01*
X1244882Y1217583*
X1240882Y1213583*
X1244882Y1209583*
Y1213583D02*
Y1217583D01*
X1254921Y1208598D02*
X1258921Y1212598D01*
X1254921Y1216598*
X1250921Y1212598*
X1254921Y1208598*
Y1212598D02*
Y1216598D01*
X1262795Y1207614D02*
X1266795Y1211614D01*
X1262795Y1215614*
X1258795Y1211614*
X1262795Y1207614*
Y1211614D02*
Y1215614D01*
X1262008Y1210370D02*
X1266008Y1214370D01*
X1262008Y1218370*
X1258008Y1214370*
X1262008Y1210370*
Y1214370D02*
Y1218370D01*
X1270079Y1208795D02*
X1274079Y1212795D01*
X1270079Y1216795*
X1266079Y1212795*
X1270079Y1208795*
Y1212795D02*
Y1216795D01*
X1277756Y1208795D02*
X1281756Y1212795D01*
X1277756Y1216795*
X1273756Y1212795*
X1277756Y1208795*
Y1212795D02*
Y1216795D01*
X1275394Y1211551D02*
X1279394Y1215551D01*
X1275394Y1219551*
X1271394Y1215551*
X1275394Y1211551*
Y1215551D02*
Y1219551D01*
X1284252Y1205449D02*
X1288252Y1209449D01*
X1284252Y1213449*
X1280252Y1209449*
X1284252Y1205449*
Y1209449D02*
Y1213449D01*
X1186811Y1218835D02*
X1190811Y1222835D01*
X1186811Y1226835*
X1182811Y1222835*
X1186811Y1218835*
Y1222835D02*
Y1226835D01*
Y1212535D02*
X1190811Y1216535D01*
X1186811Y1220535*
X1182811Y1216535*
X1186811Y1212535*
Y1216535D02*
Y1220535D01*
X1190157Y1215882D02*
X1194157Y1219882D01*
X1190157Y1223882*
X1186157Y1219882*
X1190157Y1215882*
Y1219882D02*
Y1223882D01*
X1200000Y1214307D02*
X1204000Y1218307D01*
X1200000Y1222307*
X1196000Y1218307*
X1200000Y1214307*
Y1218307D02*
Y1222307D01*
X1197047Y1218441D02*
X1201047Y1222441D01*
X1197047Y1226441*
X1193047Y1222441*
X1197047Y1218441*
Y1222441D02*
Y1226441D01*
X1207874Y1213323D02*
X1211874Y1217323D01*
X1207874Y1221323*
X1203874Y1217323*
X1207874Y1213323*
Y1217323D02*
Y1221323D01*
X1208071Y1216669D02*
X1212071Y1220669D01*
X1208071Y1224669*
X1204071Y1220669*
X1208071Y1216669*
Y1220669D02*
Y1224669D01*
X1216732Y1219425D02*
X1220732Y1223425D01*
X1216732Y1227425*
X1212732Y1223425*
X1216732Y1219425*
Y1223425D02*
Y1227425D01*
X1250394Y1216276D02*
X1254394Y1220276D01*
X1250394Y1224276*
X1246394Y1220276*
X1250394Y1216276*
Y1220276D02*
Y1224276D01*
X1248228Y1215094D02*
X1252228Y1219094D01*
X1248228Y1223094*
X1244228Y1219094*
X1248228Y1215094*
Y1219094D02*
Y1223094D01*
X1252756Y1217260D02*
X1256756Y1221260D01*
X1252756Y1225260*
X1248756Y1221260*
X1252756Y1217260*
Y1221260D02*
Y1225260D01*
X1255906Y1216276D02*
X1259906Y1220276D01*
X1255906Y1224276*
X1251906Y1220276*
X1255906Y1216276*
Y1220276D02*
Y1224276D01*
X1256102Y1212732D02*
X1260102Y1216732D01*
X1256102Y1220732*
X1252102Y1216732*
X1256102Y1212732*
Y1216732D02*
Y1220732D01*
X1263189Y1213717D02*
X1267189Y1217717D01*
X1263189Y1221717*
X1259189Y1217717*
X1263189Y1213717*
Y1217717D02*
Y1221717D01*
X1263976Y1216472D02*
X1267976Y1220472D01*
X1263976Y1224472*
X1259976Y1220472*
X1263976Y1216472*
Y1220472D02*
Y1224472D01*
X1267126Y1220409D02*
X1271126Y1224409D01*
X1267126Y1228409*
X1263126Y1224409*
X1267126Y1220409*
Y1224409D02*
Y1228409D01*
X1273622Y1213717D02*
X1277622Y1217717D01*
X1273622Y1221717*
X1269622Y1217717*
X1273622Y1213717*
Y1217717D02*
Y1221717D01*
X1268898Y1215488D02*
X1272898Y1219488D01*
X1268898Y1223488*
X1264898Y1219488*
X1268898Y1215488*
Y1219488D02*
Y1223488D01*
X1278543Y1212732D02*
X1282543Y1216732D01*
X1278543Y1220732*
X1274543Y1216732*
X1278543Y1212732*
Y1216732D02*
Y1220732D01*
X1281299Y1217260D02*
X1285299Y1221260D01*
X1281299Y1225260*
X1277299Y1221260*
X1281299Y1217260*
Y1221260D02*
Y1225260D01*
X1275984Y1215685D02*
X1279984Y1219685D01*
X1275984Y1223685*
X1271984Y1219685*
X1275984Y1215685*
Y1219685D02*
Y1223685D01*
X1275197Y1220409D02*
X1279197Y1224409D01*
X1275197Y1228409*
X1271197Y1224409*
X1275197Y1220409*
Y1224409D02*
Y1228409D01*
X1284252Y1212142D02*
X1288252Y1216142D01*
X1284252Y1220142*
X1280252Y1216142*
X1284252Y1212142*
Y1216142D02*
Y1220142D01*
X1284449Y1219622D02*
X1288449Y1223622D01*
X1284449Y1227622*
X1280449Y1223622*
X1284449Y1219622*
Y1223622D02*
Y1227622D01*
X1186220Y1226709D02*
X1190220Y1230709D01*
X1186220Y1234709*
X1182220Y1230709*
X1186220Y1226709*
Y1230709D02*
Y1234709D01*
X1191732Y1227693D02*
X1195732Y1231693D01*
X1191732Y1235693*
X1187732Y1231693*
X1191732Y1227693*
Y1231693D02*
Y1235693D01*
X1202559Y1226118D02*
X1206559Y1230118D01*
X1202559Y1234118*
X1198559Y1230118*
X1202559Y1226118*
Y1230118D02*
Y1234118D01*
X1206102Y1227693D02*
X1210102Y1231693D01*
X1206102Y1235693*
X1202102Y1231693*
X1206102Y1227693*
Y1231693D02*
Y1235693D01*
X1210039Y1228087D02*
X1214039Y1232087D01*
X1210039Y1236087*
X1206039Y1232087*
X1210039Y1228087*
Y1232087D02*
Y1236087D01*
X1223819Y1230055D02*
X1227819Y1234055D01*
X1223819Y1238055*
X1219819Y1234055*
X1223819Y1230055*
Y1234055D02*
Y1238055D01*
X1229724Y1225528D02*
X1233724Y1229528D01*
X1229724Y1233528*
X1225724Y1229528*
X1229724Y1225528*
Y1229528D02*
Y1233528D01*
X1233858Y1225724D02*
X1237858Y1229724D01*
X1233858Y1233724*
X1229858Y1229724*
X1233858Y1225724*
Y1229724D02*
Y1233724D01*
X1226378Y1227496D02*
X1230378Y1231496D01*
X1226378Y1235496*
X1222378Y1231496*
X1226378Y1227496*
Y1231496D02*
Y1235496D01*
X1231102Y1228283D02*
X1235102Y1232283D01*
X1231102Y1236283*
X1227102Y1232283*
X1231102Y1228283*
Y1232283D02*
Y1236283D01*
X1236614Y1231236D02*
X1240614Y1235236D01*
X1236614Y1239236*
X1232614Y1235236*
X1236614Y1231236*
Y1235236D02*
Y1239236D01*
X1240945Y1226118D02*
X1244945Y1230118D01*
X1240945Y1234118*
X1236945Y1230118*
X1240945Y1226118*
Y1230118D02*
Y1234118D01*
X1245079Y1232024D02*
X1249079Y1236024D01*
X1245079Y1240024*
X1241079Y1236024*
X1245079Y1232024*
Y1236024D02*
Y1240024D01*
X1249606Y1224346D02*
X1253606Y1228346D01*
X1249606Y1232346*
X1245606Y1228346*
X1249606Y1224346*
Y1228346D02*
Y1232346D01*
X1251772Y1225724D02*
X1255772Y1229724D01*
X1251772Y1233724*
X1247772Y1229724*
X1251772Y1225724*
Y1229724D02*
Y1233724D01*
X1260433Y1228874D02*
X1264433Y1232874D01*
X1260433Y1236874*
X1256433Y1232874*
X1260433Y1228874*
Y1232874D02*
Y1236874D01*
X1254528Y1225921D02*
X1258528Y1229921D01*
X1254528Y1233921*
X1250528Y1229921*
X1254528Y1225921*
Y1229921D02*
Y1233921D01*
X1257874Y1226315D02*
X1261874Y1230315D01*
X1257874Y1234315*
X1253874Y1230315*
X1257874Y1226315*
Y1230315D02*
Y1234315D01*
X1273031Y1229661D02*
X1277031Y1233661D01*
X1273031Y1237661*
X1269031Y1233661*
X1273031Y1229661*
Y1233661D02*
Y1237661D01*
X1279724Y1222378D02*
X1283724Y1226378D01*
X1279724Y1230378*
X1275724Y1226378*
X1279724Y1222378*
Y1226378D02*
Y1230378D01*
X1275000Y1228087D02*
X1279000Y1232087D01*
X1275000Y1236087*
X1271000Y1232087*
X1275000Y1228087*
Y1232087D02*
Y1236087D01*
X1284252Y1225528D02*
X1288252Y1229528D01*
X1284252Y1233528*
X1280252Y1229528*
X1284252Y1225528*
Y1229528D02*
Y1233528D01*
X1191339Y1233205D02*
X1195339Y1237205D01*
X1191339Y1241205*
X1187339Y1237205*
X1191339Y1233205*
Y1237205D02*
Y1241205D01*
X1186220Y1233205D02*
X1190220Y1237205D01*
X1186220Y1241205*
X1182220Y1237205*
X1186220Y1233205*
Y1237205D02*
Y1241205D01*
X1190748Y1239504D02*
X1194748Y1243504D01*
X1190748Y1247504*
X1186748Y1243504*
X1190748Y1239504*
Y1243504D02*
Y1247504D01*
X1186024Y1239701D02*
X1190024Y1243701D01*
X1186024Y1247701*
X1182024Y1243701*
X1186024Y1239701*
Y1243701D02*
Y1247701D01*
X1197441Y1233402D02*
X1201441Y1237402D01*
X1197441Y1241402*
X1193441Y1237402*
X1197441Y1233402*
Y1237402D02*
Y1241402D01*
X1200394Y1239898D02*
X1204394Y1243898D01*
X1200394Y1247898*
X1196394Y1243898*
X1200394Y1239898*
Y1243898D02*
Y1247898D01*
X1196260Y1239898D02*
X1200260Y1243898D01*
X1196260Y1247898*
X1192260Y1243898*
X1196260Y1239898*
Y1243898D02*
Y1247898D01*
X1203937Y1241669D02*
X1207937Y1245669D01*
X1203937Y1249669*
X1199937Y1245669*
X1203937Y1241669*
Y1245669D02*
Y1249669D01*
X1204134Y1235961D02*
X1208134Y1239961D01*
X1204134Y1243961*
X1200134Y1239961*
X1204134Y1235961*
Y1239961D02*
Y1243961D01*
X1209646Y1235567D02*
X1213646Y1239567D01*
X1209646Y1243567*
X1205646Y1239567*
X1209646Y1235567*
Y1239567D02*
Y1243567D01*
X1206890Y1238717D02*
X1210890Y1242717D01*
X1206890Y1246717*
X1202890Y1242717*
X1206890Y1238717*
Y1242717D02*
Y1246717D01*
X1217323Y1239701D02*
X1221323Y1243701D01*
X1217323Y1247701*
X1213323Y1243701*
X1217323Y1239701*
Y1243701D02*
Y1247701D01*
X1223819Y1240882D02*
X1227819Y1244882D01*
X1223819Y1248882*
X1219819Y1244882*
X1223819Y1240882*
Y1244882D02*
Y1248882D01*
X1214961Y1235567D02*
X1218961Y1239567D01*
X1214961Y1243567*
X1210961Y1239567*
X1214961Y1235567*
Y1239567D02*
Y1243567D01*
X1231693Y1232811D02*
X1235693Y1236811D01*
X1231693Y1240811*
X1227693Y1236811*
X1231693Y1232811*
Y1236811D02*
Y1240811D01*
X1229331Y1237929D02*
X1233331Y1241929D01*
X1229331Y1245929*
X1225331Y1241929*
X1229331Y1237929*
Y1241929D02*
Y1245929D01*
X1233071Y1239898D02*
X1237071Y1243898D01*
X1233071Y1247898*
X1229071Y1243898*
X1233071Y1239898*
Y1243898D02*
Y1247898D01*
X1226378Y1235961D02*
X1230378Y1239961D01*
X1226378Y1243961*
X1222378Y1239961*
X1226378Y1235961*
Y1239961D02*
Y1243961D01*
X1225984Y1239307D02*
X1229984Y1243307D01*
X1225984Y1247307*
X1221984Y1243307*
X1225984Y1239307*
Y1243307D02*
Y1247307D01*
X1236417Y1235961D02*
X1240417Y1239961D01*
X1236417Y1243961*
X1232417Y1239961*
X1236417Y1235961*
Y1239961D02*
Y1243961D01*
X1251378Y1232417D02*
X1255378Y1236417D01*
X1251378Y1240417*
X1247378Y1236417*
X1251378Y1232417*
Y1236417D02*
Y1240417D01*
X1249016Y1236157D02*
X1253016Y1240157D01*
X1249016Y1244157*
X1245016Y1240157*
X1249016Y1236157*
Y1240157D02*
Y1244157D01*
X1244882Y1238520D02*
X1248882Y1242520D01*
X1244882Y1246520*
X1240882Y1242520*
X1244882Y1238520*
Y1242520D02*
Y1246520D01*
X1253937Y1241079D02*
X1257937Y1245079D01*
X1253937Y1249079*
X1249937Y1245079*
X1253937Y1241079*
Y1245079D02*
Y1249079D01*
X1255512Y1234780D02*
X1259512Y1238780D01*
X1255512Y1242780*
X1251512Y1238780*
X1255512Y1234780*
Y1238780D02*
Y1242780D01*
X1262008Y1234583D02*
X1266008Y1238583D01*
X1262008Y1242583*
X1258008Y1238583*
X1262008Y1234583*
Y1238583D02*
Y1242583D01*
X1263583Y1236945D02*
X1267583Y1240945D01*
X1263583Y1244945*
X1259583Y1240945*
X1263583Y1236945*
Y1240945D02*
Y1244945D01*
X1271850Y1238913D02*
X1275850Y1242913D01*
X1271850Y1246913*
X1267850Y1242913*
X1271850Y1238913*
Y1242913D02*
Y1246913D01*
X1277362Y1239701D02*
X1281362Y1243701D01*
X1277362Y1247701*
X1273362Y1243701*
X1277362Y1239701*
Y1243701D02*
Y1247701D01*
X1276969Y1232614D02*
X1280969Y1236614D01*
X1276969Y1240614*
X1272969Y1236614*
X1276969Y1232614*
Y1236614D02*
Y1240614D01*
X1284252Y1232417D02*
X1288252Y1236417D01*
X1284252Y1240417*
X1280252Y1236417*
X1284252Y1232417*
Y1236417D02*
Y1240417D01*
X1284449Y1238323D02*
X1288449Y1242323D01*
X1284449Y1246323*
X1280449Y1242323*
X1284449Y1238323*
Y1242323D02*
Y1246323D01*
X1190551Y1246394D02*
X1194551Y1250394D01*
X1190551Y1254394*
X1186551Y1250394*
X1190551Y1246394*
Y1250394D02*
Y1254394D01*
X1186220Y1246197D02*
X1190220Y1250197D01*
X1186220Y1254197*
X1182220Y1250197*
X1186220Y1246197*
Y1250197D02*
Y1254197D01*
X1189567Y1251906D02*
X1193567Y1255906D01*
X1189567Y1259906*
X1185567Y1255906*
X1189567Y1251906*
Y1255906D02*
Y1259906D01*
X1186220Y1252102D02*
X1190220Y1256102D01*
X1186220Y1260102*
X1182220Y1256102*
X1186220Y1252102*
Y1256102D02*
Y1260102D01*
X1195472Y1246394D02*
X1199472Y1250394D01*
X1195472Y1254394*
X1191472Y1250394*
X1195472Y1246394*
Y1250394D02*
Y1254394D01*
X1199606Y1246000D02*
X1203606Y1250000D01*
X1199606Y1254000*
X1195606Y1250000*
X1199606Y1246000*
Y1250000D02*
Y1254000D01*
X1207087Y1246197D02*
X1211087Y1250197D01*
X1207087Y1254197*
X1203087Y1250197*
X1207087Y1246197*
Y1250197D02*
Y1254197D01*
X1209646Y1244228D02*
X1213646Y1248228D01*
X1209646Y1252228*
X1205646Y1248228*
X1209646Y1244228*
Y1248228D02*
Y1252228D01*
X1223425Y1247969D02*
X1227425Y1251969D01*
X1223425Y1255969*
X1219425Y1251969*
X1223425Y1247969*
Y1251969D02*
Y1255969D01*
Y1251118D02*
X1227425Y1255118D01*
X1223425Y1259118*
X1219425Y1255118*
X1223425Y1251118*
Y1255118D02*
Y1259118D01*
X1214764Y1244228D02*
X1218764Y1248228D01*
X1214764Y1252228*
X1210764Y1248228*
X1214764Y1244228*
Y1248228D02*
Y1252228D01*
X1229134Y1243638D02*
X1233134Y1247638D01*
X1229134Y1251638*
X1225134Y1247638*
X1229134Y1243638*
Y1247638D02*
Y1251638D01*
X1231890Y1248559D02*
X1235890Y1252559D01*
X1231890Y1256559*
X1227890Y1252559*
X1231890Y1248559*
Y1252559D02*
Y1256559D01*
X1227953Y1251709D02*
X1231953Y1255709D01*
X1227953Y1259709*
X1223953Y1255709*
X1227953Y1251709*
Y1255709D02*
Y1259709D01*
X1225787Y1246000D02*
X1229787Y1250000D01*
X1225787Y1254000*
X1221787Y1250000*
X1225787Y1246000*
Y1250000D02*
Y1254000D01*
X1225000Y1243244D02*
X1229000Y1247244D01*
X1225000Y1251244*
X1221000Y1247244*
X1225000Y1243244*
Y1247244D02*
Y1251244D01*
X1237008Y1243835D02*
X1241008Y1247835D01*
X1237008Y1251835*
X1233008Y1247835*
X1237008Y1243835*
Y1247835D02*
Y1251835D01*
X1246654Y1243244D02*
X1250654Y1247244D01*
X1246654Y1251244*
X1242654Y1247244*
X1246654Y1243244*
Y1247244D02*
Y1251244D01*
X1247047Y1248362D02*
X1251047Y1252362D01*
X1247047Y1256362*
X1243047Y1252362*
X1247047Y1248362*
Y1252362D02*
Y1256362D01*
X1253543Y1248559D02*
X1257543Y1252559D01*
X1253543Y1256559*
X1249543Y1252559*
X1253543Y1248559*
Y1252559D02*
Y1256559D01*
X1255709Y1244622D02*
X1259709Y1248622D01*
X1255709Y1252622*
X1251709Y1248622*
X1255709Y1244622*
Y1248622D02*
Y1252622D01*
X1257677Y1248756D02*
X1261677Y1252756D01*
X1257677Y1256756*
X1253677Y1252756*
X1257677Y1248756*
Y1252756D02*
Y1256756D01*
X1261024Y1248165D02*
X1265024Y1252165D01*
X1261024Y1256165*
X1257024Y1252165*
X1261024Y1248165*
Y1252165D02*
Y1256165D01*
Y1242654D02*
X1265024Y1246654D01*
X1261024Y1250654*
X1257024Y1246654*
X1261024Y1242654*
Y1246654D02*
Y1250654D01*
X1263780Y1243244D02*
X1267780Y1247244D01*
X1263780Y1251244*
X1259780Y1247244*
X1263780Y1243244*
Y1247244D02*
Y1251244D01*
X1264961Y1247969D02*
X1268961Y1251969D01*
X1264961Y1255969*
X1260961Y1251969*
X1264961Y1247969*
Y1251969D02*
Y1255969D01*
X1271457Y1242457D02*
X1275457Y1246457D01*
X1271457Y1250457*
X1267457Y1246457*
X1271457Y1242457*
Y1246457D02*
Y1250457D01*
X1280512Y1243244D02*
X1284512Y1247244D01*
X1280512Y1251244*
X1276512Y1247244*
X1280512Y1243244*
Y1247244D02*
Y1251244D01*
X1277362Y1246000D02*
X1281362Y1250000D01*
X1277362Y1254000*
X1273362Y1250000*
X1277362Y1246000*
Y1250000D02*
Y1254000D01*
Y1242457D02*
X1281362Y1246457D01*
X1277362Y1250457*
X1273362Y1246457*
X1277362Y1242457*
Y1246457D02*
Y1250457D01*
X1284252Y1251709D02*
X1288252Y1255709D01*
X1284252Y1259709*
X1280252Y1255709*
X1284252Y1251709*
Y1255709D02*
Y1259709D01*
X1186220Y1259386D02*
X1190220Y1263386D01*
X1186220Y1267386*
X1182220Y1263386*
X1186220Y1259386*
Y1263386D02*
Y1267386D01*
X1189567Y1259189D02*
X1193567Y1263189D01*
X1189567Y1267189*
X1185567Y1263189*
X1189567Y1259189*
Y1263189D02*
Y1267189D01*
X1190748Y1254465D02*
X1194748Y1258465D01*
X1190748Y1262465*
X1186748Y1258465*
X1190748Y1254465*
Y1258465D02*
Y1262465D01*
X1203937Y1256433D02*
X1207937Y1260433D01*
X1203937Y1264433*
X1199937Y1260433*
X1203937Y1256433*
Y1260433D02*
Y1264433D01*
X1231102Y1255646D02*
X1235102Y1259646D01*
X1231102Y1263646*
X1227102Y1259646*
X1231102Y1255646*
Y1259646D02*
Y1263646D01*
X1225394Y1256039D02*
X1229394Y1260039D01*
X1225394Y1264039*
X1221394Y1260039*
X1225394Y1256039*
Y1260039D02*
Y1264039D01*
X1231299Y1260764D02*
X1235299Y1264764D01*
X1231299Y1268764*
X1227299Y1264764*
X1231299Y1260764*
Y1264764D02*
Y1268764D01*
X1225000Y1260370D02*
X1229000Y1264370D01*
X1225000Y1268370*
X1221000Y1264370*
X1225000Y1260370*
Y1264370D02*
Y1268370D01*
X1236811Y1258205D02*
X1240811Y1262205D01*
X1236811Y1266205*
X1232811Y1262205*
X1236811Y1258205*
Y1262205D02*
Y1266205D01*
X1241142Y1256433D02*
X1245142Y1260433D01*
X1241142Y1264433*
X1237142Y1260433*
X1241142Y1256433*
Y1260433D02*
Y1264433D01*
X1236614Y1252299D02*
X1240614Y1256299D01*
X1236614Y1260299*
X1232614Y1256299*
X1236614Y1252299*
Y1256299D02*
Y1260299D01*
X1247047Y1258992D02*
X1251047Y1262992D01*
X1247047Y1266992*
X1243047Y1262992*
X1247047Y1258992*
Y1262992D02*
Y1266992D01*
X1256102Y1255646D02*
X1260102Y1259646D01*
X1256102Y1263646*
X1252102Y1259646*
X1256102Y1255646*
Y1259646D02*
Y1263646D01*
X1258268Y1258795D02*
X1262268Y1262795D01*
X1258268Y1266795*
X1254268Y1262795*
X1258268Y1258795*
Y1262795D02*
Y1266795D01*
X1254134Y1258795D02*
X1258134Y1262795D01*
X1254134Y1266795*
X1250134Y1262795*
X1254134Y1258795*
Y1262795D02*
Y1266795D01*
X1263780Y1252693D02*
X1267780Y1256693D01*
X1263780Y1260693*
X1259780Y1256693*
X1263780Y1252693*
Y1256693D02*
Y1260693D01*
X1263976Y1259780D02*
X1267976Y1263780D01*
X1263976Y1267780*
X1259976Y1263780*
X1263976Y1259780*
Y1263780D02*
Y1267780D01*
Y1254858D02*
X1267976Y1258858D01*
X1263976Y1262858*
X1259976Y1258858*
X1263976Y1254858*
Y1258858D02*
Y1262858D01*
X1280709Y1252496D02*
X1284709Y1256496D01*
X1280709Y1260496*
X1276709Y1256496*
X1280709Y1252496*
Y1256496D02*
Y1260496D01*
X1279724Y1261354D02*
X1283724Y1265354D01*
X1279724Y1269354*
X1275724Y1265354*
X1279724Y1261354*
Y1265354D02*
Y1269354D01*
X1186220Y1265291D02*
X1190220Y1269291D01*
X1186220Y1273291*
X1182220Y1269291*
X1186220Y1265291*
Y1269291D02*
Y1273291D01*
X1189370Y1269425D02*
X1193370Y1273425D01*
X1189370Y1277425*
X1185370Y1273425*
X1189370Y1269425*
Y1273425D02*
Y1277425D01*
X1192913Y1264701D02*
X1196913Y1268701D01*
X1192913Y1272701*
X1188913Y1268701*
X1192913Y1264701*
Y1268701D02*
Y1272701D01*
X1200984Y1263126D02*
X1204984Y1267126D01*
X1200984Y1271126*
X1196984Y1267126*
X1200984Y1263126*
Y1267126D02*
Y1271126D01*
X1195866Y1262929D02*
X1199866Y1266929D01*
X1195866Y1270929*
X1191866Y1266929*
X1195866Y1262929*
Y1266929D02*
Y1270929D01*
X1204528Y1263126D02*
X1208528Y1267126D01*
X1204528Y1271126*
X1200528Y1267126*
X1204528Y1263126*
Y1267126D02*
Y1271126D01*
X1210039Y1270606D02*
X1214039Y1274606D01*
X1210039Y1278606*
X1206039Y1274606*
X1210039Y1270606*
Y1274606D02*
Y1278606D01*
X1223425Y1263717D02*
X1227425Y1267717D01*
X1223425Y1271717*
X1219425Y1267717*
X1223425Y1263717*
Y1267717D02*
Y1271717D01*
X1221457Y1268244D02*
X1225457Y1272244D01*
X1221457Y1276244*
X1217457Y1272244*
X1221457Y1268244*
Y1272244D02*
Y1276244D01*
X1219488Y1270803D02*
X1223488Y1274803D01*
X1219488Y1278803*
X1215488Y1274803*
X1219488Y1270803*
Y1274803D02*
Y1278803D01*
X1216142Y1265685D02*
X1220142Y1269685D01*
X1216142Y1273685*
X1212142Y1269685*
X1216142Y1265685*
Y1269685D02*
Y1273685D01*
X1227165Y1263717D02*
X1231165Y1267717D01*
X1227165Y1271717*
X1223165Y1267717*
X1227165Y1263717*
Y1267717D02*
Y1271717D01*
X1237402Y1264701D02*
X1241402Y1268701D01*
X1237402Y1272701*
X1233402Y1268701*
X1237402Y1264701*
Y1268701D02*
Y1272701D01*
X1243110Y1265094D02*
X1247110Y1269094D01*
X1243110Y1273094*
X1239110Y1269094*
X1243110Y1265094*
Y1269094D02*
Y1273094D01*
X1240354Y1265094D02*
X1244354Y1269094D01*
X1240354Y1273094*
X1236354Y1269094*
X1240354Y1265094*
Y1269094D02*
Y1273094D01*
X1250787Y1264504D02*
X1254787Y1268504D01*
X1250787Y1272504*
X1246787Y1268504*
X1250787Y1264504*
Y1268504D02*
Y1272504D01*
X1261024Y1262929D02*
X1265024Y1266929D01*
X1261024Y1270929*
X1257024Y1266929*
X1261024Y1262929*
Y1266929D02*
Y1270929D01*
X1257087Y1264701D02*
X1261087Y1268701D01*
X1257087Y1272701*
X1253087Y1268701*
X1257087Y1264701*
Y1268701D02*
Y1272701D01*
X1261417Y1265488D02*
X1265417Y1269488D01*
X1261417Y1273488*
X1257417Y1269488*
X1261417Y1265488*
Y1269488D02*
Y1273488D01*
X1270472Y1263717D02*
X1274472Y1267717D01*
X1270472Y1271717*
X1266472Y1267717*
X1270472Y1263717*
Y1267717D02*
Y1271717D01*
X1271457Y1271197D02*
X1275457Y1275197D01*
X1271457Y1279197*
X1267457Y1275197*
X1271457Y1271197*
Y1275197D02*
Y1279197D01*
X1279724Y1270016D02*
X1283724Y1274016D01*
X1279724Y1278016*
X1275724Y1274016*
X1279724Y1270016*
Y1274016D02*
Y1278016D01*
X1275787Y1271000D02*
X1279787Y1275000D01*
X1275787Y1279000*
X1271787Y1275000*
X1275787Y1271000*
Y1275000D02*
Y1279000D01*
X1277362Y1267654D02*
X1281362Y1271654D01*
X1277362Y1275654*
X1273362Y1271654*
X1277362Y1267654*
Y1271654D02*
Y1275654D01*
X1284449Y1263913D02*
X1288449Y1267913D01*
X1284449Y1271913*
X1280449Y1267913*
X1284449Y1263913*
Y1267913D02*
Y1271913D01*
Y1267063D02*
X1288449Y1271063D01*
X1284449Y1275063*
X1280449Y1271063*
X1284449Y1267063*
Y1271063D02*
Y1275063D01*
X1186614Y1272378D02*
X1190614Y1276378D01*
X1186614Y1280378*
X1182614Y1276378*
X1186614Y1272378*
Y1276378D02*
Y1280378D01*
X1186811Y1278087D02*
X1190811Y1282087D01*
X1186811Y1286087*
X1182811Y1282087*
X1186811Y1278087*
Y1282087D02*
Y1286087D01*
X1202559Y1275528D02*
X1206559Y1279528D01*
X1202559Y1283528*
X1198559Y1279528*
X1202559Y1275528*
Y1279528D02*
Y1283528D01*
X1197835Y1278677D02*
X1201835Y1282677D01*
X1197835Y1286677*
X1193835Y1282677*
X1197835Y1278677*
Y1282677D02*
Y1286677D01*
X1203150Y1280055D02*
X1207150Y1284055D01*
X1203150Y1288055*
X1199150Y1284055*
X1203150Y1280055*
Y1284055D02*
Y1288055D01*
X1194685Y1281039D02*
X1198685Y1285039D01*
X1194685Y1289039*
X1190685Y1285039*
X1194685Y1281039*
Y1285039D02*
Y1289039D01*
X1198425Y1274543D02*
X1202425Y1278543D01*
X1198425Y1282543*
X1194425Y1278543*
X1198425Y1274543*
Y1278543D02*
Y1282543D01*
X1206299Y1275331D02*
X1210299Y1279331D01*
X1206299Y1283331*
X1202299Y1279331*
X1206299Y1275331*
Y1279331D02*
Y1283331D01*
Y1279268D02*
X1210299Y1283268D01*
X1206299Y1287268*
X1202299Y1283268*
X1206299Y1279268*
Y1283268D02*
Y1287268D01*
X1204134Y1272378D02*
X1208134Y1276378D01*
X1204134Y1280378*
X1200134Y1276378*
X1204134Y1272378*
Y1276378D02*
Y1280378D01*
X1215354Y1278874D02*
X1219354Y1282874D01*
X1215354Y1286874*
X1211354Y1282874*
X1215354Y1278874*
Y1282874D02*
Y1286874D01*
X1231890Y1281433D02*
X1235890Y1285433D01*
X1231890Y1289433*
X1227890Y1285433*
X1231890Y1281433*
Y1285433D02*
Y1289433D01*
X1232087Y1277890D02*
X1236087Y1281890D01*
X1232087Y1285890*
X1228087Y1281890*
X1232087Y1277890*
Y1281890D02*
Y1285890D01*
X1241142Y1278677D02*
X1245142Y1282677D01*
X1241142Y1286677*
X1237142Y1282677*
X1241142Y1278677*
Y1282677D02*
Y1286677D01*
X1235433Y1277299D02*
X1239433Y1281299D01*
X1235433Y1285299*
X1231433Y1281299*
X1235433Y1277299*
Y1281299D02*
Y1285299D01*
X1246063Y1273362D02*
X1250063Y1277362D01*
X1246063Y1281362*
X1242063Y1277362*
X1246063Y1273362*
Y1277362D02*
Y1281362D01*
X1250197Y1274543D02*
X1254197Y1278543D01*
X1250197Y1282543*
X1246197Y1278543*
X1250197Y1274543*
Y1278543D02*
Y1282543D01*
X1256102Y1272575D02*
X1260102Y1276575D01*
X1256102Y1280575*
X1252102Y1276575*
X1256102Y1272575*
Y1276575D02*
Y1280575D01*
X1257283Y1275528D02*
X1261283Y1279528D01*
X1257283Y1283528*
X1253283Y1279528*
X1257283Y1275528*
Y1279528D02*
Y1283528D01*
X1262992Y1279071D02*
X1266992Y1283071D01*
X1262992Y1287071*
X1258992Y1283071*
X1262992Y1279071*
Y1283071D02*
Y1287071D01*
X1271654Y1278677D02*
X1275654Y1282677D01*
X1271654Y1286677*
X1267654Y1282677*
X1271654Y1278677*
Y1282677D02*
Y1286677D01*
X1279528Y1274740D02*
X1283528Y1278740D01*
X1279528Y1282740*
X1275528Y1278740*
X1279528Y1274740*
Y1278740D02*
Y1282740D01*
X1283858Y1273165D02*
X1287858Y1277165D01*
X1283858Y1281165*
X1279858Y1277165*
X1283858Y1273165*
Y1277165D02*
Y1281165D01*
X1284055Y1279465D02*
X1288055Y1283465D01*
X1284055Y1287465*
X1280055Y1283465*
X1284055Y1279465*
Y1283465D02*
Y1287465D01*
X1191732Y1285370D02*
X1195732Y1289370D01*
X1191732Y1293370*
X1187732Y1289370*
X1191732Y1285370*
Y1289370D02*
Y1293370D01*
Y1290094D02*
X1195732Y1294094D01*
X1191732Y1298094*
X1187732Y1294094*
X1191732Y1290094*
Y1294094D02*
Y1298094D01*
X1186614Y1287732D02*
X1190614Y1291732D01*
X1186614Y1295732*
X1182614Y1291732*
X1186614Y1287732*
Y1291732D02*
Y1295732D01*
X1195866Y1287142D02*
X1199866Y1291142D01*
X1195866Y1295142*
X1191866Y1291142*
X1195866Y1287142*
Y1291142D02*
Y1295142D01*
X1203937Y1289701D02*
X1207937Y1293701D01*
X1203937Y1297701*
X1199937Y1293701*
X1203937Y1289701*
Y1293701D02*
Y1297701D01*
X1199803Y1284189D02*
X1203803Y1288189D01*
X1199803Y1292189*
X1195803Y1288189*
X1199803Y1284189*
Y1288189D02*
Y1292189D01*
Y1290094D02*
X1203803Y1294094D01*
X1199803Y1298094*
X1195803Y1294094*
X1199803Y1290094*
Y1294094D02*
Y1298094D01*
X1206299Y1283205D02*
X1210299Y1287205D01*
X1206299Y1291205*
X1202299Y1287205*
X1206299Y1283205*
Y1287205D02*
Y1291205D01*
X1215551Y1283008D02*
X1219551Y1287008D01*
X1215551Y1291008*
X1211551Y1287008*
X1215551Y1283008*
Y1287008D02*
Y1291008D01*
X1215354Y1288520D02*
X1219354Y1292520D01*
X1215354Y1296520*
X1211354Y1292520*
X1215354Y1288520*
Y1292520D02*
Y1296520D01*
X1232283Y1286748D02*
X1236283Y1290748D01*
X1232283Y1294748*
X1228283Y1290748*
X1232283Y1286748*
Y1290748D02*
Y1294748D01*
Y1289898D02*
X1236283Y1293898D01*
X1232283Y1297898*
X1228283Y1293898*
X1232283Y1289898*
Y1293898D02*
Y1297898D01*
X1235236Y1282811D02*
X1239236Y1286811D01*
X1235236Y1290811*
X1231236Y1286811*
X1235236Y1282811*
Y1286811D02*
Y1290811D01*
X1234843Y1290488D02*
X1238843Y1294488D01*
X1234843Y1298488*
X1230843Y1294488*
X1234843Y1290488*
Y1294488D02*
Y1298488D01*
X1252362Y1291079D02*
X1256362Y1295079D01*
X1252362Y1299079*
X1248362Y1295079*
X1252362Y1291079*
Y1295079D02*
Y1299079D01*
X1258071Y1285370D02*
X1262071Y1289370D01*
X1258071Y1293370*
X1254071Y1289370*
X1258071Y1285370*
Y1289370D02*
Y1293370D01*
X1254134Y1288717D02*
X1258134Y1292717D01*
X1254134Y1296717*
X1250134Y1292717*
X1254134Y1288717*
Y1292717D02*
Y1296717D01*
X1270276Y1286551D02*
X1274276Y1290551D01*
X1270276Y1294551*
X1266276Y1290551*
X1270276Y1286551*
Y1290551D02*
Y1294551D01*
X1269882Y1289701D02*
X1273882Y1293701D01*
X1269882Y1297701*
X1265882Y1293701*
X1269882Y1289701*
Y1293701D02*
Y1297701D01*
X1266535Y1282220D02*
X1270535Y1286220D01*
X1266535Y1290220*
X1262535Y1286220*
X1266535Y1282220*
Y1286220D02*
Y1290220D01*
X1279528Y1282614D02*
X1283528Y1286614D01*
X1279528Y1290614*
X1275528Y1286614*
X1279528Y1282614*
Y1286614D02*
Y1290614D01*
X1281693Y1287732D02*
X1285693Y1291732D01*
X1281693Y1295732*
X1277693Y1291732*
X1281693Y1287732*
Y1291732D02*
Y1295732D01*
X1275591Y1290291D02*
X1279591Y1294291D01*
X1275591Y1298291*
X1271591Y1294291*
X1275591Y1290291*
Y1294291D02*
Y1298291D01*
X1284252Y1291276D02*
X1288252Y1295276D01*
X1284252Y1299276*
X1280252Y1295276*
X1284252Y1291276*
Y1295276D02*
Y1299276D01*
X1191535Y1296787D02*
X1195535Y1300787D01*
X1191535Y1304787*
X1187535Y1300787*
X1191535Y1296787*
Y1300787D02*
Y1304787D01*
X1186614Y1294031D02*
X1190614Y1298031D01*
X1186614Y1302031*
X1182614Y1298031*
X1186614Y1294031*
Y1298031D02*
Y1302031D01*
Y1301709D02*
X1190614Y1305709D01*
X1186614Y1309709*
X1182614Y1305709*
X1186614Y1301709*
Y1305709D02*
Y1309709D01*
X1195669Y1300528D02*
X1199669Y1304528D01*
X1195669Y1308528*
X1191669Y1304528*
X1195669Y1300528*
Y1304528D02*
Y1308528D01*
Y1293638D02*
X1199669Y1297638D01*
X1195669Y1301638*
X1191669Y1297638*
X1195669Y1293638*
Y1297638D02*
Y1301638D01*
X1199803Y1296984D02*
X1203803Y1300984D01*
X1199803Y1304984*
X1195803Y1300984*
X1199803Y1296984*
Y1300984D02*
Y1304984D01*
X1206299Y1294622D02*
X1210299Y1298622D01*
X1206299Y1302622*
X1202299Y1298622*
X1206299Y1294622*
Y1298622D02*
Y1302622D01*
Y1298559D02*
X1210299Y1302559D01*
X1206299Y1306559*
X1202299Y1302559*
X1206299Y1298559*
Y1302559D02*
Y1306559D01*
X1221063Y1301512D02*
X1225063Y1305512D01*
X1221063Y1309512*
X1217063Y1305512*
X1221063Y1301512*
Y1305512D02*
Y1309512D01*
X1222638Y1296197D02*
X1226638Y1300197D01*
X1222638Y1304197*
X1218638Y1300197*
X1222638Y1296197*
Y1300197D02*
Y1304197D01*
X1215551Y1300134D02*
X1219551Y1304134D01*
X1215551Y1308134*
X1211551Y1304134*
X1215551Y1300134*
Y1304134D02*
Y1308134D01*
X1215354Y1294031D02*
X1219354Y1298031D01*
X1215354Y1302031*
X1211354Y1298031*
X1215354Y1294031*
Y1298031D02*
Y1302031D01*
X1218504Y1299543D02*
X1222504Y1303543D01*
X1218504Y1307543*
X1214504Y1303543*
X1218504Y1299543*
Y1303543D02*
Y1307543D01*
X1222638Y1292850D02*
X1226638Y1296850D01*
X1222638Y1300850*
X1218638Y1296850*
X1222638Y1292850*
Y1296850D02*
Y1300850D01*
X1226378Y1300921D02*
X1230378Y1304921D01*
X1226378Y1308921*
X1222378Y1304921*
X1226378Y1300921*
Y1304921D02*
Y1308921D01*
X1228543Y1300921D02*
X1232543Y1304921D01*
X1228543Y1308921*
X1224543Y1304921*
X1228543Y1300921*
Y1304921D02*
Y1308921D01*
X1224213Y1300921D02*
X1228213Y1304921D01*
X1224213Y1308921*
X1220213Y1304921*
X1224213Y1300921*
Y1304921D02*
Y1308921D01*
X1232283Y1293835D02*
X1236283Y1297835D01*
X1232283Y1301835*
X1228283Y1297835*
X1232283Y1293835*
Y1297835D02*
Y1301835D01*
Y1297772D02*
X1236283Y1301772D01*
X1232283Y1305772*
X1228283Y1301772*
X1232283Y1297772*
Y1301772D02*
Y1305772D01*
X1250984Y1294819D02*
X1254984Y1298819D01*
X1250984Y1302819*
X1246984Y1298819*
X1250984Y1294819*
Y1298819D02*
Y1302819D01*
X1253937Y1297181D02*
X1257937Y1301181D01*
X1253937Y1305181*
X1249937Y1301181*
X1253937Y1297181*
Y1301181D02*
Y1305181D01*
X1248622Y1296591D02*
X1252622Y1300591D01*
X1248622Y1304591*
X1244622Y1300591*
X1248622Y1296591*
Y1300591D02*
Y1304591D01*
X1257677Y1292457D02*
X1261677Y1296457D01*
X1257677Y1300457*
X1253677Y1296457*
X1257677Y1292457*
Y1296457D02*
Y1300457D01*
X1261417Y1297575D02*
X1265417Y1301575D01*
X1261417Y1305575*
X1257417Y1301575*
X1261417Y1297575*
Y1301575D02*
Y1305575D01*
X1262205Y1292850D02*
X1266205Y1296850D01*
X1262205Y1300850*
X1258205Y1296850*
X1262205Y1292850*
Y1296850D02*
Y1300850D01*
X1272047Y1293244D02*
X1276047Y1297244D01*
X1272047Y1301244*
X1268047Y1297244*
X1272047Y1293244*
Y1297244D02*
Y1301244D01*
X1272835Y1299150D02*
X1276835Y1303150D01*
X1272835Y1307150*
X1268835Y1303150*
X1272835Y1299150*
Y1303150D02*
Y1307150D01*
X1282283Y1295606D02*
X1286283Y1299606D01*
X1282283Y1303606*
X1278283Y1299606*
X1282283Y1295606*
Y1299606D02*
Y1303606D01*
X1278740Y1293244D02*
X1282740Y1297244D01*
X1278740Y1301244*
X1274740Y1297244*
X1278740Y1293244*
Y1297244D02*
Y1301244D01*
X1279724Y1298756D02*
X1283724Y1302756D01*
X1279724Y1306756*
X1275724Y1302756*
X1279724Y1298756*
Y1302756D02*
Y1306756D01*
X1284449Y1300921D02*
X1288449Y1304921D01*
X1284449Y1308921*
X1280449Y1304921*
X1284449Y1300921*
Y1304921D02*
Y1308921D01*
X1186811Y1308598D02*
X1190811Y1312598D01*
X1186811Y1316598*
X1182811Y1312598*
X1186811Y1308598*
Y1312598D02*
Y1316598D01*
X1191535Y1304071D02*
X1195535Y1308071D01*
X1191535Y1312071*
X1187535Y1308071*
X1191535Y1304071*
Y1308071D02*
Y1312071D01*
X1199213Y1304268D02*
X1203213Y1308268D01*
X1199213Y1312268*
X1195213Y1308268*
X1199213Y1304268*
Y1308268D02*
Y1312268D01*
X1206496Y1304465D02*
X1210496Y1308465D01*
X1206496Y1312465*
X1202496Y1308465*
X1206496Y1304465*
Y1308465D02*
Y1312465D01*
X1218701Y1309189D02*
X1222701Y1313189D01*
X1218701Y1317189*
X1214701Y1313189*
X1218701Y1309189*
Y1313189D02*
Y1317189D01*
X1221063Y1306039D02*
X1225063Y1310039D01*
X1221063Y1314039*
X1217063Y1310039*
X1221063Y1306039*
Y1310039D02*
Y1314039D01*
X1215748Y1305449D02*
X1219748Y1309449D01*
X1215748Y1313449*
X1211748Y1309449*
X1215748Y1305449*
Y1309449D02*
Y1313449D01*
X1225197Y1309189D02*
X1229197Y1313189D01*
X1225197Y1317189*
X1221197Y1313189*
X1225197Y1309189*
Y1313189D02*
Y1317189D01*
X1242717Y1309386D02*
X1246717Y1313386D01*
X1242717Y1317386*
X1238717Y1313386*
X1242717Y1309386*
Y1313386D02*
Y1317386D01*
X1234646Y1309189D02*
X1238646Y1313189D01*
X1234646Y1317189*
X1230646Y1313189*
X1234646Y1309189*
Y1313189D02*
Y1317189D01*
X1241339Y1304858D02*
X1245339Y1308858D01*
X1241339Y1312858*
X1237339Y1308858*
X1241339Y1304858*
Y1308858D02*
Y1312858D01*
X1235630Y1304858D02*
X1239630Y1308858D01*
X1235630Y1312858*
X1231630Y1308858*
X1235630Y1304858*
Y1308858D02*
Y1312858D01*
X1250591Y1309189D02*
X1254591Y1313189D01*
X1250591Y1317189*
X1246591Y1313189*
X1250591Y1309189*
Y1313189D02*
Y1317189D01*
X1253937Y1305055D02*
X1257937Y1309055D01*
X1253937Y1313055*
X1249937Y1309055*
X1253937Y1305055*
Y1309055D02*
Y1313055D01*
X1247441Y1304858D02*
X1251441Y1308858D01*
X1247441Y1312858*
X1243441Y1308858*
X1247441Y1304858*
Y1308858D02*
Y1312858D01*
X1259449Y1309189D02*
X1263449Y1313189D01*
X1259449Y1317189*
X1255449Y1313189*
X1259449Y1309189*
Y1313189D02*
Y1317189D01*
X1260236Y1305055D02*
X1264236Y1309055D01*
X1260236Y1313055*
X1256236Y1309055*
X1260236Y1305055*
Y1309055D02*
Y1313055D01*
X1267717Y1304661D02*
X1271717Y1308661D01*
X1267717Y1312661*
X1263717Y1308661*
X1267717Y1304661*
Y1308661D02*
Y1312661D01*
X1281102Y1309386D02*
X1285102Y1313386D01*
X1281102Y1317386*
X1277102Y1313386*
X1281102Y1309386*
Y1313386D02*
Y1317386D01*
X1281496Y1305055D02*
X1285496Y1309055D01*
X1281496Y1313055*
X1277496Y1309055*
X1281496Y1305055*
Y1309055D02*
Y1313055D01*
X1275394Y1304858D02*
X1279394Y1308858D01*
X1275394Y1312858*
X1271394Y1308858*
X1275394Y1304858*
Y1308858D02*
Y1312858D01*
X905512Y1301102D02*
X1163512D01*
X905512Y1277102D02*
X1163512D01*
X905512Y1253102D02*
X1163512D01*
X905512Y1229102D02*
X1163512D01*
X905512Y1205102D02*
X1163512D01*
X905512Y1181102D02*
X1163512D01*
X905512Y1301102D02*
Y1181102D01*
X989512Y1301102D02*
Y1181102D01*
X1025512Y1301102D02*
Y1181102D01*
X1061512Y1301102D02*
Y1181102D01*
X1115512Y1301102D02*
Y1181102D01*
X1163512Y1301102D02*
Y1181102D01*
X941012Y1289852D02*
X940466Y1290602D01*
X939648Y1290977*
X938557*
X937739Y1290602*
X937194Y1289852*
Y1289102*
X937466Y1288352*
X937739Y1287977*
X938285Y1287602*
X939921Y1286852*
X940466Y1286477*
X940739Y1286102*
X941012Y1285352*
Y1284227*
X940466Y1283477*
X939648Y1283102*
X938557*
X937739Y1283477*
X937194Y1284227*
X943466Y1290977D02*
Y1283102D01*
X949739Y1290977D02*
X945921Y1283102D01*
Y1290977D02*
X949739D01*
X945921Y1283102D02*
X949739D01*
X952194Y1290977D02*
Y1283102D01*
Y1290977D02*
X955739D01*
X952194Y1287227D02*
X954375D01*
X952194Y1283102D02*
X955739D01*
X999375Y1290977D02*
X998830Y1290602D01*
X998285Y1289852*
X998012Y1289102*
X997739Y1287977*
Y1286102*
X998012Y1284977*
X998285Y1284227*
X998830Y1283477*
X999375Y1283102*
X1000466*
X1001012Y1283477*
X1001557Y1284227*
X1001830Y1284977*
X1002103Y1286102*
Y1287977*
X1001830Y1289102*
X1001557Y1289852*
X1001012Y1290602*
X1000466Y1290977*
X999375*
X1000194Y1284602D02*
X1001830Y1282352D01*
X1006466Y1290977D02*
Y1283102D01*
X1004557Y1290977D02*
X1008375D01*
X1010830D02*
X1013012Y1287227D01*
Y1283102*
X1015194Y1290977D02*
X1013012Y1287227D01*
X1037557Y1289852D02*
X1037012Y1290602D01*
X1036194Y1290977*
X1035103*
X1034285Y1290602*
X1033739Y1289852*
Y1289102*
X1034012Y1288352*
X1034285Y1287977*
X1034830Y1287602*
X1036466Y1286852*
X1037012Y1286477*
X1037285Y1286102*
X1037557Y1285352*
Y1284227*
X1037012Y1283477*
X1036194Y1283102*
X1035103*
X1034285Y1283477*
X1033739Y1284227*
X1040012Y1290977D02*
X1042194Y1287227D01*
Y1283102*
X1044375Y1290977D02*
X1042194Y1287227D01*
X1046830Y1290977D02*
Y1283102D01*
Y1290977D02*
X1049012Y1283102D01*
X1051194Y1290977D02*
X1049012Y1283102D01*
X1051194Y1290977D02*
Y1283102D01*
X1073012Y1290977D02*
Y1283102D01*
Y1290977D02*
X1075466D01*
X1076285Y1290602*
X1076557Y1290227*
X1076830Y1289477*
Y1288352*
X1076557Y1287602*
X1076285Y1287227*
X1075466Y1286852*
X1073012*
X1079285Y1290977D02*
Y1283102D01*
X1082557*
X1087194Y1290977D02*
X1085012Y1283102D01*
X1087194Y1290977D02*
X1089375Y1283102D01*
X1085830Y1285727D02*
X1088557D01*
X1093739Y1290977D02*
Y1283102D01*
X1091830Y1290977D02*
X1095648D01*
X1098103D02*
Y1283102D01*
Y1290977D02*
X1101648D01*
X1098103Y1287227D02*
X1100285D01*
X1098103Y1283102D02*
X1101648D01*
X1104103Y1290977D02*
Y1283102D01*
Y1290977D02*
X1106012D01*
X1106830Y1290602*
X1107375Y1289852*
X1107648Y1289102*
X1107921Y1287977*
Y1286102*
X1107648Y1284977*
X1107375Y1284227*
X1106830Y1283477*
X1106012Y1283102*
X1104103*
X1132194Y1290977D02*
Y1283102D01*
X1130285Y1290977D02*
X1134103D01*
X1138194D02*
X1137648Y1290602D01*
X1137103Y1289852*
X1136830Y1289102*
X1136557Y1287977*
Y1286102*
X1136830Y1284977*
X1137103Y1284227*
X1137648Y1283477*
X1138194Y1283102*
X1139285*
X1139830Y1283477*
X1140375Y1284227*
X1140648Y1284977*
X1140921Y1286102*
Y1287977*
X1140648Y1289102*
X1140375Y1289852*
X1139830Y1290602*
X1139285Y1290977*
X1138194*
X1143375D02*
Y1283102D01*
X1146648*
X913148Y1266977D02*
X912330Y1266602D01*
X911785Y1265477*
X911512Y1263602*
Y1262477*
X911785Y1260602*
X912330Y1259477*
X913148Y1259102*
X913694*
X914512Y1259477*
X915057Y1260602*
X915330Y1262477*
Y1263602*
X915057Y1265477*
X914512Y1266602*
X913694Y1266977*
X913148*
X918057Y1259852D02*
X917785Y1259477D01*
X918057Y1259102*
X918330Y1259477*
X918057Y1259852*
X924057Y1265852D02*
X923785Y1266602D01*
X922966Y1266977*
X922421*
X921603Y1266602*
X921057Y1265477*
X920785Y1263602*
Y1261727*
X921057Y1260227*
X921603Y1259477*
X922421Y1259102*
X922694*
X923512Y1259477*
X924057Y1260227*
X924330Y1261352*
Y1261727*
X924057Y1262852*
X923512Y1263602*
X922694Y1263977*
X922421*
X921603Y1263602*
X921057Y1262852*
X920785Y1261727*
X930330Y1266977D02*
X927603D01*
X927330Y1263602*
X927603Y1263977*
X928421Y1264352*
X929239*
X930057Y1263977*
X930603Y1263227*
X930875Y1262102*
X930603Y1261352*
X930330Y1260227*
X929785Y1259477*
X928966Y1259102*
X928148*
X927330Y1259477*
X927057Y1259852*
X926785Y1260602*
X1004830Y1265852D02*
X1004557Y1266602D01*
X1003739Y1266977*
X1003194*
X1002375Y1266602*
X1001830Y1265477*
X1001557Y1263602*
Y1261727*
X1001830Y1260227*
X1002375Y1259477*
X1003194Y1259102*
X1003466*
X1004285Y1259477*
X1004830Y1260227*
X1005103Y1261352*
Y1261727*
X1004830Y1262852*
X1004285Y1263602*
X1003466Y1263977*
X1003194*
X1002375Y1263602*
X1001830Y1262852*
X1001557Y1261727*
X1009194Y1266977D02*
X1008375Y1266602D01*
X1007830Y1265477*
X1007557Y1263602*
Y1262477*
X1007830Y1260602*
X1008375Y1259477*
X1009194Y1259102*
X1009739*
X1010557Y1259477*
X1011103Y1260602*
X1011375Y1262477*
Y1263602*
X1011103Y1265477*
X1010557Y1266602*
X1009739Y1266977*
X1009194*
X1037512Y1265102D02*
X1049512D01*
X1043512Y1259102D02*
Y1271102D01*
X1070148Y1266977D02*
X1072330Y1263227D01*
Y1259102*
X1074512Y1266977D02*
X1072330Y1263227D01*
X1076966Y1266977D02*
Y1259102D01*
Y1266977D02*
X1080512D01*
X1076966Y1263227D02*
X1079148D01*
X1076966Y1259102D02*
X1080512D01*
X1086785Y1265852D02*
X1086239Y1266602D01*
X1085421Y1266977*
X1084330*
X1083512Y1266602*
X1082966Y1265852*
Y1265102*
X1083239Y1264352*
X1083512Y1263977*
X1084057Y1263602*
X1085694Y1262852*
X1086239Y1262477*
X1086512Y1262102*
X1086785Y1261352*
Y1260227*
X1086239Y1259477*
X1085421Y1259102*
X1084330*
X1083512Y1259477*
X1082966Y1260227*
X1123330Y1265852D02*
Y1259102D01*
X1120875Y1262477D02*
X1125785D01*
X1133148Y1268477D02*
X1128239Y1256477D01*
X1135603Y1262477D02*
X1140512D01*
X1144603Y1266977D02*
X1143785Y1266602D01*
X1143239Y1265477*
X1142966Y1263602*
Y1262477*
X1143239Y1260602*
X1143785Y1259477*
X1144603Y1259102*
X1145148*
X1145966Y1259477*
X1146512Y1260602*
X1146785Y1262477*
Y1263602*
X1146512Y1265477*
X1145966Y1266602*
X1145148Y1266977*
X1144603*
X1149512Y1259852D02*
X1149239Y1259477D01*
X1149512Y1259102*
X1149785Y1259477*
X1149512Y1259852*
X1153875Y1266977D02*
X1153057Y1266602D01*
X1152512Y1265477*
X1152239Y1263602*
Y1262477*
X1152512Y1260602*
X1153057Y1259477*
X1153875Y1259102*
X1154421*
X1155239Y1259477*
X1155785Y1260602*
X1156057Y1262477*
Y1263602*
X1155785Y1265477*
X1155239Y1266602*
X1154421Y1266977*
X1153875*
X913148Y1242977D02*
X912330Y1242602D01*
X911785Y1241477*
X911512Y1239602*
Y1238477*
X911785Y1236602*
X912330Y1235477*
X913148Y1235102*
X913694*
X914512Y1235477*
X915057Y1236602*
X915330Y1238477*
Y1239602*
X915057Y1241477*
X914512Y1242602*
X913694Y1242977*
X913148*
X918057Y1235852D02*
X917785Y1235477D01*
X918057Y1235102*
X918330Y1235477*
X918057Y1235852*
X923512Y1242977D02*
X920785Y1237727D01*
X924875*
X923512Y1242977D02*
Y1235102D01*
X1003875Y1241477D02*
X1004421Y1241852D01*
X1005239Y1242977*
Y1235102*
X1007694Y1241477D02*
X1008239Y1241852D01*
X1009057Y1242977*
Y1235102*
X1037512D02*
X1049512Y1247102D01*
X1037512D02*
X1049512Y1235102D01*
X1070148Y1242977D02*
X1072330Y1239227D01*
Y1235102*
X1074512Y1242977D02*
X1072330Y1239227D01*
X1076966Y1242977D02*
Y1235102D01*
Y1242977D02*
X1080512D01*
X1076966Y1239227D02*
X1079148D01*
X1076966Y1235102D02*
X1080512D01*
X1086785Y1241852D02*
X1086239Y1242602D01*
X1085421Y1242977*
X1084330*
X1083512Y1242602*
X1082966Y1241852*
Y1241102*
X1083239Y1240352*
X1083512Y1239977*
X1084057Y1239602*
X1085694Y1238852*
X1086239Y1238477*
X1086512Y1238102*
X1086785Y1237352*
Y1236227*
X1086239Y1235477*
X1085421Y1235102*
X1084330*
X1083512Y1235477*
X1082966Y1236227*
X1123330Y1241852D02*
Y1235102D01*
X1120875Y1238477D02*
X1125785D01*
X1133148Y1244477D02*
X1128239Y1232477D01*
X1135603Y1238477D02*
X1140512D01*
X1144603Y1242977D02*
X1143785Y1242602D01*
X1143239Y1241477*
X1142966Y1239602*
Y1238477*
X1143239Y1236602*
X1143785Y1235477*
X1144603Y1235102*
X1145148*
X1145966Y1235477*
X1146512Y1236602*
X1146785Y1238477*
Y1239602*
X1146512Y1241477*
X1145966Y1242602*
X1145148Y1242977*
X1144603*
X1149512Y1235852D02*
X1149239Y1235477D01*
X1149512Y1235102*
X1149785Y1235477*
X1149512Y1235852*
X1153875Y1242977D02*
X1153057Y1242602D01*
X1152512Y1241477*
X1152239Y1239602*
Y1238477*
X1152512Y1236602*
X1153057Y1235477*
X1153875Y1235102*
X1154421*
X1155239Y1235477*
X1155785Y1236602*
X1156057Y1238477*
Y1239602*
X1155785Y1241477*
X1155239Y1242602*
X1154421Y1242977*
X1153875*
X913148Y1218977D02*
X912330Y1218602D01*
X911785Y1217477*
X911512Y1215602*
Y1214477*
X911785Y1212602*
X912330Y1211477*
X913148Y1211102*
X913694*
X914512Y1211477*
X915057Y1212602*
X915330Y1214477*
Y1215602*
X915057Y1217477*
X914512Y1218602*
X913694Y1218977*
X913148*
X918057Y1211852D02*
X917785Y1211477D01*
X918057Y1211102*
X918330Y1211477*
X918057Y1211852*
X924330Y1218977D02*
X921603D01*
X921330Y1215602*
X921603Y1215977*
X922421Y1216352*
X923239*
X924057Y1215977*
X924603Y1215227*
X924875Y1214102*
X924603Y1213352*
X924330Y1212227*
X923785Y1211477*
X922966Y1211102*
X922148*
X921330Y1211477*
X921057Y1211852*
X920785Y1212602*
X933603Y1216352D02*
X936603Y1211102D01*
Y1216352D02*
X933603Y1211102D01*
X945603Y1217102D02*
Y1217477D01*
X945875Y1218227*
X946148Y1218602*
X946694Y1218977*
X947785*
X948330Y1218602*
X948603Y1218227*
X948875Y1217477*
Y1216727*
X948603Y1215977*
X948057Y1214852*
X945330Y1211102*
X949148*
X1007148Y1218977D02*
X1004421Y1213727D01*
X1008512*
X1007148Y1218977D02*
Y1211102D01*
X1037512D02*
X1049512D01*
Y1223102*
X1037512*
Y1211102*
X1043512Y1217102D02*
Y1223102D01*
X1070148Y1218977D02*
X1072330Y1215227D01*
Y1211102*
X1074512Y1218977D02*
X1072330Y1215227D01*
X1076966Y1218977D02*
Y1211102D01*
Y1218977D02*
X1080512D01*
X1076966Y1215227D02*
X1079148D01*
X1076966Y1211102D02*
X1080512D01*
X1086785Y1217852D02*
X1086239Y1218602D01*
X1085421Y1218977*
X1084330*
X1083512Y1218602*
X1082966Y1217852*
Y1217102*
X1083239Y1216352*
X1083512Y1215977*
X1084057Y1215602*
X1085694Y1214852*
X1086239Y1214477*
X1086512Y1214102*
X1086785Y1213352*
Y1212227*
X1086239Y1211477*
X1085421Y1211102*
X1084330*
X1083512Y1211477*
X1082966Y1212227*
X1123330Y1217852D02*
Y1211102D01*
X1120875Y1214477D02*
X1125785D01*
X1133148Y1220477D02*
X1128239Y1208477D01*
X1135603Y1214477D02*
X1140512D01*
X1144603Y1218977D02*
X1143785Y1218602D01*
X1143239Y1217477*
X1142966Y1215602*
Y1214477*
X1143239Y1212602*
X1143785Y1211477*
X1144603Y1211102*
X1145148*
X1145966Y1211477*
X1146512Y1212602*
X1146785Y1214477*
Y1215602*
X1146512Y1217477*
X1145966Y1218602*
X1145148Y1218977*
X1144603*
X1149512Y1211852D02*
X1149239Y1211477D01*
X1149512Y1211102*
X1149785Y1211477*
X1149512Y1211852*
X1153875Y1218977D02*
X1153057Y1218602D01*
X1152512Y1217477*
X1152239Y1215602*
Y1214477*
X1152512Y1212602*
X1153057Y1211477*
X1153875Y1211102*
X1154421*
X1155239Y1211477*
X1155785Y1212602*
X1156057Y1214477*
Y1215602*
X1155785Y1217477*
X1155239Y1218602*
X1154421Y1218977*
X1153875*
X913148Y1194977D02*
X912330Y1194602D01*
X911785Y1193477*
X911512Y1191602*
Y1190477*
X911785Y1188602*
X912330Y1187477*
X913148Y1187102*
X913694*
X914512Y1187477*
X915057Y1188602*
X915330Y1190477*
Y1191602*
X915057Y1193477*
X914512Y1194602*
X913694Y1194977*
X913148*
X918057Y1187852D02*
X917785Y1187477D01*
X918057Y1187102*
X918330Y1187477*
X918057Y1187852*
X921330Y1194977D02*
X924330D01*
X922694Y1191977*
X923512*
X924057Y1191602*
X924330Y1191227*
X924603Y1190102*
Y1189352*
X924330Y1188227*
X923785Y1187477*
X922966Y1187102*
X922148*
X921330Y1187477*
X921057Y1187852*
X920785Y1188602*
X998830Y1194977D02*
X1001830D01*
X1000194Y1191977*
X1001012*
X1001557Y1191602*
X1001830Y1191227*
X1002103Y1190102*
Y1189352*
X1001830Y1188227*
X1001285Y1187477*
X1000466Y1187102*
X999648*
X998830Y1187477*
X998557Y1187852*
X998285Y1188602*
X1004830Y1193102D02*
Y1193477D01*
X1005103Y1194227*
X1005375Y1194602*
X1005921Y1194977*
X1007012*
X1007557Y1194602*
X1007830Y1194227*
X1008103Y1193477*
Y1192727*
X1007830Y1191977*
X1007285Y1190852*
X1004557Y1187102*
X1008375*
X1012194Y1194977D02*
X1011375Y1194602D01*
X1011103Y1193852*
Y1193102*
X1011375Y1192352*
X1011921Y1191977*
X1013012Y1191602*
X1013830Y1191227*
X1014375Y1190477*
X1014648Y1189727*
Y1188602*
X1014375Y1187852*
X1014103Y1187477*
X1013285Y1187102*
X1012194*
X1011375Y1187477*
X1011103Y1187852*
X1010830Y1188602*
Y1189727*
X1011103Y1190477*
X1011648Y1191227*
X1012466Y1191602*
X1013557Y1191977*
X1014103Y1192352*
X1014375Y1193102*
Y1193852*
X1014103Y1194602*
X1013285Y1194977*
X1012194*
X1043512Y1187102D02*
X1049512Y1193102D01*
X1043512Y1199102*
X1037512Y1193102*
X1043512Y1187102*
Y1193102D02*
Y1199102D01*
X1070148Y1194977D02*
X1072330Y1191227D01*
Y1187102*
X1074512Y1194977D02*
X1072330Y1191227D01*
X1076966Y1194977D02*
Y1187102D01*
Y1194977D02*
X1080512D01*
X1076966Y1191227D02*
X1079148D01*
X1076966Y1187102D02*
X1080512D01*
X1086785Y1193852D02*
X1086239Y1194602D01*
X1085421Y1194977*
X1084330*
X1083512Y1194602*
X1082966Y1193852*
Y1193102*
X1083239Y1192352*
X1083512Y1191977*
X1084057Y1191602*
X1085694Y1190852*
X1086239Y1190477*
X1086512Y1190102*
X1086785Y1189352*
Y1188227*
X1086239Y1187477*
X1085421Y1187102*
X1084330*
X1083512Y1187477*
X1082966Y1188227*
X1123330Y1193852D02*
Y1187102D01*
X1120875Y1190477D02*
X1125785D01*
X1133148Y1196477D02*
X1128239Y1184477D01*
X1135603Y1190477D02*
X1140512D01*
X1144603Y1194977D02*
X1143785Y1194602D01*
X1143239Y1193477*
X1142966Y1191602*
Y1190477*
X1143239Y1188602*
X1143785Y1187477*
X1144603Y1187102*
X1145148*
X1145966Y1187477*
X1146512Y1188602*
X1146785Y1190477*
Y1191602*
X1146512Y1193477*
X1145966Y1194602*
X1145148Y1194977*
X1144603*
X1149512Y1187852D02*
X1149239Y1187477D01*
X1149512Y1187102*
X1149785Y1187477*
X1149512Y1187852*
X1153875Y1194977D02*
X1153057Y1194602D01*
X1152512Y1193477*
X1152239Y1191602*
Y1190477*
X1152512Y1188602*
X1153057Y1187477*
X1153875Y1187102*
X1154421*
X1155239Y1187477*
X1155785Y1188602*
X1156057Y1190477*
Y1191602*
X1155785Y1193477*
X1155239Y1194602*
X1154421Y1194977*
X1153875*
G54D48*
X1181102Y1314567D02*
X1185433Y1318898D01*
X1285236*
X1289370Y1314764*
Y1181102*
X1181102*
Y1314567*
G74*
X0Y0D02*
M02*
