*
*
G04 PADS 9.5 Build Number: 522968 generated Gerber (RS-274-X) file*
G04 PC Version=2.1*
*
%IN "SYNAPTICS_BASE_MODULE_D"*%
*
%MOIN*%
*
%FSLAX35Y35*%
*
*
*
*
G04 PC Standard Apertures*
*
*
G04 Thermal Relief Aperture macro.*
%AMTER*
1,1,$1,0,0*
1,0,$1-$2,0,0*
21,0,$3,$4,0,0,45*
21,0,$3,$4,0,0,135*
%
*
*
G04 Annular Aperture macro.*
%AMANN*
1,1,$1,0,0*
1,0,$2,0,0*
%
*
*
G04 Odd Aperture macro.*
%AMODD*
1,1,$1,0,0*
1,0,$1-0.005,0,0*
%
*
*
G04 PC Custom Aperture Macros*
*
*
*
*
*
*
G04 PC Aperture Table*
*
%ADD012C,0.00394*%
%ADD025O,0.11811X0.03937*%
%ADD038C,0.00787*%
%ADD048C,0.00079*%
%ADD077R,0.05118X0.03543*%
%ADD078R,0.03543X0.05118*%
%ADD079C,0.03543*%
*
*
*
*
G04 PC Circuitry*
G04 Layer Name SYNAPTICS_BASE_MODULE_D - circuitry*
%LPD*%
*
*
G04 PC Custom Flashes*
G04 Layer Name SYNAPTICS_BASE_MODULE_D - flashes*
%LPD*%
*
*
G04 PC Circuitry*
G04 Layer Name SYNAPTICS_BASE_MODULE_D - circuitry*
%LPD*%
*
G54D12*
G54D25*
G01X1197638Y1313189D03*
X1271063D03*
X1193110Y1186417D03*
X1276575D03*
G54D38*
X1230315Y1262598D02*
X1244488D01*
Y1247638*
X1230315*
Y1262598*
Y1262518D02*
X1244488D01*
X1230315Y1261810D02*
X1244488D01*
X1230315Y1261101D02*
X1244488D01*
X1230315Y1260392D02*
X1244488D01*
X1230315Y1259684D02*
X1244488D01*
X1230315Y1258975D02*
X1244488D01*
X1230315Y1258266D02*
X1244488D01*
X1230315Y1257558D02*
X1244488D01*
X1230315Y1256849D02*
X1244488D01*
X1230315Y1256140D02*
X1244488D01*
X1230315Y1255432D02*
X1244488D01*
X1230315Y1254723D02*
X1244488D01*
X1230315Y1254014D02*
X1244488D01*
X1230315Y1253306D02*
X1244488D01*
X1230315Y1252597D02*
X1244488D01*
X1230315Y1251888D02*
X1244488D01*
X1230315Y1251180D02*
X1244488D01*
X1230315Y1250471D02*
X1244488D01*
X1230315Y1249762D02*
X1244488D01*
X1230315Y1249054D02*
X1244488D01*
X1230315Y1248345D02*
X1244488D01*
G54D48*
X1181102Y1314567D02*
X1185433Y1318898D01*
X1285236*
X1289370Y1314764*
Y1181102*
X1181102*
Y1314567*
G54D77*
X1181890Y1306890D03*
Y1246654D03*
Y1239961D03*
Y1233268D03*
Y1226575D03*
Y1219882D03*
Y1213189D03*
Y1206496D03*
Y1199803D03*
Y1193110D03*
Y1300197D03*
Y1293504D03*
X1288583Y1193110D03*
Y1199803D03*
Y1206496D03*
Y1213189D03*
Y1219882D03*
Y1226575D03*
Y1233268D03*
Y1239961D03*
Y1246654D03*
X1181890Y1286811D03*
X1288583Y1253346D03*
Y1260039D03*
Y1266732D03*
Y1273425D03*
Y1280118D03*
Y1286811D03*
Y1293504D03*
Y1300197D03*
Y1306890D03*
X1181890Y1280118D03*
Y1273425D03*
Y1266732D03*
Y1260039D03*
Y1253346D03*
G54D78*
X1196260Y1181693D03*
X1203346D03*
X1210433D03*
X1217520D03*
X1224606D03*
X1231693D03*
X1238780D03*
X1245866D03*
X1252953D03*
X1260039D03*
X1267126D03*
X1274213D03*
Y1318110D03*
X1267126D03*
X1260039Y1317913D03*
X1252953D03*
X1245866D03*
X1238780D03*
X1231693D03*
X1224606D03*
X1217520D03*
X1210433D03*
X1203346D03*
X1196260D03*
G54D79*
X1218898Y1196457D03*
X1218701Y1207480D03*
X1218898Y1190945D03*
X1218701Y1218504D03*
Y1201969D03*
X1209449Y1206693D03*
X1218701Y1212992D03*
X1209449Y1201181D03*
Y1212008D03*
X1213189Y1218701D03*
X1197638Y1201181D03*
X0Y0D02*
M02*
