%
T1C.01181F0S0
X120276Y119094
X120551Y119094
X11939Y119114
X118681Y119114
X119134Y119547
X119843Y119547
X118661Y119705
X11935Y11998
X119134Y120295
X118681Y120315
X119232Y12065
X119724Y12065
X12002Y120945
X118681Y120984
X119114Y121339
X119705Y121417
X118681Y121654
X12Y121831
X119016Y121988
X119705Y122244
X118681Y122283
X120256Y123012
X118622Y123071
X119173Y123169
X119134Y12372
X118622Y12372
X119744Y12374
X120413Y123996
X119075Y12435
X118602Y12437
X119626Y12439
X120039Y12439
X120394Y124567
X119961Y125
X118622Y12502
X119547Y125039
X119055Y125039
X118957Y125591
X118622Y12561
X119075Y125846
X120394Y126043
X118957Y126319
X118622Y126339
X119587Y126693
X120098Y126713
X120453Y126713
X119291Y12687
X118622Y126929
X118937Y127343
X118661Y127638
X120413Y127638
X119843Y127854
X120256Y127953
X118681Y128209
X119783Y128268
X120315Y128406
X119469Y128504
X11998Y128819
X119173Y128937
X119587Y129114
X118661Y129173
X120394Y12937
X119173Y129409
X11998Y129409
X119567Y129764
X118661Y129803
X119154Y130079
X11998Y130098
X119567Y130453
X118661Y130571
X119154Y130807
X119921Y130827
X118681Y13126
X12187Y131319
X12252Y131319
X122106Y131004
X121575Y130945
X12065Y130846
X122106Y130551
X122638Y130492
X122854Y130492
X122421Y130492
X121555Y130413
X12185Y130354
X12063Y130256
X122264Y13002
X12063Y129862
X121535Y129803
X122264Y129685
X121535Y129252
X12063Y12872
X121555Y128701
X12063Y128327
X121535Y128287
X12063Y127933
X121949Y12748
X121004Y127461
X122146Y127224
X121614Y126969
X122343Y126772
X122717Y126772
X1225Y126437
X122539Y126004
X122795Y125571
X122343Y125512
X122343Y125197
X120709Y12502
X122579Y125
X120965Y124823
X121476Y124823
X122913Y124764
X1225Y124724
X122382Y124488
X121732Y12437
X122598Y124331
X120689Y124272
X122933Y124193
X122638Y123996
X121496Y123957
X120965Y123957
X122382Y123406
X121004Y123209
X12061Y123169
X122638Y12315
X122972Y122953
X121673Y122343
X120807Y122067
X120787Y121732
X122264Y121594
X121417Y121319
X122441Y120453
X122441Y119921
X121181Y119606
X120728Y119587
X122854Y119409
X121417Y11935
X122441Y119232
X123091Y119232
X121063Y119154
X122835Y118642
X121299Y118622
X122028Y118622
X12063Y118622
X123346Y118622
X125591Y118622
X124862Y118642
X123622Y119016
X125531Y119035
X123898Y119055
X123346Y119094
X125157Y119252
X124469Y11939
X124803Y119587
X125472Y119626
X124744Y120138
X125394Y120157
X124783Y12065
X124154Y12126
X125492Y12126
X124488Y121358
X124705Y121516
X124213Y121594
X123996Y121594
X124823Y121909
X125039Y122028
X125591Y122028
X125276Y122126
X124961Y122835
X125177Y122972
X123386Y122972
X125453Y122992
X124094Y123012
X12311Y123228
X123661Y123524
X124508Y123602
X125138Y123642
X123169Y123681
X125551Y123878
X123642Y123996
X124902Y124016
X124488Y124252
X123307Y12439
X125394Y124508
X124665Y124724
X123701Y124783
X125571Y124862
X124705Y125236
X123189Y125256
X125354Y125256
X123661Y12563
X12311Y125965
X124114Y126043
X123681Y12622
X125413Y12628
X124705Y126299
X12313Y126476
X125079Y12685
X12374Y12687
X124035Y126909
X124311Y126909
X124606Y127736
X12502Y127854
X123543Y12813
X123209Y128189
X124114Y128268
X123189Y128543
X123524Y128681
X123228Y129075
X125413Y129272
X123228Y12939
X123484Y129449
X125236Y129508
X123228Y129783
X125098Y129882
X124862Y130059
X125394Y130118
X123228Y130177
X124134Y130886
X123563Y130886
X124744Y130886
X125394Y130906
X125059Y131319
X123465Y131319
X124272Y131339
X125945Y131319
X126024Y130906
X127539Y130886
X126772Y130866
X127283Y130315
X127972Y130276
X126142Y130157
X127205Y129724
X127874Y129724
X12622Y129685
X125768Y129646
X127559Y129429
X126988Y12937
X127028Y129055
X125807Y128937
X127953Y128661
X126654Y128622
X126299Y128307
X127165Y128268
X125728Y127953
X127953Y127874
X12561Y127657
X127146Y12752
X127579Y1275
X127972Y127402
X127736Y127165
X126142Y126949
X125709Y12687
X127047Y126772
X126102Y126693
X127972Y126535
X126398Y126378
X125827Y12628
X12561Y125965
X126398Y125886
X126378Y125669
X128071Y12565
X125768Y125276
X126102Y125217
X126496Y125197
X127736Y125
X126378Y124724
X128051Y124724
X126102Y124665
X127736Y124646
X127146Y124646
X127736Y12437
X127185Y124291
X126358Y124094
X126201Y123858
X127697Y123661
X127303Y123366
X126043Y123287
X1275Y123209
X125787Y123031
X127972Y122638
X12752Y122441
X126713Y122441
X126398Y122047
X127598Y121969
X12689Y121949
X127362Y121772
X126319Y121772
X12561Y121673
X127854Y121673
X127539Y121555
X126201Y121437
X127776Y12128
X127008Y12128
X12628Y121161
X126398Y120374
X126949Y120157
X127736Y120157
X12626Y120138
X126673Y119882
X126555Y119606
X126988Y11939
X127913Y119114
X126713Y119094
X126004Y119094
X126339Y119094
X127303Y119035
X126417Y118642
X128406Y118917
X128386Y119646
X128425Y120335
X128425Y120945
X128425Y121614
X12813Y122126
X128445Y122362
X128425Y122953
X128425Y123642
X128445Y124232
X128425Y125571
X128445Y126791
X128445Y127106
X128386Y127717
X128406Y128346
X128169Y129173
X128425Y129528
X128228Y129961
X128445Y130492
X12815Y130906
X12811Y131339
T2C.01575F0S0
X12189Y119094
X12189Y119646
X119764Y120118
X120945Y120118
X12187Y120197
X120945Y120669
X12187Y120748
X120945Y121201
X12187Y121299
X12187Y12185
X121319Y12187
T3C.01969F0S0
X119469Y131319G85X120059Y131319
X126811Y131319G85X127402Y131319
X119016Y118642G85X119606Y118642
X127362Y118642G85X127953Y118642
T4C.02559F0S0
X119626Y118091
X120335Y118091
X11811Y119311
X11811Y11998
X11811Y12065
X11811Y121319
X11811Y121988
X11811Y122657
X11811Y123327
X11811Y123996
X11811Y124665
X11811Y125335
X11811Y126004
X11811Y126673
X11811Y127343
X11811Y128012
X11811Y128681
X11811Y12935
X11811Y13002
X11811Y130689
X120335Y13187
X119626Y13187
X122461Y13187
X121752Y13187
X121043Y13187
X121043Y118091
X121752Y118091
X122461Y118091
X123169Y118091
X123878Y118091
X124587Y118091
X125295Y118091
X125295Y13187
X124587Y13187
X123878Y13187
X123169Y13187
X127421Y13189
X126713Y13189
X126004Y13187
X127421Y118091
X126004Y118091
X126713Y118091
X128937Y119311
X128937Y11998
X128937Y12065
X128937Y121319
X128937Y121988
X128937Y122657
X128937Y123327
X128937Y123996
X128937Y124665
X128937Y125335
X128937Y126004
X128937Y126673
X128937Y127343
X128937Y128012
X128937Y128681
X128937Y12935
X128937Y13002
X128937Y130689
M30
