*
*
G04 PADS 9.5 Build Number: 522968 generated Gerber (RS-274-X) file*
G04 PC Version=2.1*
*
%IN "SYNAPTICS_BASE_MODULE_D"*%
*
%MOIN*%
*
%FSLAX35Y35*%
*
*
*
*
G04 PC Standard Apertures*
*
*
G04 Thermal Relief Aperture macro.*
%AMTER*
1,1,$1,0,0*
1,0,$1-$2,0,0*
21,0,$3,$4,0,0,45*
21,0,$3,$4,0,0,135*
%
*
*
G04 Annular Aperture macro.*
%AMANN*
1,1,$1,0,0*
1,0,$2,0,0*
%
*
*
G04 Odd Aperture macro.*
%AMODD*
1,1,$1,0,0*
1,0,$1-0.005,0,0*
%
*
*
G04 PC Custom Aperture Macros*
*
*
*
*
*
*
G04 PC Aperture Table*
*
%ADD011C,0.00591*%
%ADD012C,0.00394*%
%ADD025O,0.11811X0.03937*%
%ADD032C,0.03937*%
%ADD038C,0.00787*%
%ADD041C,0.01575*%
%ADD042C,0.00984*%
%ADD043C,0.01969*%
%ADD044C,0.01181*%
%ADD046C,0.02362*%
%ADD048C,0.00079*%
%ADD056R,0.01181X0.01181*%
%ADD058R,0.02X0.024*%
%ADD059R,0.024X0.02*%
%ADD060R,0.03543X0.03543*%
%ADD061R,0.032X0.032*%
%ADD069O,0.0315X0.00886*%
%ADD070O,0.00886X0.0315*%
%ADD071R,0.24945X0.28024*%
%ADD072R,0.03937X0.02362*%
%ADD073R,0.04724X0.05512*%
%ADD074C,0.00039*%
*
*
*
*
G04 PC Circuitry*
G04 Layer Name SYNAPTICS_BASE_MODULE_D - circuitry*
%LPD*%
*
*
G04 PC Custom Flashes*
G04 Layer Name SYNAPTICS_BASE_MODULE_D - flashes*
%LPD*%
*
*
G04 PC Circuitry*
G04 Layer Name SYNAPTICS_BASE_MODULE_D - circuitry*
%LPD*%
*
G54D11*
G01X1218701Y1201969D02*
X1227165D01*
X1228346Y1203150*
Y1225197*
X1218898Y1196457D02*
X1228740D01*
X1229921Y1197638*
Y1225197*
X1191142Y1213386D02*
X1191339D01*
X1191929Y1213976*
Y1226575*
X1201772Y1236417*
X1216142*
X1217520Y1237795*
X1220472*
X1192323Y1206496D02*
X1192520D01*
X1193110Y1207087*
Y1226181*
X1202165Y1235236*
X1216535*
X1217520Y1236220*
X1220472*
X1218701Y1212992D02*
X1224213D01*
X1225197Y1213976*
Y1225197*
X1218701Y1207480D02*
X1225591D01*
X1226772Y1208661*
Y1225197*
X1190157Y1219882D02*
X1190748Y1220472D01*
Y1226969*
X1201378Y1237598*
X1215748*
X1217520Y1239370*
X1220472*
X1218701Y1218504D02*
X1222441D01*
X1223622Y1219685*
Y1225197*
X1242520D02*
Y1222047D01*
X1244882Y1219685*
Y1213583*
X1253543Y1225197D02*
Y1228937D01*
X1254528Y1229921*
X1248819Y1225197D02*
Y1223228D01*
X1249803Y1222244*
X1251772*
X1252756Y1221260*
X1247244Y1225197D02*
Y1222835D01*
X1249803Y1220276*
X1250394*
X1245669Y1225197D02*
Y1222244D01*
X1247638Y1220276*
Y1219094*
X1248228*
X1244094Y1225197D02*
Y1222047D01*
X1246260Y1219882*
Y1215157*
X1247047*
X1255118Y1225197D02*
Y1227559D01*
X1257874Y1230315*
X1249606Y1228346D02*
X1249803D01*
X1250394Y1227756*
Y1225197*
X1251772Y1229724D02*
X1251969Y1229528D01*
Y1225197*
X1267717Y1233071D02*
X1272441D01*
X1273031Y1233661*
X1267717Y1231496D02*
X1274409D01*
X1275000Y1232087*
X1265551Y1245669D02*
X1267717D01*
X1276000Y1242913D02*
X1276787Y1243701D01*
X1277362*
X1236220Y1272441D02*
Y1274606D01*
X1238976Y1277362*
Y1292126*
X1239961Y1293110*
X1242717*
Y1295079*
X1237795Y1272441D02*
Y1274409D01*
X1240157Y1276772*
Y1279331*
X1241535Y1280709*
X1246063*
X1244488Y1277362D02*
X1246063D01*
X1234646Y1292717D02*
X1234843D01*
Y1294488*
X1249016Y1295079D02*
Y1297047D01*
X1250984Y1298819*
G54D12*
G54D25*
X1197638Y1313189D03*
X1271063D03*
X1193110Y1186417D03*
X1276575D03*
G54D32*
X1218898Y1196457D03*
X1218701Y1207480D03*
X1218898Y1190945D03*
X1218701Y1218504D03*
Y1201969D03*
X1209449Y1206693D03*
X1218701Y1212992D03*
X1209449Y1201181D03*
Y1212008D03*
X1213189Y1218701D03*
X1197638Y1201181D03*
G54D38*
X1214173Y1193504D02*
Y1206496D01*
X1228543Y1194094D02*
X1229331D01*
X1231496Y1196260*
Y1225197*
X1230906Y1192323D02*
X1233071Y1194488D01*
Y1225197*
X1233465Y1190945D02*
Y1191929D01*
X1234646Y1193110*
Y1225197*
X1236220Y1190157D02*
Y1225197D01*
X1269882Y1193898D02*
X1273799D01*
X1273228Y1193878*
X1193504Y1199803D02*
X1193701D01*
X1194291Y1200394*
Y1201181*
Y1225591*
X1202756Y1234055*
X1217126*
X1217717Y1234646*
X1220472*
X1194291Y1201181D02*
X1197638D01*
X1263976Y1203740D02*
X1241476D01*
X1241732Y1203878*
X1273819Y1204724D02*
X1278346D01*
X1272894Y1198819D02*
X1274016D01*
X1276181Y1196654*
X1277362*
X1278346Y1196063*
X1272894Y1198819D02*
X1273228Y1198878D01*
Y1203878D02*
X1273819Y1204724D01*
X1277362Y1201575D02*
X1278740Y1200197D01*
X1278346Y1200000*
X1209449Y1206693D02*
X1213976D01*
X1214173Y1206496*
Y1213189*
X1241732Y1208878D02*
X1241516Y1209055D01*
X1250197*
Y1216535D02*
Y1209055D01*
X1255709*
X1258268Y1211614*
Y1225197*
X1273228Y1208878D02*
X1274213D01*
X1278524*
X1274213D02*
Y1212795D01*
X1278346Y1208661D02*
X1278524Y1208878D01*
X1239370Y1225197D02*
Y1220276D01*
X1239764Y1219882*
Y1219488*
X1237795Y1225197D02*
Y1191929D01*
X1238976Y1190748*
Y1190551*
X1263189Y1217717D02*
X1264370D01*
X1264961Y1216929*
X1262992Y1225197D02*
Y1222638D01*
X1263976Y1221654*
Y1220472*
X1259843Y1225197D02*
Y1211614D01*
X1266732Y1204724*
X1273819*
X1254134Y1216535D02*
Y1216732D01*
X1256102*
X1261417Y1225197D02*
Y1217913D01*
Y1217717*
X1263189*
X1264567Y1225197D02*
Y1223425D01*
X1266339Y1221654*
X1270472*
X1271260Y1220866*
Y1216339*
X1272047Y1215551*
X1275394*
X1264961Y1216929D02*
Y1210236D01*
X1266339Y1208878*
X1273228*
X1220472Y1233071D02*
X1222835D01*
X1223819Y1234055*
X1267717Y1234646D02*
X1270276D01*
X1272244Y1236614*
X1273425*
X1267717Y1229921D02*
X1270669D01*
X1272835Y1227756*
Y1217717*
X1273622*
X1217323Y1243701D02*
X1217717Y1244094D01*
X1220472*
Y1242520D02*
X1225197D01*
X1225984Y1243307*
X1220472Y1245669D02*
X1223031D01*
X1223819Y1244882*
X1271850Y1242913D02*
X1274016D01*
X1267717Y1245669D02*
X1269488D01*
X1271850Y1243307*
Y1242913*
X1220472Y1247244D02*
X1225000D01*
X1220472Y1248819D02*
X1223425D01*
X1224606Y1250000*
X1225787*
X1220472Y1251969D02*
X1223425D01*
X1220472Y1255118D02*
X1223425D01*
X1263780Y1247244D02*
X1267717D01*
Y1249606D02*
Y1250394D01*
X1264961Y1251969D02*
X1267717D01*
Y1255118D02*
X1269882D01*
X1274213Y1259449*
X1274559*
X1274606Y1259496*
X1267717Y1253543D02*
X1274213D01*
X1267717Y1250394D02*
X1274016D01*
X1267717Y1249606D02*
Y1248819D01*
X1274016*
X1267717Y1247244D02*
X1270669D01*
X1271457Y1246457*
X1274213Y1253543D02*
X1274559D01*
X1274606Y1253496*
X1274016Y1253543D02*
X1274213D01*
X1265157Y1264567D02*
X1267717D01*
X1264961Y1256693D02*
X1267717D01*
Y1264567D02*
X1273819D01*
X1218701Y1266142D02*
X1220472D01*
X1216142Y1269685D02*
X1216535D01*
X1218504Y1267717*
X1220472*
X1223425Y1274213D02*
X1223622Y1274016D01*
Y1272441*
X1220276Y1269291D02*
X1220472D01*
X1229921Y1269488D02*
X1233071D01*
X1225197Y1272441D02*
X1226772D01*
X1231496D02*
Y1273425D01*
X1240354Y1269094D02*
X1240945Y1269685D01*
Y1272441*
X1247244D02*
Y1275394D01*
X1248425Y1276575*
X1252953*
X1253740Y1277362*
Y1279528*
X1261417Y1269488D02*
Y1272441D01*
X1258268D02*
Y1277165D01*
X1261024Y1279921*
Y1287008*
X1262008*
X1259843Y1272441D02*
Y1276378D01*
X1262992Y1279528*
Y1272441D02*
Y1275197D01*
X1266339Y1278543*
Y1279921*
X1270472Y1267717D02*
X1270866Y1268110D01*
Y1271063*
X1271457Y1271654*
X1264567Y1272441D02*
Y1274213D01*
X1269094Y1278740*
Y1285236*
X1270472Y1286614*
X1273622*
X1267717Y1269291D02*
X1268701D01*
Y1276181*
X1271260Y1278740*
X1273622*
X1275803Y1271850D02*
Y1271654D01*
X1277362*
X1222441Y1279724D02*
Y1278346D01*
X1225197Y1275591*
Y1272441*
X1218504Y1282677D02*
X1219291D01*
X1231890Y1285433D02*
X1233055D01*
X1233252Y1285236*
X1232087Y1281890D02*
X1233071Y1282874D01*
X1233252*
X1242504Y1277362D02*
X1242520Y1277346D01*
Y1272441*
X1235236Y1281102D02*
X1235433Y1281299D01*
X1235236Y1282874D02*
X1235433D01*
Y1281299*
X1235236Y1282874D02*
Y1286811D01*
X1271654Y1282677D02*
X1273622D01*
X1237598Y1296063D02*
X1238583Y1296457D01*
X1270276Y1290551D02*
X1273622D01*
X1223031Y1279724D02*
Y1278380D01*
X1226772Y1274640*
Y1272047*
X1225197*
Y1275557*
X1221850Y1278903*
Y1279724*
X1223031*
X1229921Y1269488D02*
X1233071D01*
Y1268701*
X1229921*
Y1269488*
X1268110Y1250197D02*
X1273622D01*
Y1249213*
X1268110*
Y1250197*
X1219882Y1270506D02*
X1220506Y1269882D01*
X1221654*
Y1269291*
X1219488*
Y1270113*
X1219882Y1270506*
X1223622Y1306102D02*
X1229134D01*
Y1304331*
X1223622*
Y1306102*
X1225197Y1274172D02*
X1226772D01*
X1225197Y1273463D02*
X1226772D01*
X1225197Y1272755D02*
X1226772D01*
X1225197Y1274881D02*
X1226531D01*
X1225164Y1275589D02*
X1225822D01*
X1224456Y1276298D02*
X1225114D01*
X1223747Y1277007D02*
X1224405D01*
X1223038Y1277715D02*
X1223697D01*
X1221850Y1279133D02*
X1223031D01*
X1222330Y1278424D02*
X1223031D01*
X1229921Y1269408D02*
X1233071D01*
X1268110Y1249920D02*
X1273622D01*
X1219488Y1269999D02*
X1220389D01*
X1223622Y1305747D02*
X1229134D01*
X1223622Y1305038D02*
X1229134D01*
X1262598Y1190945D02*
G75*
G03X1262598I-2559J0D01*
G01X1285039Y1185630D02*
Y1313976D01*
G03X1284646Y1314370I-393J0*
G01X1278857*
G03X1278472Y1313898I0J-394*
G01X1275000Y1309646D02*
G03X1278472Y1313898I0J3543D01*
G01X1275000Y1309646D02*
X1267126D01*
X1263654Y1313898D02*
G03X1267126Y1309646I3472J-709D01*
G01X1263654Y1313898D02*
G03X1263268Y1314370I-386J78D01*
G01X1263268D02*
X1215158D01*
X1215158D02*
G03X1214764Y1313976I-0J-394D01*
G01Y1304008*
G03X1214767Y1303958I394J-0*
G01X1214780Y1303759D02*
G03X1214767Y1303958I-1575J0D01*
G01X1214780Y1303759D02*
Y1301359D01*
X1214767Y1301160D02*
G03X1214780Y1301359I-1562J199D01*
G01X1214767Y1301160D02*
G03X1214764Y1301111I391J-49D01*
G01Y1300071*
G03X1214767Y1300021I394J-0*
G01X1214780Y1299822D02*
G03X1214767Y1300021I-1575J0D01*
G01X1214780Y1299822D02*
Y1297422D01*
X1214767Y1297223D02*
G03X1214780Y1297422I-1562J199D01*
G01X1214767Y1297223D02*
G03X1214764Y1297174I391J-49D01*
G01Y1296778*
G03X1214807Y1296599I394J-0*
G01X1214980Y1295882D02*
G03X1214807Y1296599I-1575J-0D01*
G01X1214980Y1295882D02*
Y1295479D01*
G03X1215759Y1295402I393J-0*
G01X1215855Y1295712D02*
G03X1215759Y1295402I1449J-618D01*
G01X1215855Y1295712D02*
G03Y1296020I-362J154D01*
G01X1215729Y1296638D02*
G03X1215855Y1296020I1575J-0D01*
G01X1215729Y1296638D02*
Y1298638D01*
X1217304Y1300213D02*
G03X1215729Y1298638I-0J-1575D01*
G01X1217304Y1300213D02*
X1219704D01*
X1221279Y1298638D02*
G03X1219704Y1300213I-1575J-0D01*
G01X1221279Y1298638D02*
Y1296638D01*
X1221153Y1296020D02*
G03X1221279Y1296638I-1449J618D01*
G01X1221153Y1296020D02*
G03Y1295712I362J-154D01*
G01X1221279Y1295094D02*
G03X1221153Y1295712I-1575J0D01*
G01X1221279Y1295094D02*
Y1293913D01*
G03X1221672Y1293520I393J0*
G01X1223409*
G03X1223803Y1293913I0J393*
G01Y1295098*
X1223928Y1295712D02*
G03X1223803Y1295098I1450J-614D01*
G01X1223928Y1295712D02*
G03Y1296020I-362J154D01*
G01X1223803Y1296635D02*
G03X1223928Y1296020I1575J-0D01*
G01X1223803Y1296635D02*
Y1299035D01*
X1223928Y1299649D02*
G03X1223803Y1299035I1450J-614D01*
G01X1223928Y1299649D02*
G03Y1299957I-362J154D01*
G01X1223803Y1300572D02*
G03X1223928Y1299957I1575J-0D01*
G01X1223803Y1300572D02*
Y1301978D01*
G03X1223445Y1302370I-394J0*
G01X1221654Y1304331D02*
G03X1223445Y1302370I1968J-0D01*
G01X1221654Y1304331D02*
Y1306102D01*
X1223458Y1308064D02*
G03X1221654Y1306102I164J-1962D01*
G01X1223458Y1308064D02*
G03X1223819Y1308456I-33J392D01*
G01Y1309449*
X1225394Y1311024D02*
G03X1223819Y1309449I-0J-1575D01*
G01X1225394Y1311024D02*
X1228937D01*
X1229882Y1310709D02*
G03X1228937Y1311024I-945J-1260D01*
G01X1229882Y1310709D02*
G03X1230354I236J315D01*
G01X1231299Y1311024D02*
G03X1230354Y1310709I0J-1575D01*
G01X1231299Y1311024D02*
X1234843D01*
X1236417Y1309449D02*
G03X1234843Y1311024I-1574J-0D01*
G01X1236417Y1309449D02*
Y1305906D01*
X1234843Y1304331D02*
G03X1236417Y1305906I-0J1575D01*
G01X1234843Y1304331D02*
X1231463D01*
G03X1231075Y1304003I0J-394*
G01X1229311Y1302370D02*
G03X1231075Y1304003I-177J1961D01*
G01X1229311Y1302370D02*
G03X1228953Y1301978I35J-392D01*
G01Y1300572*
X1228828Y1299957D02*
G03X1228953Y1300572I-1450J615D01*
G01X1228828Y1299957D02*
G03Y1299649I362J-154D01*
G01X1228953Y1299035D02*
G03X1228828Y1299649I-1575J-0D01*
G01X1228953Y1299035D02*
Y1296635D01*
X1228828Y1296020D02*
G03X1228953Y1296635I-1450J615D01*
G01X1228828Y1296020D02*
G03Y1295712I362J-154D01*
G01X1228953Y1295098D02*
G03X1228828Y1295712I-1575J-0D01*
G01X1228953Y1295098D02*
Y1292698D01*
X1228828Y1292083D02*
G03X1228953Y1292698I-1450J615D01*
G01X1228828Y1292083D02*
G03Y1291775I362J-154D01*
G01X1228953Y1291161D02*
G03X1228828Y1291775I-1575J-0D01*
G01X1228953Y1291161D02*
Y1288761D01*
X1228828Y1288146D02*
G03X1228953Y1288761I-1450J615D01*
G01X1228828Y1288146D02*
G03Y1287838I362J-154D01*
G01X1228953Y1287224D02*
G03X1228828Y1287838I-1575J-0D01*
G01X1228953Y1287224D02*
Y1284824D01*
X1228783Y1284112D02*
G03X1228953Y1284824I-1405J712D01*
G01X1228783Y1284112D02*
G03X1228740Y1283934I351J-178D01*
G01Y1281814*
G03X1228783Y1281636I394J0*
G01X1228881Y1281394D02*
G03X1228783Y1281636I-1503J-470D01*
G01X1228881Y1281394D02*
G03X1229257Y1281118I376J118D01*
G01X1230748*
G03X1231134Y1281433I0J394*
G01X1231167Y1281564D02*
G03X1231134Y1281433I1510J-446D01*
G01X1231167Y1281564D02*
G03X1231164Y1281797I-378J111D01*
G01X1231087Y1282283D02*
G03X1231164Y1281797I1574J0D01*
G01X1231087Y1282283D02*
Y1283465D01*
X1231159Y1283937D02*
G03X1231087Y1283465I1502J-472D01*
G01X1231159Y1283937D02*
G03Y1284173I-375J118D01*
G01X1231087Y1284646D02*
G03X1231159Y1284173I1574J-0D01*
G01X1231087Y1284646D02*
Y1285827D01*
X1231740Y1287104D02*
G03X1231087Y1285827I921J-1277D01*
G01X1231740Y1287104D02*
G03X1231897Y1287494I-230J319D01*
G01X1231871Y1287780D02*
G03X1231897Y1287494I1575J-0D01*
G01X1231871Y1287780D02*
Y1289780D01*
X1233446Y1291354D02*
G03X1231871Y1289780I-0J-1574D01*
G01X1233446Y1291354D02*
X1235138D01*
G03X1235531Y1291748I-0J394*
G01Y1296063*
X1235932Y1297285D02*
G03X1235531Y1296063I1666J-1222D01*
G01X1235932Y1297285D02*
G03X1236008Y1297518I-318J233D01*
G01Y1297657*
X1236133Y1298271D02*
G03X1236008Y1297657I1450J-614D01*
G01X1236133Y1298272D02*
G03Y1298579I-363J153D01*
G01X1236008Y1299194D02*
G03X1236133Y1298579I1575J-0D01*
G01X1236008Y1299194D02*
Y1301594D01*
X1237583Y1303169D02*
G03X1236008Y1301594I-0J-1575D01*
G01X1237583Y1303169D02*
X1239583D01*
X1240089Y1303085D02*
G03X1239583Y1303169I-506J-1491D01*
G01X1240089Y1303085D02*
G03X1240516Y1303203I126J373D01*
G01X1241717Y1303759D02*
G03X1240516Y1303203I-0J-1575D01*
G01X1241717Y1303759D02*
X1243717D01*
X1245291Y1302184D02*
G03X1243717Y1303759I-1574J0D01*
G01X1245291Y1302184D02*
Y1299784D01*
X1245290Y1299723D02*
G03X1245291Y1299784I-1573J61D01*
G01X1245290Y1299723D02*
G03X1245563Y1299333I394J-15D01*
G01X1246654Y1297835D02*
G03X1245563Y1299333I-1575J-0D01*
G01X1246654Y1297835D02*
Y1292323D01*
X1246339Y1291378D02*
G03X1246654Y1292323I-1260J945D01*
G01X1246339Y1291378D02*
G03X1246654Y1290748I315J-236D01*
G01X1251378*
X1252876Y1289658D02*
G03X1251378Y1290748I-1498J-485D01*
G01X1252876Y1289658D02*
G03X1253251Y1289386I375J122D01*
G01X1254948*
G03X1255338Y1289728I-0J394*
G01X1258953Y1291981D02*
G03X1255338Y1289728I-882J-2611D01*
G01X1258953Y1291981D02*
G03X1259464Y1292272I126J373D01*
G01X1261005Y1293520D02*
G03X1259464Y1292272I-0J-1575D01*
G01X1261005Y1293520D02*
X1263405D01*
X1264980Y1291945D02*
G03X1263405Y1293520I-1575J-0D01*
G01X1264980Y1291945D02*
Y1289945D01*
X1264622Y1288946D02*
G03X1264980Y1289945I-1217J999D01*
G01X1264622Y1288946D02*
G03X1265141Y1288367I305J-249D01*
G01X1267677Y1288511D02*
G03X1265141Y1288367I-1142J-2291D01*
G01X1267677Y1288511D02*
G03X1268176Y1289088I176J352D01*
G01X1271241Y1292921D02*
G03X1268176Y1289088I-965J-2370D01*
G01X1271241Y1292921D02*
G03X1271636Y1292979I148J365D01*
G01X1272622Y1293326D02*
G03X1271636Y1292979I0J-1575D01*
G01X1272622Y1293326D02*
X1274622D01*
X1275397Y1293122D02*
G03X1274622Y1293326I-775J-1371D01*
G01X1275397Y1293122D02*
G03X1275784I194J343D01*
G01X1276559Y1293326D02*
G03X1275784Y1293122I0J-1575D01*
G01X1276559Y1293326D02*
X1278559D01*
X1280134Y1291751D02*
G03X1278559Y1293326I-1575J0D01*
G01X1280134Y1291751D02*
Y1289392D01*
G03X1280394Y1289022I394J0*
G01Y1284206D02*
G03Y1289022I-866J2408D01*
G01Y1284206D02*
G03X1280134Y1283836I134J-370D01*
G01Y1281518*
G03X1280394Y1281148I394J0*
G01X1279466Y1276182D02*
G03X1280394Y1281148I62J2558D01*
G01X1279466Y1276182D02*
G03X1279277Y1276139I-9J-394D01*
G01X1278559Y1275965D02*
G03X1279277Y1276139I0J1575D01*
G01X1278559Y1275965D02*
X1276559D01*
X1275784Y1276169D02*
G03X1276559Y1275965I775J1371D01*
G01X1275784Y1276169D02*
G03X1275397I-193J-343D01*
G01X1274622Y1275965D02*
G03X1275397Y1276169I0J1575D01*
G01X1274622Y1275965D02*
X1273486D01*
G03X1273198Y1275303I0J-393*
G01X1273615Y1274373D02*
G03X1273198Y1275303I-1568J-145D01*
G01X1273615Y1274373D02*
G03X1274007Y1274016I392J36D01*
G01X1274409*
X1274731Y1273983D02*
G03X1274409Y1274016I-322J-1542D01*
G01X1274731Y1273983D02*
G03X1274891I80J385D01*
G01X1275213Y1274016D02*
G03X1274891Y1273983I-0J-1575D01*
G01X1275213Y1274016D02*
X1276394D01*
X1277969Y1272441D02*
G03X1276394Y1274016I-1575J-0D01*
G01X1277969Y1272441D02*
Y1271260D01*
X1276709Y1269717D02*
G03X1277969Y1271260I-315J1543D01*
G01X1276709Y1269717D02*
G03X1276394Y1269331I78J-386D01*
G01Y1267304*
X1276269Y1266689D02*
G03X1276394Y1267304I-1450J615D01*
G01X1276269Y1266689D02*
G03Y1266382I362J-154D01*
G01X1276394Y1265767D02*
G03X1276269Y1266382I-1575J-0D01*
G01X1276394Y1265767D02*
Y1263367D01*
X1276364Y1263064D02*
G03X1276394Y1263367I-1545J303D01*
G01X1276364Y1263064D02*
G03X1276642Y1262609I387J-76D01*
G01X1277781Y1261096D02*
G03X1276642Y1262609I-1575J0D01*
G01X1277781Y1261096D02*
Y1257896D01*
X1277313Y1256776D02*
G03X1277781Y1257896I-1107J1120D01*
G01X1277313Y1256776D02*
G03Y1256216I277J-280D01*
G01X1277463Y1256046D02*
G03X1277313Y1256216I-1257J-950D01*
G01X1277463Y1256046D02*
G03X1277848Y1255896I314J237D01*
G01X1278131Y1255921D02*
G03X1277848Y1255896I-0J-1575D01*
G01X1278131Y1255921D02*
X1280531D01*
X1282106Y1254346D02*
G03X1280531Y1255921I-1575J0D01*
G01X1282106Y1254346D02*
Y1252346D01*
X1280531Y1250772D02*
G03X1282106Y1252346I-0J1574D01*
G01X1280531Y1250772D02*
X1278559D01*
G03X1278165Y1250378I0J-394*
G01Y1249409*
X1278093Y1248937D02*
G03X1278165Y1249409I-1502J472D01*
G01X1278093Y1248937D02*
G03Y1248701I375J-118D01*
G01X1278165Y1248228D02*
G03X1278093Y1248701I-1574J0D01*
G01X1278165Y1248228D02*
Y1247047D01*
X1278086Y1246555D02*
G03X1278165Y1247047I-1495J492D01*
G01X1278086Y1246555D02*
G03X1278083Y1246319I374J-123D01*
G01X1278150Y1245866D02*
G03X1278083Y1246319I-1575J0D01*
G01X1278150Y1245866D02*
Y1244685D01*
X1278083Y1244233D02*
G03X1278150Y1244685I-1508J452D01*
G01X1278083Y1244233D02*
G03X1278086Y1243996I377J-113D01*
G01X1278165Y1243504D02*
G03X1278086Y1243996I-1574J-0D01*
G01X1278165Y1243504D02*
Y1242323D01*
X1276591Y1240748D02*
G03X1278165Y1242323I-0J1575D01*
G01X1276591Y1240748D02*
X1275409D01*
X1275088Y1240781D02*
G03X1275409Y1240748I321J1542D01*
G01X1275088Y1240781D02*
G03X1274928I-80J-385D01*
G01X1274606Y1240748D02*
G03X1274928Y1240781I0J1575D01*
G01X1274606Y1240748D02*
X1273425D01*
X1273347Y1240750D02*
G03X1273425Y1240748I78J1573D01*
G01X1273347Y1240750D02*
G03X1273131Y1240698I-19J-393D01*
G01X1271256Y1240424D02*
G03X1273131Y1240698I594J2489D01*
G01X1271256Y1240424D02*
G03X1270786Y1239932I-91J-383D01*
G01X1270791Y1238825D02*
G03X1270786Y1239932I-1943J545D01*
G01X1270791Y1238825D02*
G03X1271349Y1238367I379J-107D01*
G01X1271987Y1238566D02*
G03X1271349Y1238367I257J-1952D01*
G01X1271987Y1238566D02*
G03X1272116Y1238606I-51J390D01*
G01X1272835Y1238780D02*
G03X1272116Y1238606I-0J-1575D01*
G01X1272835Y1238780D02*
X1274016D01*
X1274337Y1238746D02*
G03X1274016Y1238780I-321J-1541D01*
G01X1274337Y1238746D02*
G03X1274498I80J386D01*
G01X1274819Y1238780D02*
G03X1274498Y1238746I-0J-1575D01*
G01X1274819Y1238780D02*
X1276000D01*
X1277575Y1237205D02*
G03X1276000Y1238780I-1575J-0D01*
G01X1277575Y1237205D02*
Y1236024D01*
X1276762Y1234646D02*
G03X1277575Y1236024I-762J1378D01*
G01X1276762Y1234646D02*
G03X1276693Y1234006I191J-345D01*
G01X1274779Y1229537D02*
G03X1276693Y1234006I221J2550D01*
G01X1274779Y1229537D02*
G03X1274427Y1228913I-34J-392D01*
G01X1274803Y1227756D02*
G03X1274427Y1228913I-1968J-0D01*
G01X1274803Y1227756D02*
Y1220214D01*
G03X1274987Y1219881I394J0*
G01X1276134Y1218205D02*
G03X1274987Y1219881I-2512J-488D01*
G01X1276134Y1218205D02*
G03X1276370Y1217917I386J76D01*
G01X1277851Y1214836D02*
G03X1276370Y1217917I-2457J715D01*
G01X1277851Y1214836D02*
G03X1277941Y1214458I378J-110D01*
G01X1278362Y1213386D02*
G03X1277941Y1214458I-1575J-0D01*
G01X1278362Y1213386D02*
Y1212205D01*
X1278294Y1211745D02*
G03X1278362Y1212205I-1507J460D01*
G01X1278294Y1211745D02*
G03X1278670Y1211236I376J-115D01*
G01X1279546*
X1281121Y1209661D02*
G03X1279546Y1211236I-1575J0D01*
G01X1281121Y1209661D02*
Y1207661D01*
X1280917Y1206887D02*
G03X1281121Y1207661I-1371J774D01*
G01X1280917Y1206887D02*
G03Y1206499I343J-194D01*
G01X1281121Y1205724D02*
G03X1280917Y1206499I-1575J0D01*
G01X1281121Y1205724D02*
Y1203724D01*
X1280683Y1202635D02*
G03X1281121Y1203724I-1137J1089D01*
G01X1280683Y1202635D02*
G03Y1202090I285J-273D01*
G01X1281121Y1201000D02*
G03X1280683Y1202090I-1575J0D01*
G01X1281121Y1201000D02*
Y1199000D01*
X1280917Y1198225D02*
G03X1281121Y1199000I-1371J775D01*
G01X1280917Y1198225D02*
G03Y1197838I343J-194D01*
G01X1281121Y1197063D02*
G03X1280917Y1197838I-1575J-0D01*
G01X1281121Y1197063D02*
Y1195063D01*
X1279546Y1193488D02*
G03X1281121Y1195063I0J1575D01*
G01X1279546Y1193488D02*
X1277165D01*
G03X1276772Y1193094I0J-394*
G01Y1192697*
X1275197Y1191122D02*
G03X1276772Y1192697I-0J1575D01*
G01X1275197Y1191122D02*
X1271260D01*
X1270496Y1191320D02*
G03X1271260Y1191122I764J1377D01*
G01X1270496Y1191320D02*
G03X1270249Y1191365I-191J-345D01*
G01X1270053Y1191344D02*
G03X1270249Y1191365I-171J2554D01*
G01X1270053Y1191344D02*
G03X1269685Y1190951I26J-393D01*
G01X1269685*
Y1190944*
X1266955Y1193498D02*
G03X1269685Y1190944I171J-2553D01*
G01X1266955Y1193498D02*
G03X1267323Y1193891I-26J393D01*
G01Y1193892*
Y1193898*
X1268204Y1195830D02*
G03X1267323Y1193898I1678J-1932D01*
G01X1268204Y1195830D02*
G03X1267784Y1196486I-258J297D01*
G01X1265318Y1196686D02*
G03X1267784Y1196486I1414J2133D01*
G01X1265318Y1196686D02*
G03X1265100Y1196752I-218J-328D01*
G01X1245144*
G03X1244855Y1196626I0J-394*
G01X1243701Y1196122D02*
G03X1244855Y1196626I-0J1575D01*
G01X1243701Y1196122D02*
X1240158D01*
X1240158D02*
G03X1239764Y1195728I-0J-394D01*
G01Y1193257*
G03X1240000Y1192897I394J0*
G01X1238101Y1188146D02*
G03X1240000Y1192897I875J2405D01*
G01X1238101Y1188146D02*
G03X1237734Y1188094I-134J-370D01*
G01X1234412Y1188347D02*
G03X1237734Y1188094I1808J1810D01*
G01X1234412Y1188347D02*
G03X1234044Y1188452I-279J-278D01*
G01X1231299Y1189581D02*
G03X1234044Y1188452I2166J1364D01*
G01X1231299Y1189581D02*
G03X1230958Y1189764I-333J-210D01*
G01X1228552Y1191318D02*
G03X1230958Y1189764I2354J1005D01*
G01X1228552Y1191318D02*
G03X1228237Y1191554I-362J-155D01*
G01X1225986Y1194180D02*
G03X1228237Y1191554I2557J-86D01*
G01X1225986Y1194180D02*
G03X1225592Y1194587I-394J13D01*
G01X1222119*
G03X1221797Y1194419I-0J-394*
G01X1221428Y1193976D02*
G03X1221797Y1194419I-2530J2481D01*
G01X1221428Y1193976D02*
G03Y1193425I281J-275D01*
G01X1215364Y1190689D02*
G03X1221428Y1193425I3534J256D01*
G01X1215364Y1190689D02*
G03X1214865Y1191040I-393J-28D01*
G01X1212126Y1195039D02*
G03X1214865Y1191040I2047J-1535D01*
G01X1212126Y1195039D02*
G03X1212205Y1195276I-315J237D01*
G01Y1198031*
G03X1211575Y1198346I-394J0*
G01X1207411Y1198282D02*
G03X1211575Y1198346I2038J2899D01*
G01X1207411Y1198282D02*
G03X1206791Y1197960I-226J-322D01*
G01Y1193378*
G03X1206962Y1193053I394J-0*
G01X1204318Y1188682D02*
G03X1206962Y1193053I1194J2263D01*
G01X1204318Y1188682D02*
G03X1203950I-184J-349D01*
G01X1200623Y1192359D02*
G03X1203950Y1188682I2133J-1414D01*
G01X1200623Y1192359D02*
G03X1200689Y1192577I-328J218D01*
G01Y1198276*
G03X1200030Y1198567I-394J0*
G01X1195853Y1198120D02*
G03X1200030Y1198567I1785J3061D01*
G01X1195853Y1198120D02*
G03X1195368Y1198050I-198J-340D01*
G01X1192139Y1201968D02*
G03X1195368Y1198050I1365J-2165D01*
G01X1192139Y1201968D02*
G03X1192323Y1202301I-210J333D01*
G01Y1203570*
G03X1191982Y1203960I-394J-0*
G01X1191043Y1208712D02*
G03X1191982Y1203960I1280J-2216D01*
G01X1191043Y1208712D02*
G03X1191240Y1209053I-197J341D01*
G01Y1210448*
G03X1190886Y1210840I-394J-0*
G01X1189862Y1215602D02*
G03X1190886Y1210840I1280J-2216D01*
G01X1189862Y1215602D02*
G03X1190059Y1215943I-197J341D01*
G01Y1216970*
G03X1189731Y1217359I-394J0*
G01X1188707Y1221990D02*
G03X1189731Y1217359I1450J-2108D01*
G01X1188707Y1221990D02*
G03X1188878Y1222315I-223J325D01*
G01Y1226969*
X1189426Y1228291D02*
G03X1188878Y1226969I1322J-1322D01*
G01X1189426Y1228291D02*
X1200056Y1238921D01*
X1201378Y1239469D02*
G03X1200056Y1238921I-0J-1871D01*
G01X1201378Y1239469D02*
X1206134D01*
G03X1206234Y1240243I-0J393*
G01X1205613Y1240499D02*
G03X1206234Y1240243I1277J2218D01*
G01X1205613Y1240499D02*
G03X1205417Y1240551I-196J-342D01*
G01X1205315*
X1204724*
X1203150Y1242126D02*
G03X1204724Y1240551I1574J-0D01*
G01X1203150Y1242126D02*
Y1243307D01*
X1203183Y1243628D02*
G03X1203150Y1243307I1541J-321D01*
G01X1203183Y1243628D02*
G03Y1243789I-386J81D01*
G01X1203150Y1244110D02*
G03X1203183Y1243789I1574J0D01*
G01X1203150Y1244110D02*
Y1245291D01*
X1204724Y1246866D02*
G03X1203150Y1245291I0J-1575D01*
G01X1204724Y1246866D02*
X1205906D01*
X1207407Y1245766D02*
G03X1205906Y1246866I-1501J-475D01*
G01X1207407Y1245766D02*
G03X1207782Y1245491I375J119D01*
G01X1208646*
G03X1209039Y1245885I-0J394*
G01Y1246457*
X1209112Y1246929D02*
G03X1209039Y1246457I1502J-472D01*
G01X1209112Y1246929D02*
G03Y1247165I-376J118D01*
G01X1209039Y1247638D02*
G03X1209112Y1247165I1575J-0D01*
G01X1209039Y1247638D02*
Y1248819D01*
X1209984Y1250262D02*
G03X1209039Y1248819I630J-1443D01*
G01X1209984Y1250262D02*
G03X1210220Y1250623I-157J361D01*
G01Y1252343*
G03X1209827Y1252737I-393J0*
G01X1207858*
X1207798Y1252738D02*
G03X1207858Y1252737I60J1574D01*
G01X1207798Y1252738D02*
G03X1207407Y1252463I-15J-393D01*
G01X1205906Y1251362D02*
G03X1207407Y1252463I-0J1575D01*
G01X1205906Y1251362D02*
X1204724D01*
X1201772*
X1200572*
X1199302Y1252005D02*
G03X1200572Y1251362I1270J932D01*
G01X1199302Y1252005D02*
G03X1198985Y1252165I-317J-233D01*
G01X1197638*
X1197047*
X1196726Y1252198D02*
G03X1197047Y1252165I321J1542D01*
G01X1196726Y1252198D02*
G03X1196565I-80J-385D01*
G01X1196244Y1252165D02*
G03X1196565Y1252198I0J1575D01*
G01X1196244Y1252165D02*
X1195669D01*
X1195654*
X1195063*
X1193488Y1253740D02*
G03X1195063Y1252165I1575J0D01*
G01X1193488Y1253740D02*
Y1254263D01*
G03X1193438Y1254456I-394J0*
G01X1193110Y1255673D02*
G03X1193438Y1254456I2559J36D01*
G01X1193110Y1255673D02*
X1193107Y1255911D01*
G03X1192713Y1256299I-394J-6*
G01X1191717*
X1190142Y1257874D02*
G03X1191717Y1256299I1575J0D01*
G01X1190142Y1257874D02*
Y1259055D01*
X1191717Y1260630D02*
G03X1190142Y1259055I-0J-1575D01*
G01X1191717Y1260630D02*
X1192699D01*
G03X1193092Y1261020I-0J394*
G01X1193093Y1261130*
G03X1193054Y1261304I-393J3*
G01X1192898Y1261989D02*
G03X1193054Y1261304I1574J-0D01*
G01X1192898Y1261989D02*
Y1264389D01*
X1192904Y1264531D02*
G03X1192898Y1264389I1568J-142D01*
G01X1192904Y1264531D02*
G03X1192512Y1264961I-392J36D01*
G01X1191929*
X1191651Y1265076D02*
G03X1191929Y1264961I278J278D01*
G01X1191651Y1265076D02*
X1187911Y1268816D01*
X1187795Y1269094D02*
G03X1187911Y1268816I394J0D01*
G01X1187795Y1269094D02*
Y1282283D01*
G03X1187402Y1282677I-393J0*
G01X1185827*
G03X1185433Y1282283I-0J-394*
G01Y1188491*
G03X1186161Y1188284I394J0*
G01X1189173Y1189961D02*
G03X1186161Y1188284I0J-3544D01*
G01X1189173Y1189961D02*
X1197047D01*
X1200519Y1185709D02*
G03X1197047Y1189961I-3472J708D01*
G01X1200519Y1185709D02*
G03X1200905Y1185236I386J-79D01*
G01X1268780*
G03X1269166Y1185709I0J394*
G01X1272638Y1189961D02*
G03X1269166Y1185709I-0J-3544D01*
G01X1272638Y1189961D02*
X1280512D01*
X1283984Y1185709D02*
G03X1280512Y1189961I-3472J708D01*
G01X1283984Y1185709D02*
G03X1284369Y1185236I385J-79D01*
G01X1284646*
G03X1285039Y1185630I-0J394*
G01X1210427Y1215413D02*
G03X1210801Y1216083I109J379D01*
G01X1210482Y1220987D02*
G03X1210801Y1216083I2707J-2286D01*
G01X1210482Y1220987D02*
G03X1210181Y1221635I-301J254D01*
G01X1208252*
X1207398Y1221886D02*
G03X1208252Y1221635I854J1323D01*
G01X1207398Y1221886D02*
G03X1206791Y1221555I-213J-331D01*
G01Y1215229*
G03X1207411Y1214907I394J-0*
G01X1210427Y1215413D02*
G03X1207411Y1214907I-978J-3405D01*
G01X1208034Y1231303D02*
G03X1207980Y1232087I-54J390D01*
G01X1203734*
G03X1203456Y1231971I0J-394*
G01X1196375Y1224890*
G03X1196260Y1224612I279J-278*
G01Y1204993*
G03X1196752Y1204612I394J0*
G01X1200030Y1203795D02*
G03X1196752Y1204612I-2392J-2614D01*
G01X1200030Y1203795D02*
G03X1200689Y1204086I265J291D01*
G01Y1223622*
X1201294Y1225084D02*
G03X1200689Y1223622I1462J-1462D01*
G01X1201294Y1225084D02*
X1206216Y1230005D01*
X1206729Y1230380D02*
G03X1206216Y1230005I948J-1837D01*
G01X1206729Y1230380D02*
G03X1206889Y1230533I-181J350D01*
G01X1208034Y1231303D02*
G03X1206889Y1230533I218J-1560D01*
G01X1207087Y1306496D02*
Y1313976D01*
G03X1206693Y1314370I-394J0*
G01X1205432*
G03X1205047Y1313898I0J-394*
G01X1201575Y1309646D02*
G03X1205047Y1313898I-0J3543D01*
G01X1201575Y1309646D02*
X1193701D01*
X1190229Y1313898D02*
G03X1193701Y1309646I3472J-709D01*
G01X1190229Y1313898D02*
G03X1189843Y1314370I-386J78D01*
G01X1185827*
G03X1185433Y1313976I-0J-394*
G01Y1290158*
X1185433D02*
G03X1185827Y1289764I394J-0D01*
G01X1190748*
X1191026Y1289648D02*
G03X1190748Y1289764I-278J-278D01*
G01X1191026Y1289648D02*
X1194570Y1286105D01*
X1194685Y1285827D02*
G03X1194570Y1286105I-394J-0D01*
G01X1194685Y1285827D02*
Y1282729D01*
G03X1194688Y1282679I394J-0*
G01X1194701Y1282480D02*
G03X1194688Y1282679I-1575J0D01*
G01X1194701Y1282480D02*
Y1282283D01*
G03X1195095Y1281890I394J0*
G01X1205315*
G03X1205709Y1282283I-0J393*
G01Y1289049*
G03X1205665Y1289228I-394J-0*
G01X1205493Y1289945D02*
G03X1205665Y1289228I1575J-0D01*
G01X1205493Y1289945D02*
Y1291945D01*
X1205665Y1292662D02*
G03X1205493Y1291945I1403J-717D01*
G01X1205665Y1292662D02*
G03X1205709Y1292841I-350J179D01*
G01Y1292986*
G03X1205665Y1293165I-394J-0*
G01X1205493Y1293882D02*
G03X1205665Y1293165I1575J-0D01*
G01X1205493Y1293882D02*
Y1295882D01*
X1205665Y1296599D02*
G03X1205493Y1295882I1403J-717D01*
G01X1205665Y1296599D02*
G03X1205709Y1296778I-350J179D01*
G01Y1305709*
X1206102Y1306102D02*
G03X1205709Y1305709I0J-393D01*
G01X1206102Y1306102D02*
X1206693D01*
G03X1207087Y1306496I-0J394*
G01X1215933Y1284452D02*
G03Y1284839I-343J194D01*
G01X1215729Y1285614D02*
G03X1215933Y1284839I1575J0D01*
G01X1215729Y1285614D02*
Y1287614D01*
X1215855Y1288231D02*
G03X1215729Y1287614I1449J-617D01*
G01X1215855Y1288232D02*
G03Y1288540I-362J154D01*
G01X1215729Y1289157D02*
G03X1215855Y1288540I1575J0D01*
G01X1215729Y1289157D02*
Y1289561D01*
G03X1214949Y1289638I-394J-0*
G01X1214807Y1289228D02*
G03X1214949Y1289638I-1402J717D01*
G01X1214807Y1289228D02*
G03X1214764Y1289049I351J-179D01*
G01Y1288653*
G03X1214767Y1288604I394J0*
G01X1214780Y1288405D02*
G03X1214767Y1288604I-1575J-0D01*
G01X1214780Y1288405D02*
Y1286005D01*
X1214767Y1285806D02*
G03X1214780Y1286005I-1562J199D01*
G01X1214767Y1285806D02*
G03X1214764Y1285756I391J-50D01*
G01Y1284716*
G03X1214767Y1284667I394J0*
G01X1214780Y1284468D02*
G03X1214767Y1284667I-1575J-0D01*
G01X1214780Y1284468D02*
Y1282480D01*
G03X1215173Y1282087I393J0*
G01X1215335*
G03X1215729Y1282480I0J393*
G01Y1283677*
X1215933Y1284452D02*
G03X1215729Y1283677I1371J-775D01*
G01X1215933Y1291932D02*
G03Y1292320I-343J194D01*
G01X1215729Y1293094D02*
G03X1215933Y1292320I1575J0D01*
G01X1215729Y1293094D02*
Y1293498D01*
G03X1214949Y1293575I-394J-0*
G01X1214807Y1293165D02*
G03X1214949Y1293575I-1402J717D01*
G01X1214807Y1293165D02*
G03X1214764Y1292986I351J-179D01*
G01Y1292841*
G03X1214807Y1292662I394J-0*
G01X1214980Y1291945D02*
G03X1214807Y1292662I-1575J-0D01*
G01X1214980Y1291945D02*
Y1291542D01*
G03X1215759Y1291465I393J-0*
G01X1215933Y1291932D02*
G03X1215759Y1291465I1371J-775D01*
G01X1226476Y1204232D02*
Y1205271D01*
G03X1225997Y1205655I-393J-0*
G01X1225591Y1205610D02*
G03X1225997Y1205655I-0J1870D01*
G01X1225591Y1205610D02*
X1221922D01*
G03X1221600Y1205443I-0J-393*
G01X1221231Y1205000D02*
G03X1221600Y1205443I-2530J2480D01*
G01X1221231Y1205000D02*
G03Y1204449I281J-276D01*
G01X1221600Y1204006D02*
G03X1221231Y1204449I-2899J-2037D01*
G01X1221600Y1204006D02*
G03X1221922Y1203839I322J226D01*
G01X1226083*
G03X1226476Y1204232I-0J393*
G01X1228051Y1198720D02*
Y1199759D01*
G03X1227572Y1200143I-394J-0*
G01X1227165Y1200098D02*
G03X1227572Y1200143I0J1871D01*
G01X1227165Y1200098D02*
X1221922D01*
G03X1221600Y1199931I-0J-393*
G01X1221317Y1199578D02*
G03X1221600Y1199931I-2616J2391D01*
G01X1221317Y1199578D02*
G03X1221336Y1199027I290J-265D01*
G01X1221797Y1198494D02*
G03X1221336Y1199027I-2899J-2037D01*
G01X1221797Y1198494D02*
G03X1222119Y1198327I322J226D01*
G01X1227657*
G03X1228051Y1198720I0J393*
G01X1223327Y1215256D02*
Y1216294D01*
G03X1222847Y1216679I-394J0*
G01X1222441Y1216634D02*
G03X1222847Y1216679I-0J1870D01*
G01X1222441Y1216634D02*
X1221922D01*
G03X1221600Y1216467I-0J-394*
G01X1221231Y1216024D02*
G03X1221600Y1216467I-2530J2480D01*
G01X1221231Y1216024D02*
G03Y1215472I281J-276D01*
G01X1221600Y1215030D02*
G03X1221231Y1215472I-2899J-2038D01*
G01X1221600Y1215030D02*
G03X1221922Y1214862I322J226D01*
G01X1222933*
G03X1223327Y1215256I0J394*
G01X1221752Y1221409D02*
Y1223234D01*
G03X1221728Y1223370I-394J0*
G01X1221604Y1224065D02*
G03X1221728Y1223370I2018J-0D01*
G01X1221604Y1224065D02*
Y1225935D01*
G03X1221211Y1226329I-393J0*
G01X1220962*
G03X1220884Y1226321I0J-394*
G01X1220472Y1226280D02*
G03X1220884Y1226321I0J2066D01*
G01X1220472Y1226280D02*
X1218933D01*
G03X1218654Y1226164I-0J-394*
G01X1215877Y1223386*
G03X1215762Y1223128I278J-278*
G01X1215307Y1222101D02*
G03X1215762Y1223128I-1118J1108D01*
G01X1215307Y1222101D02*
G03X1215347Y1221511I280J-278D01*
G01X1215760Y1221139D02*
G03X1215347Y1221511I-2571J-2438D01*
G01X1215760Y1221140D02*
G03X1216311Y1221120I285J270D01*
G01X1221093Y1221118D02*
G03X1216311Y1221120I-2392J-2614D01*
G01X1221093Y1221118D02*
G03X1221752Y1221409I265J291D01*
G01X1245394Y1290118D02*
G03X1245079Y1290748I-315J236D01*
G01X1241240*
G03X1240846Y1290354I0J-394*
G01Y1282953*
G03X1241292Y1282563I394J0*
G01X1241535Y1282579D02*
G03X1241292Y1282563I0J-1870D01*
G01X1241535Y1282579D02*
X1243407D01*
G03X1243738Y1282760I-0J393*
G01X1244494Y1283377D02*
G03X1243738Y1282760I569J-1468D01*
G01X1244494Y1283377D02*
G03X1244720Y1283605I-142J367D01*
G01X1245000Y1284114D02*
G03X1244720Y1283605I1654J-1240D01*
G01X1245000Y1284114D02*
G03X1245079Y1284350I-315J236D01*
G01Y1289173*
X1245394Y1290118D02*
G03X1245079Y1289173I1260J-945D01*
G01X1262344Y1200886D02*
G03X1262562Y1201608I0J394D01*
G01X1262441Y1201693D02*
G03X1262562Y1201608I1535J2047D01*
G01X1262441Y1201693D02*
G03X1262205Y1201772I-236J-315D01*
G01X1245162*
G03X1244870Y1201114I0J-394*
G01X1244936Y1201035D02*
G03X1244870Y1201114I-1235J-976D01*
G01X1244936Y1201035D02*
G03X1245245Y1200886I309J245D01*
G01X1262344*
X1262014Y1205709D02*
G03X1262292Y1206381I-0J393D01*
G01X1259334Y1209339*
G03X1258777I-279J-278*
G01X1257101Y1207663*
X1255709Y1207087D02*
G03X1257101Y1207663I-0J1968D01*
G01X1255709Y1207087D02*
X1250197D01*
X1245394*
G03X1245055Y1206894I0J-394*
G01X1244870Y1206642D02*
G03X1245055Y1206894I-1169J1055D01*
G01X1244870Y1206642D02*
G03Y1206114I292J-264D01*
G01X1245036Y1205894D02*
G03X1244870Y1206114I-1335J-835D01*
G01X1245036Y1205894D02*
G03X1245370Y1205709I334J208D01*
G01X1262014*
X1262992Y1212199D02*
Y1213461D01*
G03X1262480Y1213836I-394J-0*
G01X1262165Y1213772D02*
G03X1262480Y1213836I-157J1567D01*
G01X1262165Y1213772D02*
G03X1261811Y1213380I40J-392D01*
G01Y1212593*
G03X1261926Y1212314I394J-0*
G01X1262320Y1211921*
G03X1262992Y1212199I278J278*
G01X1256299Y1212593D02*
Y1213524D01*
G03X1255751Y1213887I-394J0*
G01X1255134Y1213761D02*
G03X1255751Y1213887I-0J1574D01*
G01X1255134Y1213761D02*
X1253134D01*
X1252674Y1213829D02*
G03X1253134Y1213761I460J1506D01*
G01X1252674Y1213829D02*
G03X1252165Y1213453I-115J-376D01*
G01Y1211417*
G03X1252559Y1211024I394J0*
G01X1254730*
G03X1255009Y1211139I0J393*
G01X1256184Y1212314*
G03X1256299Y1212593I-279J279*
G01Y1219678D02*
Y1221786D01*
G03X1255777Y1222158I-394J-0*
G01X1255582Y1222101D02*
G03X1255777Y1222158I-464J1964D01*
G01X1255582Y1222101D02*
G03X1255284Y1221657I91J-383D01*
G01X1254929Y1219908D02*
G03X1255284Y1221657I-2173J1352D01*
G01X1254929Y1219908D02*
G03X1255237Y1219307I334J-208D01*
G01X1255518Y1219263D02*
G03X1255237Y1219307I-384J-1528D01*
G01X1255518Y1219263D02*
G03X1255679Y1219256I96J381D01*
G01X1255932Y1219286D02*
G03X1255679Y1219256I170J-2554D01*
G01X1255932Y1219286D02*
G03X1256299Y1219678I-27J392D01*
G01X1242372Y1211634D02*
G03X1242706Y1212235I-0J394D01*
G01X1242611Y1214763D02*
G03X1242706Y1212235I2271J-1180D01*
G01X1242611Y1214763D02*
G03X1242262Y1215339I-349J182D01*
G01X1241535*
X1241063Y1215411D02*
G03X1241535Y1215339I472J1502D01*
G01X1241063Y1215411D02*
G03X1240827I-118J-375D01*
G01X1240354Y1215339D02*
G03X1240827Y1215411I0J1574D01*
G01X1240354Y1215339D02*
X1240158D01*
X1240158D02*
G03X1239764Y1214945I-0J-394D01*
G01Y1212028*
G03X1240158Y1211634I394J-0*
G01X1240158D02*
X1242372D01*
X1258858Y1253638D02*
Y1262523D01*
G03X1258743Y1262801I-393J-0*
G01X1257880Y1263664*
G03X1257601Y1263780I-279J-278*
G01X1235630*
X1234099Y1264414D02*
G03X1235630Y1263780I1531J1531D01*
G01X1234099Y1264414D02*
X1233115Y1265398D01*
X1232618Y1266170D02*
G03X1233115Y1265398I2028J759D01*
G01X1232618Y1266170D02*
G03X1232249Y1266425I-369J-139D01*
G01X1228051*
X1227657Y1266819D02*
G03X1228051Y1266425I394J-0D01*
G01X1227657Y1266819D02*
Y1268819D01*
X1227663Y1268885D02*
G03X1227657Y1268819I388J-66D01*
G01X1227663Y1268885D02*
G03X1227193Y1269336I-388J66D01*
G01X1226113Y1269402D02*
G03X1227193Y1269336I659J1907D01*
G01X1226113Y1269402D02*
G03X1225856I-129J-372D01*
G01X1224538D02*
G03X1225856I659J1907D01*
G01X1224538D02*
G03X1224281I-129J-372D01*
G01X1223951Y1269318D02*
G03X1224281Y1269402I-329J1991D01*
G01X1223951Y1269318D02*
G03X1223622Y1268930I65J-388D01*
G01Y1265354*
X1223596Y1265212D02*
G03X1223622Y1265354I-368J142D01*
G01X1223596Y1265212D02*
G03X1223578Y1264988I367J-142D01*
G01X1223511Y1263908D02*
G03X1223578Y1264988I-1907J659D01*
G01X1223511Y1263908D02*
G03Y1263651I373J-128D01*
G01Y1262333D02*
G03Y1263651I-1907J659D01*
G01Y1262333D02*
G03Y1262076I373J-128D01*
G01Y1260758D02*
G03Y1262076I-1907J659D01*
G01Y1260758D02*
G03Y1260501I373J-128D01*
G01Y1259184D02*
G03Y1260501I-1907J659D01*
G01Y1259184D02*
G03Y1258927I373J-129D01*
G01X1223611Y1258055D02*
G03X1223511Y1258927I-2007J213D01*
G01X1223611Y1258055D02*
G03X1223925Y1257628I391J-41D01*
G01X1225863Y1254339D02*
G03X1223925Y1257628I-2438J779D01*
G01X1225863Y1254339D02*
G03X1226166Y1253832I375J-120D01*
G01X1226488Y1253445D02*
G03X1226166Y1253832I-394J-0D01*
G01X1226488Y1253445D02*
Y1252742D01*
G03X1226736Y1252377I394J0*
G01X1227598Y1248191D02*
G03X1226736Y1252377I-1811J1809D01*
G01X1227598Y1248191D02*
G03X1227493Y1247824I278J-278D01*
G01X1227230Y1245989D02*
G03X1227493Y1247824I-2230J1255D01*
G01X1227230Y1245989D02*
G03X1227361Y1245464I343J-193D01*
G01X1228242Y1242103D02*
G03X1227361Y1245464I-2258J1204D01*
G01X1228242Y1242103D02*
G03X1228295Y1241656I347J-186D01*
G01X1228766Y1239042D02*
G03X1228295Y1241656I-2388J919D01*
G01X1228766Y1239042D02*
G03X1228740Y1238901I368J-141D01*
G01Y1234484*
G03X1229396Y1234191I394J0*
G01X1232379Y1234501D02*
G03X1229396Y1234191I-1277J-2218D01*
G01X1232379Y1234501D02*
G03X1232575Y1234449I196J342D01*
G01X1238386*
X1255436*
G03X1255714Y1234564I0J394*
G01X1256184Y1235034*
G03X1256299Y1235312I-279J278*
G01Y1247638*
X1256933Y1249169D02*
G03X1256299Y1247638I1532J-1531D01*
G01X1256933Y1249169D02*
X1258559Y1250794D01*
G03X1258646Y1251218I-279J279*
G01X1258806Y1253442D02*
G03X1258646Y1251218I2218J-1277D01*
G01X1258806Y1253442D02*
G03X1258858Y1253638I-341J196D01*
G01X1256299Y1275852D02*
Y1276418D01*
G03X1255545Y1276575I-394J0*
G01X1255307Y1276170D02*
G03X1255545Y1276575I-1567J1192D01*
G01X1255307Y1276170D02*
G03X1255538Y1275546I313J-238D01*
G01X1255777Y1275480D02*
G03X1255538Y1275546I-659J-1907D01*
G01X1255777Y1275480D02*
G03X1256299Y1275852I128J372D01*
G01X1251575Y1279528D02*
Y1281426D01*
G03X1251572Y1281475I-394J-0*
G01X1251559Y1281674D02*
G03X1251572Y1281475I1575J0D01*
G01X1251559Y1281674D02*
Y1281693D01*
G03X1251165Y1282087I-394J-0*
G01X1249114*
G03X1248720Y1281693I0J-394*
G01Y1280906*
X1248651Y1280374D02*
G03X1248720Y1280906I-1997J532D01*
G01X1248651Y1280374D02*
G03X1248638Y1280273I381J-101D01*
G01Y1279509*
X1248570Y1279051D02*
G03X1248638Y1279509I-1507J458D01*
G01X1248570Y1279051D02*
G03X1248947Y1278543I377J-114D01*
G01X1251181*
G03X1251575Y1278937I0J394*
G01Y1279528*
X1269547Y1196435D02*
G03X1269848Y1196999I-52J390D01*
G01X1269704Y1197450D02*
G03X1269848Y1196999I1556J247D01*
G01X1269704Y1197450D02*
G03X1268971Y1197579I-388J-61D01*
G01X1268410Y1196887D02*
G03X1268971Y1197579I-1678J1932D01*
G01X1268410Y1196887D02*
G03X1268830Y1196231I259J-297D01*
G01X1269547Y1196435D02*
G03X1268830Y1196231I335J-2537D01*
G01X1270091Y1201114D02*
G03Y1201642I-293J264D01*
G01X1269708Y1202429D02*
G03X1270091Y1201642I1552J268D01*
G01X1269708Y1202429D02*
G03X1269320Y1202756I-388J-67D01*
G01X1266732*
X1266614Y1202759D02*
G03X1266732Y1202756I118J1965D01*
G01X1266614Y1202759D02*
G03X1266242Y1202550I-24J-393D01*
G01X1265832Y1201978D02*
G03X1266242Y1202550I-1856J1762D01*
G01X1265832Y1201978D02*
G03X1266200Y1201322I286J-271D01*
G01X1268960Y1200078D02*
G03X1266200Y1201322I-2228J-1259D01*
G01X1268960Y1200078D02*
G03X1269694Y1200229I343J194D01*
G01X1270091Y1201114D02*
G03X1269694Y1200229I1169J-1055D01*
G01X1271662Y1211634D02*
G03X1272054Y1212063I-0J394D01*
G01X1272047Y1212205D02*
G03X1272054Y1212063I1575J-0D01*
G01X1272047Y1212205D02*
Y1213222D01*
G03X1271719Y1213610I-393J-0*
G01X1270696Y1214119D02*
G03X1271719Y1213610I1351J1432D01*
G01X1270696Y1214119D02*
G03X1270321Y1214212I-270J-286D01*
G01X1269898Y1214154D02*
G03X1270321Y1214212I-0J1575D01*
G01X1269898Y1214154D02*
X1267898D01*
X1267438Y1214223D02*
G03X1267898Y1214154I460J1506D01*
G01X1267438Y1214223D02*
G03X1266929Y1213846I-115J-377D01*
G01Y1211240*
G03X1267323Y1210846I394J0*
G01X1269685*
G03X1270000Y1211004I0J394*
G01X1271260Y1211634D02*
G03X1270000Y1211004I-0J-1575D01*
G01X1271260Y1211634D02*
X1271662D01*
X1262598Y1190945D02*
G03X1262598I-2559J0D01*
G01X1266929Y1212164D02*
X1272048D01*
X1266929Y1212873D02*
X1272047D01*
X1266929Y1213581D02*
X1271814D01*
X1266929Y1211455D02*
X1270532D01*
X1265764Y1201534D02*
X1270160D01*
X1268321Y1200825D02*
X1269884D01*
X1266052Y1202243D02*
X1269752D01*
X1268938Y1200117D02*
X1269665D01*
X1268275Y1196573D02*
X1269798D01*
X1268779Y1197282D02*
X1269741D01*
X1248720Y1280904D02*
X1251575D01*
X1248638Y1280196D02*
X1251575D01*
X1248638Y1279487D02*
X1251575D01*
X1248720Y1281613D02*
X1251560D01*
X1248586Y1278778D02*
X1251541D01*
X1255226Y1275944D02*
X1256299D01*
X1255589Y1276652D02*
X1256222D01*
X1223556Y1262479D02*
X1258858D01*
X1223591Y1261770D02*
X1258858D01*
X1223590Y1261062D02*
X1258858D01*
X1223556Y1260353D02*
X1258858D01*
X1223612Y1259644D02*
X1258858D01*
X1223508Y1258936D02*
X1258858D01*
X1223622Y1258227D02*
X1258858D01*
X1224313Y1257518D02*
X1258858D01*
X1225345Y1256810D02*
X1258858D01*
X1225788Y1256101D02*
X1258858D01*
X1225970Y1255392D02*
X1258858D01*
X1225947Y1254684D02*
X1258858D01*
X1225929Y1253975D02*
X1258858D01*
X1226488Y1253266D02*
X1258714D01*
X1228078Y1251140D02*
X1258668D01*
X1226534Y1252558D02*
X1258495D01*
X1227557Y1251849D02*
X1258484D01*
X1223613Y1263188D02*
X1258356D01*
X1228310Y1250432D02*
X1258196D01*
X1228331Y1249723D02*
X1257488D01*
X1228149Y1249014D02*
X1256793D01*
X1227705Y1248306D02*
X1256405D01*
X1227535Y1247597D02*
X1256299D01*
X1227534Y1246888D02*
X1256299D01*
X1227327Y1246180D02*
X1256299D01*
X1227351Y1245471D02*
X1256299D01*
X1228089Y1244762D02*
X1256299D01*
X1228432Y1244054D02*
X1256299D01*
X1228543Y1243345D02*
X1256299D01*
X1228454Y1242636D02*
X1256299D01*
X1228196Y1241928D02*
X1256299D01*
X1228606Y1241219D02*
X1256299D01*
X1228877Y1240510D02*
X1256299D01*
X1228932Y1239802D02*
X1256299D01*
X1228786Y1239093D02*
X1256299D01*
X1228740Y1238385D02*
X1256299D01*
X1228740Y1237676D02*
X1256299D01*
X1228740Y1236967D02*
X1256299D01*
X1228740Y1236259D02*
X1256299D01*
X1228740Y1235550D02*
X1256299D01*
X1231185Y1234841D02*
X1255992D01*
X1223508Y1263896D02*
X1234928D01*
X1223622Y1264605D02*
X1233908D01*
X1223620Y1265314D02*
X1233199D01*
X1223622Y1266022D02*
X1232679D01*
X1228740Y1234841D02*
X1231020D01*
X1228957Y1234133D02*
X1229311D01*
X1223622Y1266731D02*
X1227667D01*
X1223622Y1268857D02*
X1227659D01*
X1223622Y1268148D02*
X1227657D01*
X1223622Y1267440D02*
X1227657D01*
X1239764Y1212164D02*
X1242741D01*
X1239767Y1214999D02*
X1242652D01*
X1239764Y1212873D02*
X1242423D01*
X1239764Y1214290D02*
X1242423D01*
X1239764Y1213581D02*
X1242323D01*
X1255312Y1221377D02*
X1256299D01*
X1255246Y1220668D02*
X1256299D01*
X1254960Y1219959D02*
X1256299D01*
X1255531Y1222085D02*
X1256161D01*
X1252165Y1212873D02*
X1256299D01*
X1252187Y1213581D02*
X1256295D01*
X1252165Y1212164D02*
X1256034D01*
X1252165Y1211455D02*
X1255325D01*
X1261811Y1212873D02*
X1262992D01*
X1262077Y1212164D02*
X1262991D01*
X1261866Y1213581D02*
X1262973D01*
X1245136Y1205786D02*
X1262248D01*
X1244786Y1206495D02*
X1262178D01*
X1256377Y1207203D02*
X1261469D01*
X1257350Y1207912D02*
X1260761D01*
X1258058Y1208621D02*
X1260052D01*
X1258767Y1209329D02*
X1259343D01*
X1244801Y1201534D02*
X1262644D01*
X1240846Y1290117D02*
X1245393D01*
X1240846Y1289408D02*
X1245096D01*
X1240846Y1288699D02*
X1245079D01*
X1240846Y1287991D02*
X1245079D01*
X1240846Y1287282D02*
X1245079D01*
X1240846Y1286573D02*
X1245079D01*
X1240846Y1285865D02*
X1245079D01*
X1240846Y1285156D02*
X1245079D01*
X1240846Y1284448D02*
X1245079D01*
X1240846Y1283739D02*
X1244776D01*
X1240846Y1283030D02*
X1243957D01*
X1215708Y1222794D02*
X1221752D01*
X1215293Y1222085D02*
X1221752D01*
X1220775Y1221377D02*
X1221751D01*
X1215993Y1223503D02*
X1221684D01*
X1218119Y1225629D02*
X1221604D01*
X1217410Y1224920D02*
X1221604D01*
X1216701Y1224211D02*
X1221604D01*
X1215512Y1221377D02*
X1216626D01*
X1221121Y1215707D02*
X1223327D01*
X1221564Y1216416D02*
X1223307D01*
X1221624Y1214999D02*
X1223231D01*
X1221225Y1199408D02*
X1228051D01*
X1221641Y1198699D02*
X1228051D01*
X1227427Y1200117D02*
X1227821D01*
X1221305Y1205077D02*
X1226476D01*
X1221307Y1204369D02*
X1226476D01*
X1214951Y1292243D02*
X1215966D01*
X1214980Y1291534D02*
X1215775D01*
X1214764Y1292951D02*
X1215736D01*
X1214977Y1293660D02*
X1215694D01*
X1214780Y1284448D02*
X1215930D01*
X1214764Y1288699D02*
X1215797D01*
X1214764Y1285156D02*
X1215797D01*
X1214780Y1287991D02*
X1215775D01*
X1214780Y1283739D02*
X1215730D01*
X1214885Y1289408D02*
X1215729D01*
X1214780Y1287282D02*
X1215729D01*
X1214780Y1286573D02*
X1215729D01*
X1214773Y1285865D02*
X1215729D01*
X1214780Y1283030D02*
X1215729D01*
X1214813Y1282322D02*
X1215696D01*
X1205104Y1313503D02*
X1207087D01*
X1205096Y1312794D02*
X1207087D01*
X1204942Y1312085D02*
X1207087D01*
X1204620Y1311377D02*
X1207087D01*
X1204065Y1310668D02*
X1207087D01*
X1203032Y1309959D02*
X1207087D01*
X1185433Y1309251D02*
X1207087D01*
X1185433Y1308542D02*
X1207087D01*
X1185433Y1307833D02*
X1207087D01*
X1185433Y1307125D02*
X1207087D01*
X1185433Y1306416D02*
X1207078D01*
X1205116Y1314211D02*
X1207009D01*
X1185433Y1305707D02*
X1205709D01*
X1185433Y1304999D02*
X1205709D01*
X1185433Y1304290D02*
X1205709D01*
X1185433Y1303581D02*
X1205709D01*
X1185433Y1302873D02*
X1205709D01*
X1185433Y1302164D02*
X1205709D01*
X1185433Y1301455D02*
X1205709D01*
X1185433Y1300747D02*
X1205709D01*
X1185433Y1300038D02*
X1205709D01*
X1185433Y1299329D02*
X1205709D01*
X1185433Y1298621D02*
X1205709D01*
X1185433Y1297912D02*
X1205709D01*
X1185433Y1297203D02*
X1205709D01*
X1185433Y1292951D02*
X1205709D01*
X1191975Y1288699D02*
X1205709D01*
X1192684Y1287991D02*
X1205709D01*
X1193393Y1287282D02*
X1205709D01*
X1194101Y1286573D02*
X1205709D01*
X1194683Y1285865D02*
X1205709D01*
X1194685Y1285156D02*
X1205709D01*
X1194685Y1284448D02*
X1205709D01*
X1194685Y1283739D02*
X1205709D01*
X1194685Y1283030D02*
X1205709D01*
X1194701Y1282322D02*
X1205709D01*
X1185433Y1296495D02*
X1205617D01*
X1191267Y1289408D02*
X1205587D01*
X1185433Y1292243D02*
X1205521D01*
X1185433Y1293660D02*
X1205509D01*
X1185433Y1295786D02*
X1205493D01*
X1185433Y1295077D02*
X1205493D01*
X1185433Y1294369D02*
X1205493D01*
X1185433Y1291534D02*
X1205493D01*
X1185433Y1290825D02*
X1205493D01*
X1185435Y1290117D02*
X1205493D01*
X1185433Y1309959D02*
X1192243D01*
X1185433Y1310668D02*
X1191211D01*
X1185433Y1311377D02*
X1190656D01*
X1185433Y1312085D02*
X1190334D01*
X1185433Y1312794D02*
X1190180D01*
X1185433Y1313503D02*
X1190171D01*
X1185511Y1314211D02*
X1190159D01*
X1203496Y1232007D02*
X1208217D01*
X1202783Y1231298D02*
X1208000D01*
X1202074Y1230589D02*
X1206924D01*
X1201365Y1229881D02*
X1206091D01*
X1200657Y1229172D02*
X1205383D01*
X1199948Y1228463D02*
X1204674D01*
X1199239Y1227755D02*
X1203965D01*
X1198531Y1227046D02*
X1203257D01*
X1197822Y1226337D02*
X1202548D01*
X1197113Y1225629D02*
X1201839D01*
X1196405Y1224920D02*
X1201147D01*
X1196260Y1224211D02*
X1200775D01*
X1196260Y1223503D02*
X1200689D01*
X1196260Y1222794D02*
X1200689D01*
X1196260Y1222085D02*
X1200689D01*
X1196260Y1221377D02*
X1200689D01*
X1196260Y1220668D02*
X1200689D01*
X1196260Y1219959D02*
X1200689D01*
X1196260Y1219251D02*
X1200689D01*
X1196260Y1218542D02*
X1200689D01*
X1196260Y1217833D02*
X1200689D01*
X1196260Y1217125D02*
X1200689D01*
X1196260Y1216416D02*
X1200689D01*
X1196260Y1215707D02*
X1200689D01*
X1196260Y1214999D02*
X1200689D01*
X1196260Y1214290D02*
X1200689D01*
X1196260Y1213581D02*
X1200689D01*
X1196260Y1212873D02*
X1200689D01*
X1196260Y1212164D02*
X1200689D01*
X1196260Y1211455D02*
X1200689D01*
X1196260Y1210747D02*
X1200689D01*
X1196260Y1210038D02*
X1200689D01*
X1196260Y1209329D02*
X1200689D01*
X1196260Y1208621D02*
X1200689D01*
X1196260Y1207912D02*
X1200689D01*
X1196260Y1207203D02*
X1200689D01*
X1196260Y1206495D02*
X1200689D01*
X1196260Y1205786D02*
X1200689D01*
X1196260Y1205077D02*
X1200689D01*
X1199185Y1204369D02*
X1200689D01*
X1206791Y1215707D02*
X1210921D01*
X1206791Y1221377D02*
X1210551D01*
X1206791Y1216416D02*
X1210481D01*
X1206791Y1220668D02*
X1210242D01*
X1206791Y1217125D02*
X1210015D01*
X1206791Y1219959D02*
X1209877D01*
X1206791Y1217833D02*
X1209753D01*
X1206791Y1219251D02*
X1209689D01*
X1206791Y1218542D02*
X1209649D01*
X1206866Y1214999D02*
X1207549D01*
X1278529Y1313503D02*
X1285039D01*
X1278521Y1312794D02*
X1285039D01*
X1278367Y1312085D02*
X1285039D01*
X1278045Y1311377D02*
X1285039D01*
X1277490Y1310668D02*
X1285039D01*
X1276458Y1309959D02*
X1285039D01*
X1236417Y1309251D02*
X1285039D01*
X1236417Y1308542D02*
X1285039D01*
X1236417Y1307833D02*
X1285039D01*
X1236417Y1307125D02*
X1285039D01*
X1236417Y1306416D02*
X1285039D01*
X1236405Y1305707D02*
X1285039D01*
X1236130Y1304999D02*
X1285039D01*
X1231289Y1304290D02*
X1285039D01*
X1244443Y1303581D02*
X1285039D01*
X1245133Y1302873D02*
X1285039D01*
X1245291Y1302164D02*
X1285039D01*
X1245291Y1301455D02*
X1285039D01*
X1245291Y1300747D02*
X1285039D01*
X1245291Y1300038D02*
X1285039D01*
X1245575Y1299329D02*
X1285039D01*
X1246443Y1298621D02*
X1285039D01*
X1246652Y1297912D02*
X1285039D01*
X1246654Y1297203D02*
X1285039D01*
X1246654Y1296495D02*
X1285039D01*
X1246654Y1295786D02*
X1285039D01*
X1246654Y1295077D02*
X1285039D01*
X1246654Y1294369D02*
X1285039D01*
X1246654Y1293660D02*
X1285039D01*
X1279579Y1292951D02*
X1285039D01*
X1280055Y1292243D02*
X1285039D01*
X1280134Y1291534D02*
X1285039D01*
X1280134Y1290825D02*
X1285039D01*
X1280134Y1290117D02*
X1285039D01*
X1280134Y1289408D02*
X1285039D01*
X1281011Y1288699D02*
X1285039D01*
X1281685Y1287991D02*
X1285039D01*
X1281998Y1287282D02*
X1285039D01*
X1282086Y1286573D02*
X1285039D01*
X1281974Y1285865D02*
X1285039D01*
X1281631Y1285156D02*
X1285039D01*
X1280889Y1284448D02*
X1285039D01*
X1280134Y1283739D02*
X1285039D01*
X1280134Y1283030D02*
X1285039D01*
X1280134Y1282322D02*
X1285039D01*
X1280134Y1281613D02*
X1285039D01*
X1280893Y1280904D02*
X1285039D01*
X1281632Y1280196D02*
X1285039D01*
X1281975Y1279487D02*
X1285039D01*
X1282086Y1278778D02*
X1285039D01*
X1281997Y1278070D02*
X1285039D01*
X1281683Y1277361D02*
X1285039D01*
X1281007Y1276652D02*
X1285039D01*
X1273357Y1275944D02*
X1285039D01*
X1273258Y1275235D02*
X1285039D01*
X1273594Y1274526D02*
X1285039D01*
X1277159Y1273818D02*
X1285039D01*
X1277820Y1273109D02*
X1285039D01*
X1277969Y1272400D02*
X1285039D01*
X1277969Y1271692D02*
X1285039D01*
X1277944Y1270983D02*
X1285039D01*
X1277622Y1270274D02*
X1285039D01*
X1276471Y1269566D02*
X1285039D01*
X1276394Y1268857D02*
X1285039D01*
X1276394Y1268148D02*
X1285039D01*
X1276394Y1267440D02*
X1285039D01*
X1276286Y1266731D02*
X1285039D01*
X1276373Y1266022D02*
X1285039D01*
X1276394Y1265314D02*
X1285039D01*
X1276394Y1264605D02*
X1285039D01*
X1276394Y1263896D02*
X1285039D01*
X1276383Y1263188D02*
X1285039D01*
X1276960Y1262479D02*
X1285039D01*
X1277629Y1261770D02*
X1285039D01*
X1277781Y1261062D02*
X1285039D01*
X1277781Y1260353D02*
X1285039D01*
X1277781Y1259644D02*
X1285039D01*
X1277781Y1258936D02*
X1285039D01*
X1277781Y1258227D02*
X1285039D01*
X1277735Y1257518D02*
X1285039D01*
X1277346Y1256810D02*
X1285039D01*
X1277419Y1256101D02*
X1285039D01*
X1281708Y1255392D02*
X1285039D01*
X1282069Y1254684D02*
X1285039D01*
X1282106Y1253975D02*
X1285039D01*
X1282106Y1253266D02*
X1285039D01*
X1282106Y1252558D02*
X1285039D01*
X1282025Y1251849D02*
X1285039D01*
X1281543Y1251140D02*
X1285039D01*
X1278169Y1250432D02*
X1285039D01*
X1278165Y1249723D02*
X1285039D01*
X1278115Y1249014D02*
X1285039D01*
X1278163Y1248306D02*
X1285039D01*
X1278165Y1247597D02*
X1285039D01*
X1278157Y1246888D02*
X1285039D01*
X1278118Y1246180D02*
X1285039D01*
X1278150Y1245471D02*
X1285039D01*
X1278150Y1244762D02*
X1285039D01*
X1278072Y1244054D02*
X1285039D01*
X1278165Y1243345D02*
X1285039D01*
X1278165Y1242636D02*
X1285039D01*
X1278115Y1241928D02*
X1285039D01*
X1277714Y1241219D02*
X1285039D01*
X1272731Y1240510D02*
X1285039D01*
X1270819Y1239802D02*
X1285039D01*
X1270847Y1239093D02*
X1285039D01*
X1277043Y1238385D02*
X1285039D01*
X1277503Y1237676D02*
X1285039D01*
X1277575Y1236967D02*
X1285039D01*
X1277575Y1236259D02*
X1285039D01*
X1277502Y1235550D02*
X1285039D01*
X1277040Y1234841D02*
X1285039D01*
X1276597Y1234133D02*
X1285039D01*
X1277182Y1233424D02*
X1285039D01*
X1277481Y1232715D02*
X1285039D01*
X1277558Y1232007D02*
X1285039D01*
X1277435Y1231298D02*
X1285039D01*
X1277075Y1230589D02*
X1285039D01*
X1276297Y1229881D02*
X1285039D01*
X1274353Y1229172D02*
X1285039D01*
X1274672Y1228463D02*
X1285039D01*
X1274803Y1227755D02*
X1285039D01*
X1274803Y1227046D02*
X1285039D01*
X1274803Y1226337D02*
X1285039D01*
X1274803Y1225629D02*
X1285039D01*
X1274803Y1224920D02*
X1285039D01*
X1274803Y1224211D02*
X1285039D01*
X1274803Y1223503D02*
X1285039D01*
X1274803Y1222794D02*
X1285039D01*
X1274803Y1222085D02*
X1285039D01*
X1274803Y1221377D02*
X1285039D01*
X1274803Y1220668D02*
X1285039D01*
X1274897Y1219959D02*
X1285039D01*
X1275670Y1219251D02*
X1285039D01*
X1276044Y1218542D02*
X1285039D01*
X1276552Y1217833D02*
X1285039D01*
X1277412Y1217125D02*
X1285039D01*
X1277802Y1216416D02*
X1285039D01*
X1277948Y1215707D02*
X1285039D01*
X1277892Y1214999D02*
X1285039D01*
X1278077Y1214290D02*
X1285039D01*
X1278350Y1213581D02*
X1285039D01*
X1278362Y1212873D02*
X1285039D01*
X1278362Y1212164D02*
X1285039D01*
X1278317Y1211455D02*
X1285039D01*
X1280688Y1210747D02*
X1285039D01*
X1281076Y1210038D02*
X1285039D01*
X1281121Y1209329D02*
X1285039D01*
X1281121Y1208621D02*
X1285039D01*
X1281121Y1207912D02*
X1285039D01*
X1281053Y1207203D02*
X1285039D01*
X1280920Y1206495D02*
X1285039D01*
X1281120Y1205786D02*
X1285039D01*
X1281121Y1205077D02*
X1285039D01*
X1281121Y1204369D02*
X1285039D01*
X1281120Y1203660D02*
X1285039D01*
X1280919Y1202951D02*
X1285039D01*
X1280592Y1202243D02*
X1285039D01*
X1281028Y1201534D02*
X1285039D01*
X1281121Y1200825D02*
X1285039D01*
X1281121Y1200117D02*
X1285039D01*
X1281121Y1199408D02*
X1285039D01*
X1281092Y1198699D02*
X1285039D01*
X1280869Y1197991D02*
X1285039D01*
X1281106Y1197282D02*
X1285039D01*
X1281121Y1196573D02*
X1285039D01*
X1281121Y1195865D02*
X1285039D01*
X1281121Y1195156D02*
X1285039D01*
X1280996Y1194448D02*
X1285039D01*
X1280399Y1193739D02*
X1285039D01*
X1276772Y1193030D02*
X1285039D01*
X1276726Y1192322D02*
X1285039D01*
X1276339Y1191613D02*
X1285039D01*
X1269685Y1190904D02*
X1285039D01*
X1269573Y1190196D02*
X1285039D01*
X1282282Y1189487D02*
X1285039D01*
X1283154Y1188778D02*
X1285039D01*
X1283646Y1188070D02*
X1285039D01*
X1283927Y1187361D02*
X1285039D01*
X1284047Y1186652D02*
X1285039D01*
X1284023Y1185944D02*
X1285039D01*
X1278542Y1314211D02*
X1284962D01*
X1271163Y1292951D02*
X1271597D01*
X1270961Y1238385D02*
X1271383D01*
X1269229Y1189487D02*
X1270868D01*
X1268488Y1188778D02*
X1269996D01*
X1239601Y1188070D02*
X1269503D01*
X1264616Y1292951D02*
X1269388D01*
X1200463Y1187361D02*
X1269222D01*
X1200559Y1185944D02*
X1269126D01*
X1200583Y1186652D02*
X1269102D01*
X1264951Y1292243D02*
X1268355D01*
X1239788Y1195865D02*
X1268239D01*
X1267171Y1288699D02*
X1268211D01*
X1264885Y1289408D02*
X1267986D01*
X1264980Y1291534D02*
X1267913D01*
X1264980Y1290117D02*
X1267754D01*
X1264980Y1290825D02*
X1267731D01*
X1239764Y1195156D02*
X1267654D01*
X1239764Y1194448D02*
X1267383D01*
X1239764Y1193739D02*
X1267292D01*
X1264533Y1288699D02*
X1265900D01*
X1261401Y1188778D02*
X1265764D01*
X1236332Y1309959D02*
X1265668D01*
X1261523Y1193030D02*
X1265643D01*
X1244804Y1196573D02*
X1265505D01*
X1262142Y1189487D02*
X1265023D01*
X1262197Y1192322D02*
X1264969D01*
X1262486Y1190196D02*
X1264679D01*
X1262510Y1191613D02*
X1264656D01*
X1235839Y1310668D02*
X1264636D01*
X1262598Y1190904D02*
X1264567D01*
X1214764Y1311377D02*
X1264081D01*
X1214764Y1312085D02*
X1263759D01*
X1214764Y1312794D02*
X1263605D01*
X1214764Y1313503D02*
X1263597D01*
X1214842Y1314211D02*
X1263584D01*
X1246654Y1292951D02*
X1259794D01*
X1246652Y1292243D02*
X1259457D01*
X1240822Y1188778D02*
X1258678D01*
X1239836Y1193030D02*
X1258556D01*
X1241304Y1189487D02*
X1257936D01*
X1240824Y1192322D02*
X1257882D01*
X1241511Y1190196D02*
X1257592D01*
X1241305Y1191613D02*
X1257569D01*
X1241511Y1190904D02*
X1257481D01*
X1246442Y1291534D02*
X1256364D01*
X1246419Y1290825D02*
X1255731D01*
X1252639Y1290117D02*
X1255418D01*
X1253120Y1289408D02*
X1255079D01*
X1230954Y1303581D02*
X1240990D01*
X1237700Y1188070D02*
X1238352D01*
X1230456Y1302873D02*
X1236664D01*
X1228953Y1298621D02*
X1236116D01*
X1228999Y1302164D02*
X1236115D01*
X1228953Y1297912D02*
X1236029D01*
X1228953Y1301455D02*
X1236008D01*
X1228953Y1300747D02*
X1236008D01*
X1228860Y1300038D02*
X1236008D01*
X1228925Y1299329D02*
X1236008D01*
X1228953Y1297203D02*
X1235875D01*
X1228947Y1296495D02*
X1235577D01*
X1228805Y1295786D02*
X1235531D01*
X1228953Y1295077D02*
X1235531D01*
X1228953Y1294369D02*
X1235531D01*
X1228953Y1293660D02*
X1235531D01*
X1228953Y1292951D02*
X1235531D01*
X1228886Y1292243D02*
X1235531D01*
X1228908Y1291534D02*
X1235468D01*
X1220968Y1188070D02*
X1234741D01*
X1228953Y1290825D02*
X1232268D01*
X1221701Y1188778D02*
X1232103D01*
X1228953Y1290117D02*
X1231907D01*
X1228952Y1287282D02*
X1231877D01*
X1228953Y1289408D02*
X1231871D01*
X1228952Y1288699D02*
X1231871D01*
X1228797Y1287991D02*
X1231871D01*
X1222127Y1189487D02*
X1231361D01*
X1228953Y1286573D02*
X1231275D01*
X1228794Y1281613D02*
X1231178D01*
X1228740Y1283739D02*
X1231111D01*
X1228907Y1284448D02*
X1231099D01*
X1228953Y1285865D02*
X1231087D01*
X1228953Y1285156D02*
X1231087D01*
X1228740Y1283030D02*
X1231087D01*
X1228740Y1282322D02*
X1231087D01*
X1229949Y1310668D02*
X1230287D01*
X1222361Y1190196D02*
X1229483D01*
X1222441Y1190904D02*
X1228776D01*
X1222377Y1191613D02*
X1227918D01*
X1222163Y1192322D02*
X1226698D01*
X1221762Y1193030D02*
X1226216D01*
X1221317Y1193739D02*
X1226009D01*
X1221818Y1194448D02*
X1225892D01*
X1214764Y1310668D02*
X1224397D01*
X1221129Y1295786D02*
X1223951D01*
X1214764Y1309959D02*
X1223904D01*
X1220425Y1300038D02*
X1223896D01*
X1221119Y1299329D02*
X1223831D01*
X1214764Y1309251D02*
X1223819D01*
X1214764Y1308542D02*
X1223819D01*
X1221272Y1296495D02*
X1223809D01*
X1214780Y1301455D02*
X1223803D01*
X1214764Y1300747D02*
X1223803D01*
X1221279Y1298621D02*
X1223803D01*
X1221279Y1297912D02*
X1223803D01*
X1221279Y1297203D02*
X1223803D01*
X1221279Y1295077D02*
X1223803D01*
X1221279Y1294369D02*
X1223803D01*
X1214780Y1302164D02*
X1223756D01*
X1221371Y1293660D02*
X1223711D01*
X1214764Y1307833D02*
X1222685D01*
X1214780Y1302873D02*
X1222299D01*
X1214764Y1307125D02*
X1221940D01*
X1214780Y1303581D02*
X1221802D01*
X1214764Y1306416D02*
X1221679D01*
X1214764Y1304290D02*
X1221654D01*
X1214764Y1305707D02*
X1221654D01*
X1214764Y1304999D02*
X1221654D01*
X1200182Y1188070D02*
X1216827D01*
X1214765Y1300038D02*
X1216583D01*
X1206874Y1188778D02*
X1216094D01*
X1214780Y1299329D02*
X1215889D01*
X1214980Y1295786D02*
X1215878D01*
X1214855Y1296495D02*
X1215736D01*
X1214780Y1298621D02*
X1215729D01*
X1214780Y1297912D02*
X1215729D01*
X1214765Y1297203D02*
X1215729D01*
X1207615Y1189487D02*
X1215668D01*
X1207959Y1190196D02*
X1215434D01*
X1208071Y1190904D02*
X1215280D01*
X1207982Y1191613D02*
X1212449D01*
X1210991Y1197991D02*
X1212205D01*
X1206791Y1197282D02*
X1212205D01*
X1206791Y1196573D02*
X1212205D01*
X1206791Y1195865D02*
X1212205D01*
X1206791Y1195156D02*
X1212186D01*
X1207669Y1192322D02*
X1211904D01*
X1206791Y1194448D02*
X1211794D01*
X1206995Y1193030D02*
X1211658D01*
X1206791Y1193739D02*
X1211625D01*
X1207044Y1251849D02*
X1210220D01*
X1185433Y1251140D02*
X1210220D01*
X1185433Y1250432D02*
X1210171D01*
X1207452Y1252558D02*
X1210157D01*
X1185433Y1249723D02*
X1209325D01*
X1185433Y1246888D02*
X1209100D01*
X1185433Y1249014D02*
X1209052D01*
X1185433Y1247597D02*
X1209040D01*
X1185433Y1248306D02*
X1209039D01*
X1207206Y1246180D02*
X1209039D01*
X1206793Y1197991D02*
X1207907D01*
X1185433Y1239802D02*
X1206523D01*
X1185433Y1240510D02*
X1205591D01*
X1185433Y1241219D02*
X1203437D01*
X1185433Y1246180D02*
X1203424D01*
X1185433Y1241928D02*
X1203162D01*
X1185433Y1245471D02*
X1203160D01*
X1185433Y1244054D02*
X1203151D01*
X1185433Y1243345D02*
X1203150D01*
X1185433Y1244762D02*
X1203150D01*
X1185433Y1242636D02*
X1203150D01*
X1199689Y1188778D02*
X1201394D01*
X1199180Y1197991D02*
X1200689D01*
X1193944Y1197282D02*
X1200689D01*
X1185433Y1196573D02*
X1200689D01*
X1185433Y1195865D02*
X1200689D01*
X1185433Y1195156D02*
X1200689D01*
X1185433Y1194448D02*
X1200689D01*
X1185433Y1193739D02*
X1200689D01*
X1185433Y1193030D02*
X1200689D01*
X1198817Y1189487D02*
X1200653D01*
X1185433Y1192322D02*
X1200599D01*
X1185433Y1190196D02*
X1200309D01*
X1185433Y1191613D02*
X1200286D01*
X1185433Y1239093D02*
X1200254D01*
X1185433Y1190904D02*
X1200197D01*
X1185433Y1238385D02*
X1199519D01*
X1185433Y1251849D02*
X1199433D01*
X1185433Y1237676D02*
X1198811D01*
X1185433Y1236967D02*
X1198102D01*
X1185433Y1236259D02*
X1197393D01*
X1185433Y1235550D02*
X1196685D01*
X1195311Y1197991D02*
X1196096D01*
X1185433Y1234841D02*
X1195976D01*
X1185433Y1234133D02*
X1195267D01*
X1185433Y1233424D02*
X1194559D01*
X1185433Y1252558D02*
X1194023D01*
X1185433Y1232715D02*
X1193850D01*
X1185433Y1253266D02*
X1193561D01*
X1185433Y1253975D02*
X1193488D01*
X1185433Y1254684D02*
X1193324D01*
X1185433Y1232007D02*
X1193141D01*
X1185433Y1255392D02*
X1193130D01*
X1185433Y1261062D02*
X1193093D01*
X1185433Y1197282D02*
X1193064D01*
X1185433Y1256101D02*
X1193055D01*
X1185433Y1261770D02*
X1192913D01*
X1185433Y1264605D02*
X1192904D01*
X1185433Y1263896D02*
X1192898D01*
X1185433Y1263188D02*
X1192898D01*
X1185433Y1262479D02*
X1192898D01*
X1185433Y1231298D02*
X1192433D01*
X1185433Y1202951D02*
X1192323D01*
X1185433Y1202243D02*
X1192318D01*
X1185433Y1203660D02*
X1192312D01*
X1185433Y1230589D02*
X1191724D01*
X1185433Y1197991D02*
X1191697D01*
X1185433Y1201534D02*
X1191619D01*
X1185433Y1265314D02*
X1191413D01*
X1185433Y1210038D02*
X1191240D01*
X1185433Y1209329D02*
X1191240D01*
X1185433Y1198699D02*
X1191195D01*
X1185433Y1200825D02*
X1191158D01*
X1185433Y1210747D02*
X1191103D01*
X1185433Y1229881D02*
X1191015D01*
X1185433Y1199408D02*
X1190976D01*
X1185433Y1200117D02*
X1190964D01*
X1185433Y1204369D02*
X1190900D01*
X1185433Y1208621D02*
X1190896D01*
X1185433Y1260353D02*
X1190825D01*
X1185433Y1266022D02*
X1190704D01*
X1185433Y1256810D02*
X1190556D01*
X1185433Y1229172D02*
X1190307D01*
X1185433Y1259644D02*
X1190256D01*
X1185433Y1205077D02*
X1190193D01*
X1185433Y1207912D02*
X1190191D01*
X1185433Y1257518D02*
X1190182D01*
X1185433Y1258936D02*
X1190142D01*
X1185433Y1258227D02*
X1190142D01*
X1185433Y1216416D02*
X1190059D01*
X1185433Y1217125D02*
X1190028D01*
X1185433Y1266731D02*
X1189996D01*
X1185433Y1215707D02*
X1189981D01*
X1185433Y1205786D02*
X1189864D01*
X1185433Y1207203D02*
X1189863D01*
X1185433Y1206495D02*
X1189764D01*
X1185433Y1228463D02*
X1189598D01*
X1185433Y1211455D02*
X1189462D01*
X1185433Y1267440D02*
X1189287D01*
X1185433Y1214999D02*
X1189155D01*
X1185433Y1227755D02*
X1189051D01*
X1185433Y1212164D02*
X1188893D01*
X1185433Y1227046D02*
X1188880D01*
X1185433Y1226337D02*
X1188878D01*
X1185433Y1225629D02*
X1188878D01*
X1185433Y1224920D02*
X1188878D01*
X1185433Y1224211D02*
X1188878D01*
X1185433Y1223503D02*
X1188878D01*
X1185433Y1222794D02*
X1188878D01*
X1185433Y1222085D02*
X1188804D01*
X1185433Y1214290D02*
X1188748D01*
X1185433Y1212873D02*
X1188635D01*
X1185433Y1217833D02*
X1188624D01*
X1185433Y1213581D02*
X1188590D01*
X1185433Y1268148D02*
X1188578D01*
X1185433Y1221377D02*
X1188080D01*
X1185433Y1218542D02*
X1187977D01*
X1185433Y1268857D02*
X1187875D01*
X1185433Y1281613D02*
X1187795D01*
X1185433Y1280904D02*
X1187795D01*
X1185433Y1280196D02*
X1187795D01*
X1185433Y1279487D02*
X1187795D01*
X1185433Y1278778D02*
X1187795D01*
X1185433Y1278070D02*
X1187795D01*
X1185433Y1277361D02*
X1187795D01*
X1185433Y1276652D02*
X1187795D01*
X1185433Y1275944D02*
X1187795D01*
X1185433Y1275235D02*
X1187795D01*
X1185433Y1274526D02*
X1187795D01*
X1185433Y1273818D02*
X1187795D01*
X1185433Y1273109D02*
X1187795D01*
X1185433Y1272400D02*
X1187795D01*
X1185433Y1271692D02*
X1187795D01*
X1185433Y1270983D02*
X1187795D01*
X1185433Y1270274D02*
X1187795D01*
X1185433Y1269566D02*
X1187795D01*
X1185435Y1282322D02*
X1187793D01*
X1185433Y1220668D02*
X1187722D01*
X1185433Y1219251D02*
X1187677D01*
X1185433Y1219959D02*
X1187600D01*
X1185433Y1189487D02*
X1187403D01*
X1185433Y1188778D02*
X1186531D01*
G54D41*
X1226378Y1231496D02*
Y1239961D01*
X1260433Y1232874D02*
X1262205Y1234646D01*
X1265354*
X1199606Y1250000D02*
X1201772D01*
X1207087Y1250197D02*
X1208858Y1251378D01*
X1206693Y1263189D02*
Y1262992D01*
X1216142*
X1226378Y1279724D02*
Y1286024D01*
X1254134Y1282874D02*
Y1286811D01*
X1258071Y1282874D02*
Y1287008D01*
X1222638Y1294882D02*
Y1296850D01*
X1230315Y1289961D02*
Y1290748D01*
X1232283*
X1226378Y1289961D02*
Y1286024D01*
X1230315Y1293898D02*
X1232283D01*
X1226378D02*
Y1289961D01*
X1262008Y1287008D02*
Y1290748D01*
X1262205Y1290945*
X1254134Y1290748D02*
Y1292717D01*
X1262205Y1294882D02*
Y1296850D01*
X1218504Y1301575D02*
Y1303543D01*
X1232283Y1301772D02*
X1233268D01*
X1234646Y1300394*
X1230315Y1297835D02*
X1232283D01*
X1226378D02*
Y1293898D01*
X1230315Y1301772D02*
X1232283D01*
X1226378D02*
Y1297835D01*
X1234646Y1296457D02*
X1234843Y1296260D01*
Y1294488*
X1233071Y1307677D02*
Y1308858D01*
X1235630*
X1277901Y1214499D02*
X1276614Y1213213D01*
X1206943Y1198676D02*
X1208057Y1199789D01*
X1211954Y1198676D02*
X1210841Y1199789D01*
X1277505Y1310683D02*
X1276392Y1311797D01*
X1264620Y1310683D02*
X1265734Y1311797D01*
X1221403Y1193450D02*
X1220290Y1192337D01*
X1216392Y1188439D02*
X1217506Y1189553D01*
X1221403Y1188439D02*
X1220290Y1189553D01*
X1204080Y1310683D02*
X1202967Y1311797D01*
X1191195Y1310683D02*
X1192309Y1311797D01*
X1283017Y1188923D02*
X1281904Y1187809D01*
X1270132Y1188923D02*
X1271246Y1187809D01*
X1199553Y1188923D02*
X1198439Y1187809D01*
X1186668Y1188923D02*
X1187781Y1187809D01*
X1277704Y1241209D02*
X1276418Y1242496D01*
X1231548Y1286940D02*
X1232834Y1285654D01*
X1277507Y1273554D02*
X1276221Y1272268D01*
X1277507Y1270146D02*
X1276221Y1271433D01*
X1209501Y1249932D02*
X1210787Y1248646D01*
X1190603Y1256760D02*
X1191890Y1258047D01*
X1190603Y1260169D02*
X1191890Y1258882D01*
X1203611Y1246405D02*
X1204897Y1245118D01*
X1207019Y1246405D02*
X1205733Y1245118D01*
X1230186Y1310562D02*
X1231818Y1308930D01*
X1235956Y1310562D02*
X1234324Y1308930D01*
X1235956Y1304792D02*
X1234324Y1306424D01*
X1277114Y1238318D02*
X1275827Y1237032D01*
X1277114Y1234910D02*
X1275827Y1236197D01*
X1273161Y1275342D02*
X1271874Y1274055D01*
G54D42*
X1202756Y1190945D02*
Y1223622D01*
X1207677Y1228543*
X1209252*
X1204724Y1191732D02*
Y1222835D01*
X1206299Y1224409*
X1209252*
X1204724Y1191732D02*
X1205512Y1190945D01*
X1266732Y1198819D02*
X1241398D01*
X1241732Y1198878*
X1261417Y1215929D02*
Y1214764D01*
X1262008Y1214370*
X1213189Y1224409D02*
X1213976D01*
X1217913Y1228346*
X1220472*
X1240945Y1225197D02*
Y1221063D01*
X1242126Y1219882*
Y1219488*
X1240945Y1225197D02*
Y1230118D01*
X1267126Y1224409D02*
Y1228346D01*
X1267717*
X1268898Y1216929D02*
Y1219488D01*
X1213189Y1228543D02*
X1215354D01*
X1216732Y1229921*
X1220472*
X1213583Y1232480D02*
X1215551D01*
X1216535Y1231496*
X1220472*
X1226378*
X1238386Y1232283D02*
Y1229331D01*
X1239370Y1228346*
Y1225197*
X1265354Y1234646D02*
X1267717D01*
X1212598Y1242717D02*
X1212795Y1242913D01*
X1213386*
X1217323Y1246850*
Y1249803*
X1217913Y1250394*
X1220472*
X1213189Y1239567D02*
X1214961D01*
X1216339Y1240945*
X1220472*
X1225394*
X1226378Y1239961*
X1275984Y1245276D02*
X1276000Y1245291D01*
Y1246457*
X1275984Y1245276D02*
X1276000Y1245260D01*
Y1242913*
X1275409Y1236614D02*
X1276969D01*
X1212795Y1255512D02*
X1213976D01*
X1218307Y1259843*
X1220472*
X1213189Y1248228D02*
X1214764D01*
X1212795Y1251378D02*
X1213189D01*
X1216929Y1255118*
X1220472*
X1214764Y1248228D02*
X1215157Y1248622D01*
Y1250984*
X1217717Y1253543*
X1220472*
X1276000Y1247638D02*
Y1246457D01*
X1277362*
X1276000Y1250000D02*
X1277362D01*
X1212795Y1259449D02*
X1215551D01*
X1217520Y1261417*
X1220472*
X1216142Y1262992D02*
X1220472D01*
Y1267717D02*
X1223425D01*
X1233071Y1269488D02*
Y1272441D01*
X1228346Y1275197D02*
Y1272441D01*
X1231496Y1273425D02*
Y1278543D01*
X1229921Y1272441D02*
Y1269488D01*
X1233071Y1272441D02*
Y1275394D01*
X1235236Y1277559*
Y1281102*
X1234646Y1266929D02*
Y1272441D01*
Y1274803*
X1237598Y1277756*
Y1296063*
X1242520Y1272441D02*
Y1269094D01*
X1243110*
X1267717Y1267717D02*
X1270472D01*
X1231496Y1278543D02*
X1233268D01*
X1230315Y1286024D02*
Y1285433D01*
X1231890*
X1230118Y1282480D02*
X1232087Y1281890D01*
X1230118Y1278543D02*
X1231496D01*
X1233252Y1282874D02*
X1233268Y1282858D01*
Y1280528*
X1246063Y1280709D02*
X1246654Y1280906D01*
Y1282874*
X1248819Y1285039*
Y1286220*
X1249016Y1286417*
X1255724Y1279528D02*
X1257283D01*
X1242717Y1295079D02*
Y1300984D01*
G54D43*
X1195669Y1255709D02*
X1195631Y1258464D01*
X1195669Y1263189*
X1195563Y1263280D02*
X1195669Y1263386D01*
X1199016*
X1195669Y1263189D02*
X1195563Y1263280D01*
X1195472Y1263189*
X1202953Y1263386D02*
Y1263189D01*
X1206693*
X1263780Y1256693D02*
X1264075Y1256988D01*
X1264469*
X1192520Y1270669D02*
X1192913D01*
Y1268701*
X1192520Y1274606D02*
X1196260D01*
X1204134Y1270669D02*
X1200197D01*
Y1274606*
X1196260D02*
Y1270669D01*
X1204528Y1267126D02*
X1206693D01*
X1210039Y1274606D02*
X1212008D01*
Y1270669D02*
X1210433D01*
Y1266929*
X1204134Y1274606D02*
X1208071D01*
X1204134Y1270669D02*
X1208071D01*
Y1274606D02*
X1210039D01*
X1208071Y1270669D02*
X1210433D01*
X1216142Y1275394D02*
Y1273425D01*
X1219685Y1269882*
X1214370Y1266929D02*
X1215945D01*
X1216732Y1266142*
X1192520Y1278543D02*
Y1274606D01*
X1196457Y1278543D02*
X1198425D01*
X1206299Y1279331D02*
X1208268D01*
X1206299Y1283268D02*
X1208268D01*
X1204134Y1276378D02*
Y1274606D01*
X1212205Y1283268D02*
Y1279331D01*
X1216142*
X1222441Y1283465D02*
Y1279724D01*
X1266339Y1283858D02*
Y1286024D01*
X1266535Y1286220*
X1181102Y1286811D02*
X1189173D01*
X1190551Y1285433*
Y1283465*
X1206299Y1287205D02*
X1208268D01*
X1212205Y1283268D02*
Y1287205D01*
Y1290945*
X1208268D02*
X1212205D01*
X1208268Y1294882D02*
X1212205D01*
X1218504Y1286614D02*
Y1287402D01*
X1222441*
Y1290748*
X1222638Y1290945*
X1218504Y1290157D02*
Y1287402D01*
X1206299Y1298622D02*
X1208268D01*
X1206299Y1302559D02*
X1208268D01*
X1212205D02*
Y1298622D01*
Y1294882*
X1218504Y1297638D02*
Y1294094D01*
X1227165Y1307677D02*
X1226378Y1304921D01*
Y1301772*
X1210433Y1318701D02*
Y1310827D01*
X1212205Y1309055*
X1193898Y1191142D03*
X1186811D03*
X1191339Y1195472D03*
X1198425D03*
X1202756Y1190945D03*
X1206299Y1186220D03*
X1212992D03*
X1210630Y1191535D03*
X1211811Y1196063D03*
X1207283Y1195866D03*
X1205512Y1190945D03*
X1220276Y1186220D03*
X1214173Y1193504D03*
X1233465Y1186220D03*
X1228346Y1186417D03*
X1224409Y1192323D03*
X1228543Y1194094D03*
X1230906Y1192323D03*
X1233465Y1190945D03*
X1236220Y1190157D03*
X1238976Y1190551D03*
X1248622Y1186417D03*
X1251575Y1192520D03*
X1248031Y1195866D03*
X1244685Y1193898D03*
X1263386Y1190945D03*
X1255906Y1186220D03*
X1255315Y1190354D03*
X1260039Y1190945D03*
X1273031Y1190354D03*
X1265551Y1196063D03*
X1264173Y1186417D03*
X1267126Y1190945D03*
X1269882Y1193898D03*
X1279134Y1191142D03*
X1284055Y1189173D03*
X1191339Y1202953D03*
X1186811Y1203150D03*
X1186614Y1197047D03*
X1193504Y1199803D03*
X1224409Y1204528D03*
Y1199213D03*
X1253937Y1201575D03*
X1247441Y1201378D03*
X1262598D03*
X1254724Y1196260D03*
X1269488Y1201575D03*
X1263976Y1203740D03*
X1266732Y1198819D03*
X1283858Y1196457D03*
X1277362Y1201575D03*
X1284252Y1203346D03*
X1186811Y1209843D03*
X1191142Y1213386D03*
X1192323Y1206496D03*
X1197244D03*
X1200197Y1209449D03*
X1197047Y1214173D03*
X1222638Y1215945D03*
X1214173Y1213189D03*
X1241535Y1212598D03*
X1242126Y1215945D03*
X1239961D03*
X1247835Y1206496D03*
X1247047Y1215157D03*
X1244882Y1213583D03*
X1254921Y1212598D03*
X1262795Y1211614D03*
X1262008Y1214370D03*
X1270079Y1212795D03*
X1277756D03*
X1275394Y1215551D03*
X1284252Y1209449D03*
X1186811Y1222835D03*
Y1216535D03*
X1190157Y1219882D03*
X1200000Y1218307D03*
X1197047Y1222441D03*
X1207874Y1217323D03*
X1208071Y1220669D03*
X1216732Y1223425D03*
X1250394Y1220276D03*
X1248228Y1219094D03*
X1252756Y1221260D03*
X1255906Y1220276D03*
X1256102Y1216732D03*
X1263189Y1217717D03*
X1263976Y1220472D03*
X1267126Y1224409D03*
X1273622Y1217717D03*
X1268898Y1219488D03*
X1278543Y1216732D03*
X1281299Y1221260D03*
X1275984Y1219685D03*
X1275197Y1224409D03*
X1284252Y1216142D03*
X1284449Y1223622D03*
X1186220Y1230709D03*
X1191732Y1231693D03*
X1202559Y1230118D03*
X1206102Y1231693D03*
X1210039Y1232087D03*
X1223819Y1234055D03*
X1229724Y1229528D03*
X1233858Y1229724D03*
X1226378Y1231496D03*
X1231102Y1232283D03*
X1236614Y1235236D03*
X1240945Y1230118D03*
X1245079Y1236024D03*
X1249606Y1228346D03*
X1251772Y1229724D03*
X1260433Y1232874D03*
X1254528Y1229921D03*
X1257874Y1230315D03*
X1273031Y1233661D03*
X1279724Y1226378D03*
X1275000Y1232087D03*
X1284252Y1229528D03*
X1191339Y1237205D03*
X1186220D03*
X1190748Y1243504D03*
X1186024Y1243701D03*
X1197441Y1237402D03*
X1200394Y1243898D03*
X1196260D03*
X1203937Y1245669D03*
X1204134Y1239961D03*
X1209646Y1239567D03*
X1206890Y1242717D03*
X1217323Y1243701D03*
X1223819Y1244882D03*
X1214961Y1239567D03*
X1231693Y1236811D03*
X1229331Y1241929D03*
X1233071Y1243898D03*
X1226378Y1239961D03*
X1225984Y1243307D03*
X1236417Y1239961D03*
X1251378Y1236417D03*
X1249016Y1240157D03*
X1244882Y1242520D03*
X1253937Y1245079D03*
X1255512Y1238780D03*
X1262008Y1238583D03*
X1263583Y1240945D03*
X1271850Y1242913D03*
X1277362Y1243701D03*
X1276969Y1236614D03*
X1284252Y1236417D03*
X1284449Y1242323D03*
X1190551Y1250394D03*
X1186220Y1250197D03*
X1189567Y1255906D03*
X1186220Y1256102D03*
X1195472Y1250394D03*
X1199606Y1250000D03*
X1207087Y1250197D03*
X1209646Y1248228D03*
X1223425Y1251969D03*
Y1255118D03*
X1214764Y1248228D03*
X1229134Y1247638D03*
X1231890Y1252559D03*
X1227953Y1255709D03*
X1225787Y1250000D03*
X1225000Y1247244D03*
X1237008Y1247835D03*
X1246654Y1247244D03*
X1247047Y1252362D03*
X1253543Y1252559D03*
X1255709Y1248622D03*
X1257677Y1252756D03*
X1261024Y1252165D03*
Y1246654D03*
X1263780Y1247244D03*
X1264961Y1251969D03*
X1271457Y1246457D03*
X1280512Y1247244D03*
X1277362Y1250000D03*
Y1246457D03*
X1284252Y1255709D03*
X1186220Y1263386D03*
X1189567Y1263189D03*
X1190748Y1258465D03*
X1203937Y1260433D03*
X1231102Y1259646D03*
X1225394Y1260039D03*
X1231299Y1264764D03*
X1225000Y1264370D03*
X1236811Y1262205D03*
X1241142Y1260433D03*
X1236614Y1256299D03*
X1247047Y1262992D03*
X1256102Y1259646D03*
X1258268Y1262795D03*
X1254134D03*
X1263780Y1256693D03*
X1263976Y1263780D03*
Y1258858D03*
X1280709Y1256496D03*
X1279724Y1265354D03*
X1186220Y1269291D03*
X1189370Y1273425D03*
X1192913Y1268701D03*
X1200984Y1267126D03*
X1195866Y1266929D03*
X1204528Y1267126D03*
X1210039Y1274606D03*
X1223425Y1267717D03*
X1221457Y1272244D03*
X1219488Y1274803D03*
X1216142Y1269685D03*
X1227165Y1267717D03*
X1237402Y1268701D03*
X1243110Y1269094D03*
X1240354D03*
X1250787Y1268504D03*
X1261024Y1266929D03*
X1257087Y1268701D03*
X1261417Y1269488D03*
X1270472Y1267717D03*
X1271457Y1275197D03*
X1279724Y1274016D03*
X1275787Y1275000D03*
X1277362Y1271654D03*
X1284449Y1267913D03*
Y1271063D03*
X1186614Y1276378D03*
X1186811Y1282087D03*
X1202559Y1279528D03*
X1197835Y1282677D03*
X1203150Y1284055D03*
X1194685Y1285039D03*
X1198425Y1278543D03*
X1206299Y1279331D03*
Y1283268D03*
X1204134Y1276378D03*
X1215354Y1282874D03*
X1231890Y1285433D03*
X1232087Y1281890D03*
X1241142Y1282677D03*
X1235433Y1281299D03*
X1246063Y1277362D03*
X1250197Y1278543D03*
X1256102Y1276575D03*
X1257283Y1279528D03*
X1262992Y1283071D03*
X1271654Y1282677D03*
X1279528Y1278740D03*
X1283858Y1277165D03*
X1284055Y1283465D03*
X1191732Y1289370D03*
Y1294094D03*
X1186614Y1291732D03*
X1195866Y1291142D03*
X1203937Y1293701D03*
X1199803Y1288189D03*
Y1294094D03*
X1206299Y1287205D03*
X1215551Y1287008D03*
X1215354Y1292520D03*
X1232283Y1290748D03*
Y1293898D03*
X1235236Y1286811D03*
X1234843Y1294488D03*
X1252362Y1295079D03*
X1258071Y1289370D03*
X1254134Y1292717D03*
X1270276Y1290551D03*
X1269882Y1293701D03*
X1266535Y1286220D03*
X1279528Y1286614D03*
X1281693Y1291732D03*
X1275591Y1294291D03*
X1284252Y1295276D03*
X1191535Y1300787D03*
X1186614Y1298031D03*
Y1305709D03*
X1195669Y1304528D03*
Y1297638D03*
X1199803Y1300984D03*
X1206299Y1298622D03*
Y1302559D03*
X1221063Y1305512D03*
X1222638Y1300197D03*
X1215551Y1304134D03*
X1215354Y1298031D03*
X1218504Y1303543D03*
X1222638Y1296850D03*
X1226378Y1304921D03*
X1228543D03*
X1224213D03*
X1232283Y1297835D03*
Y1301772D03*
X1250984Y1298819D03*
X1253937Y1301181D03*
X1248622Y1300591D03*
X1257677Y1296457D03*
X1261417Y1301575D03*
X1262205Y1296850D03*
X1272047Y1297244D03*
X1272835Y1303150D03*
X1282283Y1299606D03*
X1278740Y1297244D03*
X1279724Y1302756D03*
X1284449Y1304921D03*
X1186811Y1312598D03*
X1191535Y1308071D03*
X1199213Y1308268D03*
X1206496Y1308465D03*
X1218701Y1313189D03*
X1221063Y1310039D03*
X1215748Y1309449D03*
X1225197Y1313189D03*
X1242717Y1313386D03*
X1234646Y1313189D03*
X1241339Y1308858D03*
X1235630D03*
X1250591Y1313189D03*
X1253937Y1309055D03*
X1247441Y1308858D03*
X1259449Y1313189D03*
X1260236Y1309055D03*
X1267717Y1308661D03*
X1281102Y1313386D03*
X1281496Y1309055D03*
X1275394Y1308858D03*
G54D44*
X1241732Y1193878D02*
X1244665D01*
X1244685Y1193898*
X1242126Y1215945D02*
Y1217504D01*
X1276197Y1212795D02*
X1277756D01*
X1239764Y1217504D02*
X1239961D01*
Y1215945*
X1210039Y1232087D02*
X1211598D01*
Y1232480*
X1231102Y1232283D02*
X1238386D01*
X1256496*
X1258465Y1234252*
Y1247638*
X1260433Y1249606*
X1267717*
X1203937Y1245669D02*
X1205315Y1244701D01*
X1209646Y1239567D02*
X1211205D01*
X1208661Y1242717D02*
X1206890D01*
X1205315*
X1274000Y1245276D02*
Y1247622D01*
X1274016Y1247638*
X1201772Y1253937D02*
Y1253528D01*
X1205315*
X1195654Y1254331D02*
X1195669D01*
Y1255709*
X1197638Y1254331D02*
X1201772D01*
Y1253937*
X1209646Y1248228D02*
X1211205D01*
Y1245866*
X1213189Y1248228D02*
Y1245866D01*
X1205315Y1255512D02*
X1208858D01*
X1261024Y1246654D02*
X1262795Y1244882D01*
X1264764*
X1265551Y1245669*
X1274016Y1248819D02*
Y1250000D01*
Y1250394D02*
Y1253543D01*
X1277362Y1250000D02*
X1277559D01*
X1278150Y1249409*
X1279331*
X1274606Y1253496D02*
X1274756Y1253346D01*
X1279331*
X1274016Y1247638D02*
Y1248819D01*
Y1250000D02*
Y1250394D01*
X1189567Y1263189D02*
X1191535D01*
X1190748Y1258465D02*
X1192307D01*
X1203937Y1260433D02*
Y1260055D01*
X1205512*
X1201378Y1258465D02*
Y1258071D01*
X1205512*
X1194291Y1258465D02*
X1195630D01*
X1195631Y1258464*
X1194291Y1258465D02*
X1197441D01*
X1205512Y1258071D02*
X1206890D01*
X1208268Y1259449*
X1208858*
X1263976Y1263780D02*
X1264764Y1264567D01*
X1265157*
X1264469Y1256988D02*
X1264764Y1256693D01*
X1264961*
X1263976Y1263780D02*
Y1258858D01*
Y1257283*
X1264469Y1256988*
X1273819Y1264567D02*
Y1268504D01*
X1277756Y1264567D02*
Y1265354D01*
X1279724*
X1216732Y1266142D02*
X1218701D01*
X1234646Y1266929D02*
X1235630Y1265945D01*
X1258661*
X1261024Y1263583*
Y1252165*
X1271457Y1273638D02*
Y1275197D01*
X1273819Y1268504D02*
Y1271850D01*
X1277362Y1271654D02*
Y1268504D01*
X1277756*
X1190551Y1283465D02*
Y1281890D01*
X1192520Y1278543D02*
X1192535Y1278559D01*
Y1281890*
X1219291Y1282677D02*
Y1278346D01*
X1223425Y1274213*
X1226378Y1279724D02*
Y1277953D01*
X1228346Y1275984*
Y1275197*
X1241142Y1282677D02*
Y1286417D01*
X1242717*
X1235236Y1285236D02*
Y1282874D01*
X1250000Y1280709D02*
X1250197Y1280906D01*
Y1278543*
X1253740Y1279528D02*
Y1284252D01*
X1254134Y1282874*
X1262992Y1281512D02*
Y1283071D01*
X1277559Y1282677D02*
Y1278740D01*
X1279528*
X1234646Y1288780D02*
X1235236Y1288386D01*
Y1285236*
X1249016Y1295079D02*
X1252362D01*
X1277559Y1290551D02*
Y1286614D01*
X1279528*
X1212205Y1305890D02*
Y1302559D01*
X1238583Y1296457D02*
Y1300394D01*
X1246654Y1300984D02*
Y1300591D01*
X1248622*
X1212205Y1309055D02*
Y1307874D01*
G54D46*
X1258071Y1287008D02*
Y1289370D01*
G54D48*
X1181102Y1314567D02*
X1185433Y1318898D01*
X1285236*
X1289370Y1314764*
Y1181102*
X1181102*
Y1314567*
G54D56*
X1274213Y1212795D03*
X1276197D03*
X1194291Y1258465D03*
X1192307D03*
X1261417Y1217913D03*
Y1215929D03*
X1190551Y1281890D03*
X1192535D03*
X1212205Y1307874D03*
Y1305890D03*
X1239764Y1219488D03*
Y1217504D03*
X1253740Y1279528D03*
X1255724D03*
X1235236Y1285236D03*
X1233252D03*
X1235236Y1282874D03*
X1233252D03*
X1233268Y1278543D03*
Y1280528D03*
X1205315Y1255512D03*
Y1253528D03*
X1262992Y1279528D03*
Y1281512D03*
X1197638Y1254331D03*
X1195654D03*
X1213189Y1248228D03*
X1211205D03*
X1213189Y1245866D03*
X1211205D03*
X1213189Y1239567D03*
X1211205D03*
X1213583Y1232480D03*
X1211598D03*
X1242126Y1219488D03*
Y1217504D03*
X1274016Y1242913D03*
X1276000D03*
X1273425Y1236614D03*
X1275409D03*
X1274016Y1250000D03*
X1276000D03*
X1274016Y1247638D03*
X1276000D03*
X1275984Y1245276D03*
X1274000D03*
X1273819Y1271850D03*
X1275803D03*
X1205315Y1242717D03*
Y1244701D03*
X1205512Y1258071D03*
Y1260055D03*
X1271457Y1271654D03*
Y1273638D03*
X1244488Y1277362D03*
X1242504D03*
G54D58*
X1202953Y1263386D03*
X1199016D03*
X1195472Y1263189D03*
X1191535D03*
X1196260Y1274606D03*
X1200197D03*
X1246063Y1280709D03*
X1250000D03*
X1242717Y1300984D03*
X1246654D03*
X1226378Y1301772D03*
X1230315D03*
X1226378Y1297835D03*
X1230315D03*
X1226378Y1293898D03*
X1230315D03*
X1226378Y1289961D03*
X1230315D03*
X1226378Y1286024D03*
X1230315D03*
X1238583Y1300394D03*
X1234646D03*
X1238583Y1296457D03*
X1234646D03*
X1212205Y1279331D03*
X1208268D03*
X1212205Y1298622D03*
X1208268D03*
X1212205Y1283268D03*
X1208268D03*
X1212795Y1251378D03*
X1208858D03*
X1273819Y1268504D03*
X1277756D03*
X1273819Y1264567D03*
X1277756D03*
X1192520Y1278543D03*
X1196457D03*
X1222441Y1279724D03*
X1226378D03*
X1212205Y1302559D03*
X1208268D03*
X1212205Y1287205D03*
X1208268D03*
X1212795Y1259449D03*
X1208858D03*
X1201378Y1258465D03*
X1197441D03*
X1212795Y1255512D03*
X1208858D03*
X1212598Y1242717D03*
X1208661D03*
X1200197Y1270669D03*
X1196260D03*
X1264961Y1216929D03*
X1268898D03*
X1214370Y1266929D03*
X1210433D03*
X1254134Y1216535D03*
X1250197D03*
X1213189Y1224409D03*
X1209252D03*
X1258071Y1287008D03*
X1262008D03*
X1213189Y1228543D03*
X1209252D03*
X1258071Y1282874D03*
X1254134D03*
X1277559Y1290551D03*
X1273622D03*
X1277559Y1286614D03*
X1273622D03*
X1277559Y1282677D03*
X1273622D03*
X1277559Y1278740D03*
X1273622D03*
G54D59*
X1206693Y1263189D03*
Y1267126D03*
X1208268Y1294882D03*
Y1290945D03*
X1212008Y1270669D03*
Y1274606D03*
X1208071Y1270669D03*
Y1274606D03*
X1192520D03*
Y1270669D03*
X1218504Y1282677D03*
Y1286614D03*
X1234646Y1288780D03*
Y1292717D03*
X1230118Y1278543D03*
Y1282480D03*
X1222638Y1290945D03*
Y1294882D03*
X1218504Y1297638D03*
Y1301575D03*
X1262205Y1290945D03*
Y1294882D03*
X1254134Y1286811D03*
Y1290748D03*
X1279331Y1253346D03*
Y1249409D03*
X1201772Y1250000D03*
Y1253937D03*
X1218504Y1290157D03*
Y1294094D03*
X1222441Y1287402D03*
Y1283465D03*
X1212205Y1290945D03*
Y1294882D03*
X1204134Y1270669D03*
Y1274606D03*
X1216142Y1275394D03*
Y1279331D03*
X1278346Y1208661D03*
Y1204724D03*
Y1196063D03*
Y1200000D03*
X1266339Y1283858D03*
Y1279921D03*
G54D60*
X1227165Y1307677D03*
X1233071D03*
X1181102Y1306890D03*
Y1246654D03*
Y1239961D03*
Y1233268D03*
Y1226575D03*
Y1219882D03*
Y1213189D03*
Y1206496D03*
Y1199803D03*
Y1193110D03*
X1196260Y1180906D03*
X1181102Y1300197D03*
X1203346Y1180906D03*
X1210433D03*
X1217520D03*
X1224606D03*
X1231693D03*
X1238780D03*
X1245866D03*
X1252953D03*
X1260039D03*
X1267126D03*
X1181102Y1293504D03*
X1274213Y1180906D03*
X1289370Y1193110D03*
Y1199803D03*
Y1206496D03*
Y1213189D03*
Y1219882D03*
Y1226575D03*
Y1233268D03*
Y1239961D03*
Y1246654D03*
X1181102Y1286811D03*
X1289370Y1253346D03*
Y1260039D03*
Y1266732D03*
Y1273425D03*
Y1280118D03*
Y1286811D03*
Y1293504D03*
Y1300197D03*
Y1306890D03*
X1274213Y1318898D03*
X1181102Y1280118D03*
X1267126Y1318898D03*
X1260039Y1318701D03*
X1252953D03*
X1245866D03*
X1238780D03*
X1231693D03*
X1224606D03*
X1217520D03*
X1210433D03*
X1203346D03*
X1181102Y1273425D03*
X1196260Y1318701D03*
X1181102Y1266732D03*
Y1260039D03*
Y1253346D03*
G54D61*
X1274606Y1259496D03*
Y1253496D03*
G54D69*
X1267717Y1228346D03*
Y1229921D03*
Y1231496D03*
Y1233071D03*
Y1234646D03*
Y1236220D03*
Y1237795D03*
Y1239370D03*
Y1240945D03*
Y1242520D03*
Y1244094D03*
Y1245669D03*
Y1247244D03*
Y1248819D03*
Y1250394D03*
Y1251969D03*
Y1253543D03*
Y1255118D03*
Y1256693D03*
Y1258268D03*
Y1259843D03*
Y1261417D03*
Y1262992D03*
Y1264567D03*
Y1266142D03*
Y1267717D03*
Y1269291D03*
X1220472D03*
Y1267717D03*
Y1266142D03*
Y1264567D03*
Y1262992D03*
Y1261417D03*
Y1259843D03*
Y1258268D03*
Y1256693D03*
Y1255118D03*
Y1253543D03*
Y1251969D03*
Y1250394D03*
Y1248819D03*
Y1247244D03*
Y1245669D03*
Y1244094D03*
Y1242520D03*
Y1240945D03*
Y1239370D03*
Y1237795D03*
Y1236220D03*
Y1234646D03*
Y1233071D03*
Y1231496D03*
Y1229921D03*
Y1228346D03*
G54D70*
X1264567Y1272441D03*
X1262992D03*
X1261417D03*
X1259843D03*
X1258268D03*
X1256693D03*
X1255118D03*
X1253543D03*
X1251969D03*
X1250394D03*
X1248819D03*
X1247244D03*
X1245669D03*
X1244094D03*
X1242520D03*
X1240945D03*
X1239370D03*
X1237795D03*
X1236220D03*
X1234646D03*
X1233071D03*
X1231496D03*
X1229921D03*
X1228346D03*
X1226772D03*
X1225197D03*
X1223622D03*
Y1225197D03*
X1225197D03*
X1226772D03*
X1228346D03*
X1229921D03*
X1231496D03*
X1233071D03*
X1234646D03*
X1236220D03*
X1237795D03*
X1239370D03*
X1240945D03*
X1242520D03*
X1244094D03*
X1245669D03*
X1247244D03*
X1248819D03*
X1250394D03*
X1251969D03*
X1253543D03*
X1255118D03*
X1256693D03*
X1258268D03*
X1259843D03*
X1261417D03*
X1262992D03*
X1264567D03*
G54D71*
X1244094Y1248858D03*
G54D72*
X1241732Y1208878D03*
Y1203878D03*
Y1198878D03*
Y1193878D03*
X1273228D03*
Y1198878D03*
Y1203878D03*
Y1208878D03*
G54D73*
X1249016Y1286417D03*
Y1295079D03*
X1242717D03*
Y1286417D03*
G54D74*
X1284646Y1181102D02*
X1277165D01*
G74*
X0Y0D02*
M02*
